%
M48
M72
T01C0.0236
T02C0.0315
T03C0.0320
T04C0.0374
T05C0.0394
T06C0.0400
T07C0.0433
T08C0.0472
T09C0.0520
T10C0.0590
T11C0.0787
T12C0.0906
%
T01
X20494Y17494
X27994Y25994
X19494Y29994
X57994Y17994
X59494Y16494
X59994Y11994
X57494Y9994
X54494Y11994
X93994Y16994
X102494Y15994
X111994Y17994
X101494Y22994
X97494Y22994
X102994Y10994
X107494Y39494
T02
X99994Y41994
X99994Y42994
X98994Y42994
X98994Y41994
X97994Y41994
X97994Y42994
X96994Y42994
X96994Y41994
X95994Y41994
X95994Y42994
X94994Y42994
X93994Y42994
X93994Y41994
X94994Y41994
X92994Y41994
X92994Y42994
X91994Y42994
X91994Y41994
X90994Y41994
X90994Y42994
X89994Y42994
X89994Y41994
X88994Y41994
X88994Y42994
X87994Y42994
X86994Y42994
X86994Y41994
X87994Y41994
X85994Y41994
X85994Y42994
X84994Y42994
X84994Y41994
X83994Y41994
X83994Y42994
X82994Y42994
X82994Y41994
X81994Y41994
X81994Y42994
X80994Y42994
X79994Y42994
X79994Y41994
X80994Y41994
X78994Y41994
X78994Y42994
X77994Y42994
X77994Y41994
X76994Y41994
X76994Y42994
X75994Y42994
X75994Y41994
X72994Y40994
X72994Y43994
X87494Y39994
X89994Y40494
X91994Y40494
X91494Y39494
X96494Y40494
X97994Y40494
X95994Y36994
X94994Y36994
X95494Y35494
X106494Y34494
X107494Y34494
X107494Y32494
X108494Y28994
X106494Y27994
X103994Y21994
X104994Y21494
X99994Y19994
X98994Y19994
X97994Y19994
X96994Y19994
X95994Y19994
X94994Y19994
X93994Y19994
X92994Y19994
X91994Y19994
X90994Y19994
X89994Y19994
X88994Y19994
X87994Y19994
X86994Y19994
X85994Y19994
X84994Y19994
X83994Y19994
X82994Y19994
X81994Y19994
X80994Y19994
X79994Y19994
X78994Y19994
X77994Y19994
X76994Y19994
X75994Y19994
X75994Y18994
X76994Y18994
X77994Y18994
X78994Y18994
X79994Y18994
X80994Y18994
X81994Y18994
X82994Y18994
X83994Y18994
X84994Y18994
X85994Y18994
X86994Y18994
X87994Y18994
X88994Y18994
X89994Y18994
X90994Y18994
X91994Y18994
X92994Y18994
X93994Y18994
X94994Y18994
X95994Y18994
X96994Y18994
X97994Y18994
X98994Y18994
X99994Y18994
X96493Y17377
X96494Y16494
X85999Y14307
X84999Y14307
X83999Y14307
X82999Y14307
X81999Y14307
X80999Y14307
X79999Y14307
X78999Y14307
X77999Y14307
X76999Y14307
X76999Y11307
X77999Y11307
X78999Y11307
X79999Y11307
X80999Y11307
X81999Y11307
X82999Y11307
X83999Y11307
X84999Y11307
X85999Y11307
X71494Y10494
X47494Y10494
X45494Y19994
X40494Y19994
X40585Y21175
X45494Y23994
X49494Y23994
X50494Y21494
X53494Y21494
X55494Y28994
X49994Y28994
X42061Y31994
X43994Y37494
X48994Y43994
X28494Y35494
X28494Y29994
X30880Y21174
X30994Y19994
X21994Y19994
X72994Y24494
X75494Y21494
X84494Y23494
X87494Y24494
X89956Y27129
X72994Y28994
X72994Y31994
X112494Y42994
X121994Y41494
X122994Y41494
X123994Y41494
X124994Y41494
X125994Y41494
X126994Y41494
X126994Y45494
X125994Y45494
X124994Y45494
X123994Y45494
X122994Y45494
X121994Y45494
T03
X118494Y39994
X118494Y38994
X71831Y20485
X71831Y19485
X76994Y16494
X77994Y16494
X78994Y16494
X79994Y16494
X80994Y16494
X81994Y16494
X82994Y16494
X83994Y16494
X84994Y16494
X85994Y16494
X85994Y15494
X84994Y15494
X83994Y15494
X82994Y15494
X81994Y15494
X80994Y15494
X79994Y15494
X78994Y15494
X77994Y15494
X76994Y15494
X70494Y15994
X70494Y14994
X61470Y19084
X61470Y20484
X64494Y20494
X64494Y19494
X57999Y22480
X55552Y23119
X53099Y23111
X57166Y20526
X57166Y19126
X45002Y22373
X44002Y22373
X37494Y22494
X35494Y22494
X34494Y23494
X34494Y25494
X34167Y27665
X32494Y27494
X34167Y30665
X32494Y31494
X30324Y34079
X30324Y36079
X25412Y34760
X25412Y33760
X25412Y32760
X36571Y38410
X38571Y38410
X39871Y38360
X41871Y38360
X47532Y35779
X49994Y36994
X49994Y37994
X53494Y36494
X54494Y36494
X56494Y37494
X56494Y38494
X47532Y33779
X48246Y31691
X48246Y30291
X44477Y29008
X42061Y28062
X40709Y27474
X44477Y27608
X42061Y31062
X40709Y31474
X53099Y27111
X55552Y27119
X57999Y25480
X51265Y12927
X50265Y12927
X23443Y19230
X19443Y19230
X20247Y21505
X20247Y25505
X19994Y41994
X18994Y41994
X105994Y12494
X105994Y11494
X108494Y11494
X108494Y12494
X124494Y16494
X125494Y16494
X126494Y16494
T04
X67954Y22589
X66969Y22589
X66182Y22589
X65198Y22589
T05
X64994Y16994
X64994Y15994
X64994Y14994
X54994Y15381
X54994Y16381
X54994Y14381
X56989Y33979
X57989Y33979
X58989Y33979
X51994Y40494
X51994Y41494
X51994Y42494
T06
X22494Y43994
X21494Y43994
X20494Y43994
X20494Y39994
X21494Y39994
X22494Y39994
X88494Y15494
X89494Y15494
X90494Y15494
X97501Y11846
X98501Y11846
X99501Y11846
X102206Y12346
X102206Y13346
X102206Y14346
X111494Y10994
X112494Y10994
X113494Y10994
X115994Y13494
X116994Y13494
X117994Y13494
X119994Y12494
X120994Y12494
X121994Y12494
X121990Y16061
X120990Y16061
X119990Y16061
X116994Y16494
X115994Y16494
X114994Y16494
X113994Y16494
X114663Y19515
X114663Y20515
X114663Y21515
X114663Y22515
X118494Y23994
X119494Y23994
X120494Y23994
X120494Y27494
X121494Y27494
X119494Y27494
X124494Y27494
X125494Y27494
X126494Y27494
X126494Y34994
X125494Y34994
X124494Y34994
X120631Y34653
X120631Y35653
X120631Y36653
X116484Y36653
X116484Y35653
X116484Y34653
X124494Y38494
X125494Y38494
X126494Y38494
X119994Y40994
X119994Y41994
X119994Y42994
X116494Y42994
X116494Y41994
X116494Y40994
X116994Y45494
X117994Y45494
X118994Y45494
X119494Y19994
X120494Y19994
X118494Y19994
T07
X67849Y20485
X67849Y18516
X51251Y18357
X51251Y16388
X52994Y32009
X52994Y33978
X46071Y32916
X44733Y32916
X43394Y32916
X42055Y32916
X40717Y32916
X39378Y32916
X38172Y32914
X36834Y32914
X35495Y32914
X34156Y32914
X32818Y32914
X31479Y32914
X32149Y34914
X33487Y34914
X34826Y34914
X36164Y34914
X37503Y34914
X40048Y34916
X41386Y34916
X42725Y34916
X44063Y34916
X45402Y34916
X54752Y41291
X56721Y41291
T08
X29079Y24338
X28079Y24338
X27079Y24338
X26079Y24338
X25079Y24338
X24079Y24338
X23079Y24338
X22079Y24338
X22579Y22338
X23579Y22338
X24579Y22338
X25579Y22338
X26579Y22338
X27579Y22338
X28579Y22338
T09
X25504Y13494
X27474Y13494
X29504Y13494
X31474Y13494
X33504Y13494
X35474Y13494
X37504Y13494
X39474Y13494
X41504Y13494
X43474Y13494
X45504Y13494
X47474Y13494
X24494Y28014
X24494Y29984
X23994Y32494
X22994Y33494
X23994Y34494
X36514Y41494
X38484Y41494
X40514Y41494
X42484Y41494
X91990Y12697
X93960Y12697
X124494Y11994
X125494Y12994
X124494Y13994
X124994Y19504
X124994Y21474
T10
X42515Y18430
X36515Y18430
T11
X47994Y25494
X49994Y34994
T12
X63989Y23656
X69162Y23656
M30
