G75*
G70*
%OFA0B0*%
%FSLAX24Y24*%
%IPPOS*%
%LPD*%
%AMOC8*
5,1,8,0,0,1.08239X$1,22.5*
%
%ADD10C,0.0160*%
%ADD11R,0.0515X0.0515*%
%ADD12C,0.0515*%
%ADD13C,0.0600*%
%ADD14OC8,0.0620*%
%ADD15C,0.0620*%
%ADD16C,0.0574*%
%ADD17C,0.0000*%
%ADD18C,0.0650*%
%ADD19C,0.0660*%
%ADD20C,0.0700*%
%ADD21OC8,0.0630*%
%ADD22C,0.0630*%
%ADD23OC8,0.0520*%
%ADD24C,0.0780*%
%ADD25C,0.0515*%
%ADD26C,0.0520*%
%ADD27C,0.0709*%
%ADD28C,0.0885*%
%ADD29OC8,0.0780*%
%ADD30C,0.0803*%
%ADD31R,0.0475X0.0475*%
%ADD32C,0.0320*%
%ADD33R,0.0396X0.0396*%
%ADD34R,0.1181X0.1181*%
%ADD35C,0.0760*%
D10*
X017994Y008994D02*
X128494Y008994D01*
X128494Y046994D01*
X017994Y046994D01*
X017994Y008994D01*
D11*
X099994Y019994D03*
X099994Y042994D03*
D12*
X099994Y041994D03*
X098994Y041994D03*
X098994Y042994D03*
X097994Y042994D03*
X096994Y042994D03*
X096994Y041994D03*
X097994Y041994D03*
X095994Y041994D03*
X095994Y042994D03*
X094994Y042994D03*
X093994Y042994D03*
X093994Y041994D03*
X094994Y041994D03*
X092994Y041994D03*
X092994Y042994D03*
X091994Y042994D03*
X091994Y041994D03*
X090994Y041994D03*
X090994Y042994D03*
X089994Y042994D03*
X089994Y041994D03*
X088994Y041994D03*
X088994Y042994D03*
X087994Y042994D03*
X086994Y042994D03*
X086994Y041994D03*
X087994Y041994D03*
X085994Y041994D03*
X085994Y042994D03*
X084994Y042994D03*
X084994Y041994D03*
X083994Y041994D03*
X083994Y042994D03*
X082994Y042994D03*
X082994Y041994D03*
X081994Y041994D03*
X081994Y042994D03*
X080994Y042994D03*
X079994Y042994D03*
X079994Y041994D03*
X080994Y041994D03*
X078994Y041994D03*
X078994Y042994D03*
X077994Y042994D03*
X077994Y041994D03*
X076994Y041994D03*
X076994Y042994D03*
X075994Y042994D03*
X075994Y041994D03*
X075994Y019994D03*
X076994Y019994D03*
X077994Y019994D03*
X078994Y019994D03*
X079994Y019994D03*
X080994Y019994D03*
X081994Y019994D03*
X082994Y019994D03*
X083994Y019994D03*
X084994Y019994D03*
X085994Y019994D03*
X086994Y019994D03*
X087994Y019994D03*
X088994Y019994D03*
X089994Y019994D03*
X090994Y019994D03*
X091994Y019994D03*
X092994Y019994D03*
X093994Y019994D03*
X094994Y019994D03*
X095994Y019994D03*
X096994Y019994D03*
X097994Y019994D03*
X098994Y019994D03*
X098994Y018994D03*
X099994Y018994D03*
X097994Y018994D03*
X096994Y018994D03*
X095994Y018994D03*
X094994Y018994D03*
X093994Y018994D03*
X092994Y018994D03*
X091994Y018994D03*
X090994Y018994D03*
X089994Y018994D03*
X088994Y018994D03*
X087994Y018994D03*
X086994Y018994D03*
X085994Y018994D03*
X084994Y018994D03*
X083994Y018994D03*
X082994Y018994D03*
X081994Y018994D03*
X080994Y018994D03*
X079994Y018994D03*
X078994Y018994D03*
X077994Y018994D03*
X076994Y018994D03*
X075994Y018994D03*
D13*
X088494Y015794D02*
X088494Y015194D01*
X089494Y015194D02*
X089494Y015794D01*
X090494Y015794D02*
X090494Y015194D01*
X097501Y012146D02*
X097501Y011546D01*
X098501Y011546D02*
X098501Y012146D01*
X099501Y012146D02*
X099501Y011546D01*
X101906Y012346D02*
X102506Y012346D01*
X102506Y013346D02*
X101906Y013346D01*
X101906Y014346D02*
X102506Y014346D01*
X111494Y011294D02*
X111494Y010694D01*
X112494Y010694D02*
X112494Y011294D01*
X113494Y011294D02*
X113494Y010694D01*
X119994Y012194D02*
X119994Y012794D01*
X120994Y012794D02*
X120994Y012194D01*
X121994Y012194D02*
X121994Y012794D01*
X117994Y013194D02*
X117994Y013794D01*
X116994Y013794D02*
X116994Y013194D01*
X115994Y013194D02*
X115994Y013794D01*
X119990Y015761D02*
X119990Y016361D01*
X120990Y016361D02*
X120990Y015761D01*
X121990Y015761D02*
X121990Y016361D01*
X116994Y016194D02*
X116994Y016794D01*
X115994Y016794D02*
X115994Y016194D01*
X114994Y016194D02*
X114994Y016794D01*
X113994Y016794D02*
X113994Y016194D01*
X114363Y019515D02*
X114963Y019515D01*
X114963Y020515D02*
X114363Y020515D01*
X114363Y021515D02*
X114963Y021515D01*
X114963Y022515D02*
X114363Y022515D01*
X118494Y023694D02*
X118494Y024294D01*
X119494Y024294D02*
X119494Y023694D01*
X120494Y023694D02*
X120494Y024294D01*
X120494Y027194D02*
X120494Y027794D01*
X121494Y027794D02*
X121494Y027194D01*
X119494Y027194D02*
X119494Y027794D01*
X124494Y027794D02*
X124494Y027194D01*
X125494Y027194D02*
X125494Y027794D01*
X126494Y027794D02*
X126494Y027194D01*
X120494Y020294D02*
X120494Y019694D01*
X119494Y019694D02*
X119494Y020294D01*
X118494Y020294D02*
X118494Y019694D01*
X116784Y034653D02*
X116184Y034653D01*
X116184Y035653D02*
X116784Y035653D01*
X116784Y036653D02*
X116184Y036653D01*
X120331Y036653D02*
X120931Y036653D01*
X120931Y035653D02*
X120331Y035653D01*
X120331Y034653D02*
X120931Y034653D01*
X124494Y034694D02*
X124494Y035294D01*
X125494Y035294D02*
X125494Y034694D01*
X126494Y034694D02*
X126494Y035294D01*
X126494Y038194D02*
X126494Y038794D01*
X125494Y038794D02*
X125494Y038194D01*
X124494Y038194D02*
X124494Y038794D01*
X120294Y040994D02*
X119694Y040994D01*
X119694Y041994D02*
X120294Y041994D01*
X120294Y042994D02*
X119694Y042994D01*
X116794Y042994D02*
X116194Y042994D01*
X116194Y041994D02*
X116794Y041994D01*
X116794Y040994D02*
X116194Y040994D01*
X116994Y045194D02*
X116994Y045794D01*
X117994Y045794D02*
X117994Y045194D01*
X118994Y045194D02*
X118994Y045794D01*
X022494Y044294D02*
X022494Y043694D01*
X021494Y043694D02*
X021494Y044294D01*
X020494Y044294D02*
X020494Y043694D01*
X020494Y040294D02*
X020494Y039694D01*
X021494Y039694D02*
X021494Y040294D01*
X022494Y040294D02*
X022494Y039694D01*
D14*
X018994Y041994D03*
X049994Y036994D03*
X054494Y036494D03*
X056494Y038494D03*
X045002Y022373D03*
X064494Y019494D03*
X071831Y019485D03*
X070494Y014994D03*
X050265Y012927D03*
X118494Y038994D03*
D15*
X118494Y039994D03*
X071831Y020485D03*
X064494Y020494D03*
X070494Y015994D03*
X051265Y012927D03*
X044002Y022373D03*
X053494Y036494D03*
X056494Y037494D03*
X049994Y037994D03*
X019994Y041994D03*
D16*
X065198Y022876D02*
X065198Y022302D01*
X066182Y022302D02*
X066182Y022876D01*
X066969Y022876D02*
X066969Y022302D01*
X067954Y022302D02*
X067954Y022876D01*
D17*
X068709Y023656D02*
X068711Y023698D01*
X068717Y023740D01*
X068727Y023782D01*
X068740Y023822D01*
X068758Y023861D01*
X068779Y023898D01*
X068803Y023932D01*
X068831Y023965D01*
X068861Y023995D01*
X068894Y024021D01*
X068929Y024045D01*
X068967Y024065D01*
X069006Y024081D01*
X069046Y024094D01*
X069088Y024103D01*
X069130Y024108D01*
X069173Y024109D01*
X069215Y024106D01*
X069257Y024099D01*
X069298Y024088D01*
X069338Y024073D01*
X069376Y024055D01*
X069413Y024033D01*
X069447Y024008D01*
X069479Y023980D01*
X069507Y023949D01*
X069533Y023915D01*
X069556Y023879D01*
X069575Y023842D01*
X069591Y023802D01*
X069603Y023761D01*
X069611Y023720D01*
X069615Y023677D01*
X069615Y023635D01*
X069611Y023592D01*
X069603Y023551D01*
X069591Y023510D01*
X069575Y023470D01*
X069556Y023433D01*
X069533Y023397D01*
X069507Y023363D01*
X069479Y023332D01*
X069447Y023304D01*
X069413Y023279D01*
X069376Y023257D01*
X069338Y023239D01*
X069298Y023224D01*
X069257Y023213D01*
X069215Y023206D01*
X069173Y023203D01*
X069130Y023204D01*
X069088Y023209D01*
X069046Y023218D01*
X069006Y023231D01*
X068967Y023247D01*
X068929Y023267D01*
X068894Y023291D01*
X068861Y023317D01*
X068831Y023347D01*
X068803Y023380D01*
X068779Y023414D01*
X068758Y023451D01*
X068740Y023490D01*
X068727Y023530D01*
X068717Y023572D01*
X068711Y023614D01*
X068709Y023656D01*
X063536Y023656D02*
X063538Y023698D01*
X063544Y023740D01*
X063554Y023782D01*
X063567Y023822D01*
X063585Y023861D01*
X063606Y023898D01*
X063630Y023932D01*
X063658Y023965D01*
X063688Y023995D01*
X063721Y024021D01*
X063756Y024045D01*
X063794Y024065D01*
X063833Y024081D01*
X063873Y024094D01*
X063915Y024103D01*
X063957Y024108D01*
X064000Y024109D01*
X064042Y024106D01*
X064084Y024099D01*
X064125Y024088D01*
X064165Y024073D01*
X064203Y024055D01*
X064240Y024033D01*
X064274Y024008D01*
X064306Y023980D01*
X064334Y023949D01*
X064360Y023915D01*
X064383Y023879D01*
X064402Y023842D01*
X064418Y023802D01*
X064430Y023761D01*
X064438Y023720D01*
X064442Y023677D01*
X064442Y023635D01*
X064438Y023592D01*
X064430Y023551D01*
X064418Y023510D01*
X064402Y023470D01*
X064383Y023433D01*
X064360Y023397D01*
X064334Y023363D01*
X064306Y023332D01*
X064274Y023304D01*
X064240Y023279D01*
X064203Y023257D01*
X064165Y023239D01*
X064125Y023224D01*
X064084Y023213D01*
X064042Y023206D01*
X064000Y023203D01*
X063957Y023204D01*
X063915Y023209D01*
X063873Y023218D01*
X063833Y023231D01*
X063794Y023247D01*
X063756Y023267D01*
X063721Y023291D01*
X063688Y023317D01*
X063658Y023347D01*
X063630Y023380D01*
X063606Y023414D01*
X063585Y023451D01*
X063567Y023490D01*
X063554Y023530D01*
X063544Y023572D01*
X063538Y023614D01*
X063536Y023656D01*
D18*
X067524Y020485D02*
X068174Y020485D01*
X068174Y018516D02*
X067524Y018516D01*
X051576Y018357D02*
X050926Y018357D01*
X050926Y016388D02*
X051576Y016388D01*
X052669Y032009D02*
X053319Y032009D01*
X053319Y033978D02*
X052669Y033978D01*
X054752Y040966D02*
X054752Y041616D01*
X056721Y041616D02*
X056721Y040966D01*
D19*
X051994Y040494D03*
X051994Y041494D03*
X051994Y042494D03*
X056989Y033979D03*
X057989Y033979D03*
X058989Y033979D03*
X064994Y016994D03*
X064994Y015994D03*
X064994Y014994D03*
X054994Y015381D03*
X054994Y016381D03*
X054994Y014381D03*
D20*
X046071Y032916D03*
X044733Y032916D03*
X043394Y032916D03*
X042055Y032916D03*
X040717Y032916D03*
X039378Y032916D03*
X038172Y032914D03*
X036834Y032914D03*
X035495Y032914D03*
X034156Y032914D03*
X032818Y032914D03*
X031479Y032914D03*
X032149Y034914D03*
X033487Y034914D03*
X034826Y034914D03*
X036164Y034914D03*
X037503Y034914D03*
X040048Y034916D03*
X041386Y034916D03*
X042725Y034916D03*
X044063Y034916D03*
X045402Y034916D03*
D21*
X048246Y031691D03*
X044477Y027608D03*
X057166Y019126D03*
X061470Y019084D03*
D22*
X061470Y020484D03*
X057166Y020526D03*
X044477Y029008D03*
X048246Y030291D03*
D23*
X042061Y031062D03*
X040709Y031474D03*
X047532Y033779D03*
X047532Y035779D03*
X041871Y038360D03*
X039871Y038360D03*
X038571Y038410D03*
X036571Y038410D03*
X030324Y036079D03*
X030324Y034079D03*
X032494Y031494D03*
X034167Y030665D03*
X034167Y027665D03*
X032494Y027494D03*
X034494Y025494D03*
X034494Y023494D03*
X035494Y022494D03*
X037494Y022494D03*
X040709Y027474D03*
X042061Y028062D03*
X053099Y027111D03*
X055552Y027119D03*
X057999Y025480D03*
X055552Y023119D03*
X053099Y023111D03*
X057999Y022480D03*
X076994Y016494D03*
X077994Y016494D03*
X078994Y016494D03*
X079994Y016494D03*
X080994Y016494D03*
X081994Y016494D03*
X082994Y016494D03*
X083994Y016494D03*
X084994Y016494D03*
X085994Y016494D03*
X085994Y015494D03*
X084994Y015494D03*
X083994Y015494D03*
X082994Y015494D03*
X081994Y015494D03*
X080994Y015494D03*
X079994Y015494D03*
X078994Y015494D03*
X077994Y015494D03*
X076994Y015494D03*
X105994Y012494D03*
X105994Y011494D03*
X108494Y011494D03*
X108494Y012494D03*
X023443Y019230D03*
X019443Y019230D03*
X020247Y021505D03*
X020247Y025505D03*
D24*
X024104Y028014D02*
X024884Y028014D01*
X024884Y029984D02*
X024104Y029984D01*
X036514Y041104D02*
X036514Y041884D01*
X038484Y041884D02*
X038484Y041104D01*
X040514Y041104D02*
X040514Y041884D01*
X042484Y041884D02*
X042484Y041104D01*
X041504Y013884D02*
X041504Y013104D01*
X039474Y013104D02*
X039474Y013884D01*
X037504Y013884D02*
X037504Y013104D01*
X035474Y013104D02*
X035474Y013884D01*
X033504Y013884D02*
X033504Y013104D01*
X031474Y013104D02*
X031474Y013884D01*
X029504Y013884D02*
X029504Y013104D01*
X027474Y013104D02*
X027474Y013884D01*
X025504Y013884D02*
X025504Y013104D01*
X043474Y013104D02*
X043474Y013884D01*
X045504Y013884D02*
X045504Y013104D01*
X047474Y013104D02*
X047474Y013884D01*
X091990Y013087D02*
X091990Y012307D01*
X093960Y012307D02*
X093960Y013087D01*
X124604Y019504D02*
X125384Y019504D01*
X125384Y021474D02*
X124604Y021474D01*
D25*
X085999Y014564D02*
X085999Y014049D01*
X084999Y014049D02*
X084999Y014564D01*
X083999Y014564D02*
X083999Y014049D01*
X082999Y014049D02*
X082999Y014564D01*
X081999Y014564D02*
X081999Y014049D01*
X080999Y014049D02*
X080999Y014564D01*
X079999Y014564D02*
X079999Y014049D01*
X078999Y014049D02*
X078999Y014564D01*
X077999Y014564D02*
X077999Y014049D01*
X076999Y014049D02*
X076999Y014564D01*
X076999Y011564D02*
X076999Y011049D01*
X077999Y011049D02*
X077999Y011564D01*
X078999Y011564D02*
X078999Y011049D01*
X079999Y011049D02*
X079999Y011564D01*
X080999Y011564D02*
X080999Y011049D01*
X081999Y011049D02*
X081999Y011564D01*
X082999Y011564D02*
X082999Y011049D01*
X083999Y011049D02*
X083999Y011564D01*
X084999Y011564D02*
X084999Y011049D01*
X085999Y011049D02*
X085999Y011564D01*
X121994Y041236D02*
X121994Y041751D01*
X122994Y041751D02*
X122994Y041236D01*
X123994Y041236D02*
X123994Y041751D01*
X124994Y041751D02*
X124994Y041236D01*
X125994Y041236D02*
X125994Y041751D01*
X126994Y041751D02*
X126994Y041236D01*
X126994Y045236D02*
X126994Y045751D01*
X125994Y045751D02*
X125994Y045236D01*
X124994Y045236D02*
X124994Y045751D01*
X123994Y045751D02*
X123994Y045236D01*
X122994Y045236D02*
X122994Y045751D01*
X121994Y045751D02*
X121994Y045236D01*
D26*
X124494Y016754D02*
X124494Y016234D01*
X125494Y016234D02*
X125494Y016754D01*
X126494Y016754D02*
X126494Y016234D01*
X025672Y032760D02*
X025152Y032760D01*
X025152Y033760D02*
X025672Y033760D01*
X025672Y034760D02*
X025152Y034760D01*
D27*
X025079Y024692D02*
X025079Y023983D01*
X026079Y023983D02*
X026079Y024692D01*
X027079Y024692D02*
X027079Y023983D01*
X028079Y023983D02*
X028079Y024692D01*
X029079Y024692D02*
X029079Y023983D01*
X028579Y022692D02*
X028579Y021983D01*
X027579Y021983D02*
X027579Y022692D01*
X026579Y022692D02*
X026579Y021983D01*
X025579Y021983D02*
X025579Y022692D01*
X024579Y022692D02*
X024579Y021983D01*
X023579Y021983D02*
X023579Y022692D01*
X022579Y022692D02*
X022579Y021983D01*
X023079Y023983D02*
X023079Y024692D01*
X024079Y024692D02*
X024079Y023983D01*
X022079Y023983D02*
X022079Y024692D01*
D28*
X036072Y018430D02*
X036957Y018430D01*
X042072Y018430D02*
X042957Y018430D01*
D29*
X023994Y032494D03*
X022994Y033494D03*
X023994Y034494D03*
X124494Y013994D03*
X125494Y012994D03*
X124494Y011994D03*
D30*
X124494Y011994D01*
X124494Y012885D01*
X124622Y012885D01*
X124622Y013122D01*
X124133Y013122D01*
X123622Y013633D01*
X123622Y014355D01*
X124133Y014865D01*
X124855Y014865D01*
X125365Y014355D01*
X125365Y013865D01*
X125855Y013865D01*
X126365Y013355D01*
X126365Y012633D01*
X125855Y012122D01*
X125385Y012122D01*
X125385Y011994D01*
X124494Y011994D01*
X124494Y011994D01*
X124494Y012885D01*
X124124Y012885D01*
X123602Y012363D01*
X123602Y011994D01*
X124494Y011994D01*
X125385Y011994D01*
X125385Y011624D01*
X124863Y011102D01*
X124494Y011102D01*
X124494Y011994D01*
X124494Y011994D01*
X124494Y011994D01*
X123602Y011994D01*
X123602Y011624D01*
X124124Y011102D01*
X124494Y011102D01*
X124494Y011994D01*
X124494Y012262D02*
X124494Y012262D01*
X124494Y011461D02*
X124494Y011461D01*
X125222Y011461D02*
X126852Y011461D01*
X126852Y010967D02*
X126521Y010635D01*
X114294Y010635D01*
X114295Y010641D01*
X114295Y010994D01*
X114295Y011346D01*
X114282Y011450D01*
X114254Y011552D01*
X114214Y011649D01*
X114162Y011740D01*
X114098Y011823D01*
X114023Y011898D01*
X113940Y011962D01*
X113849Y012014D01*
X113752Y012054D01*
X113650Y012082D01*
X113546Y012095D01*
X113494Y012095D01*
X113494Y010994D01*
X113494Y010994D01*
X114295Y010994D01*
X113494Y010994D01*
X113494Y010994D01*
X113494Y012095D01*
X113441Y012095D01*
X113337Y012082D01*
X113235Y012054D01*
X113138Y012014D01*
X113047Y011962D01*
X112982Y011911D01*
X112936Y011956D01*
X112649Y012075D01*
X112338Y012075D01*
X112051Y011956D01*
X111994Y011899D01*
X111936Y011956D01*
X111649Y012075D01*
X111338Y012075D01*
X111051Y011956D01*
X110878Y011783D01*
X110789Y011873D01*
X110797Y012816D01*
X110798Y012819D01*
X110798Y012944D01*
X110799Y013069D01*
X110798Y013071D01*
X110798Y015647D01*
X110799Y015774D01*
X110798Y015774D01*
X110798Y015775D01*
X110750Y015892D01*
X110701Y016010D01*
X110701Y016011D01*
X110611Y016101D01*
X109970Y016744D01*
X110592Y016744D01*
X110842Y016495D01*
X110850Y013990D01*
X110851Y013863D01*
X110851Y013862D01*
X110900Y013745D01*
X110949Y013628D01*
X110949Y013627D01*
X111039Y013538D01*
X111539Y013040D01*
X111629Y012950D01*
X111629Y012949D01*
X111747Y012901D01*
X111864Y012852D01*
X111865Y012852D01*
X111865Y012852D01*
X111992Y012852D01*
X115289Y012852D01*
X115331Y012751D01*
X115551Y012531D01*
X115838Y012412D01*
X116149Y012412D01*
X116436Y012531D01*
X116494Y012588D01*
X116551Y012531D01*
X116838Y012412D01*
X117149Y012412D01*
X117436Y012531D01*
X117482Y012576D01*
X117547Y012526D01*
X117638Y012473D01*
X117735Y012433D01*
X117837Y012406D01*
X117941Y012392D01*
X117994Y012392D01*
X118046Y012392D01*
X118150Y012406D01*
X118252Y012433D01*
X118349Y012473D01*
X118440Y012526D01*
X118523Y012590D01*
X118598Y012664D01*
X118662Y012747D01*
X118714Y012838D01*
X118754Y012935D01*
X118782Y013037D01*
X118795Y013141D01*
X118795Y013494D01*
X118795Y013846D01*
X118782Y013950D01*
X118754Y014052D01*
X118714Y014149D01*
X118662Y014240D01*
X118598Y014323D01*
X118523Y014398D01*
X118440Y014462D01*
X118349Y014514D01*
X118252Y014554D01*
X118150Y014582D01*
X118046Y014595D01*
X117994Y014595D01*
X117994Y013494D01*
X117994Y013494D01*
X118795Y013494D01*
X117994Y013494D01*
X117994Y013494D01*
X117994Y014595D01*
X117941Y014595D01*
X117837Y014582D01*
X117735Y014554D01*
X117638Y014514D01*
X117547Y014462D01*
X117482Y014411D01*
X117436Y014456D01*
X117149Y014575D01*
X116838Y014575D01*
X116551Y014456D01*
X116494Y014399D01*
X116436Y014456D01*
X116149Y014575D01*
X115838Y014575D01*
X115551Y014456D01*
X115331Y014236D01*
X115289Y014135D01*
X112257Y014135D01*
X112133Y014259D01*
X112124Y016765D01*
X112124Y016891D01*
X112124Y016892D01*
X112075Y017010D01*
X112026Y017127D01*
X112026Y017127D01*
X112025Y017128D01*
X111935Y017217D01*
X111838Y017314D01*
X112288Y017314D01*
X112465Y017387D01*
X112600Y017523D01*
X112673Y017700D01*
X112673Y017907D01*
X113337Y017243D01*
X113331Y017236D01*
X113212Y016949D01*
X113212Y016038D01*
X113331Y015751D01*
X113551Y015531D01*
X113838Y015412D01*
X114149Y015412D01*
X114436Y015531D01*
X114482Y015576D01*
X114547Y015526D01*
X114638Y015473D01*
X114735Y015433D01*
X114837Y015406D01*
X114941Y015392D01*
X114994Y015392D01*
X115046Y015392D01*
X115150Y015406D01*
X115252Y015433D01*
X115349Y015473D01*
X115440Y015526D01*
X115505Y015575D01*
X115630Y015450D01*
X115866Y015352D01*
X116121Y015352D01*
X116357Y015450D01*
X116495Y015587D01*
X116551Y015531D01*
X116838Y015412D01*
X117149Y015412D01*
X117436Y015531D01*
X117656Y015751D01*
X117775Y016038D01*
X117775Y016148D01*
X119352Y014571D01*
X119352Y013257D01*
X119331Y013236D01*
X119212Y012949D01*
X119212Y012038D01*
X119331Y011751D01*
X119551Y011531D01*
X119838Y011412D01*
X120149Y011412D01*
X120436Y011531D01*
X120494Y011588D01*
X120551Y011531D01*
X120838Y011412D01*
X121149Y011412D01*
X121436Y011531D01*
X121482Y011576D01*
X121547Y011526D01*
X121638Y011473D01*
X121735Y011433D01*
X121837Y011406D01*
X121941Y011392D01*
X121994Y011392D01*
X122046Y011392D01*
X122150Y011406D01*
X122252Y011433D01*
X122349Y011473D01*
X122440Y011526D01*
X122523Y011590D01*
X122598Y011664D01*
X122662Y011747D01*
X122714Y011838D01*
X122754Y011935D01*
X122782Y012037D01*
X122795Y012141D01*
X122795Y012494D01*
X122795Y012846D01*
X122782Y012950D01*
X122754Y013052D01*
X122714Y013149D01*
X122662Y013240D01*
X122598Y013323D01*
X122523Y013398D01*
X122440Y013462D01*
X122349Y013514D01*
X122252Y013554D01*
X122150Y013582D01*
X122046Y013595D01*
X121994Y013595D01*
X121994Y012494D01*
X121994Y012494D01*
X122795Y012494D01*
X121994Y012494D01*
X121994Y012494D01*
X121994Y013595D01*
X121941Y013595D01*
X121837Y013582D01*
X121735Y013554D01*
X121638Y013514D01*
X121547Y013462D01*
X121482Y013411D01*
X121436Y013456D01*
X121149Y013575D01*
X120838Y013575D01*
X120635Y013491D01*
X120635Y014964D01*
X120587Y015082D01*
X120834Y014979D01*
X121145Y014979D01*
X121432Y015098D01*
X121478Y015143D01*
X121543Y015093D01*
X121634Y015040D01*
X121731Y015000D01*
X121833Y014973D01*
X121937Y014959D01*
X121990Y014959D01*
X122042Y014959D01*
X122146Y014973D01*
X122248Y015000D01*
X122345Y015040D01*
X122436Y015093D01*
X122519Y015157D01*
X122594Y015231D01*
X122658Y015314D01*
X122710Y015405D01*
X122750Y015502D01*
X122778Y015604D01*
X122791Y015708D01*
X122791Y016061D01*
X122791Y016413D01*
X122778Y016517D01*
X122750Y016619D01*
X122710Y016716D01*
X122658Y016807D01*
X122594Y016890D01*
X122519Y016965D01*
X122436Y017029D01*
X122345Y017081D01*
X122248Y017121D01*
X122146Y017149D01*
X122042Y017162D01*
X121990Y017162D01*
X121990Y016061D01*
X121990Y016061D01*
X122791Y016061D01*
X121990Y016061D01*
X121990Y016061D01*
X121990Y017162D01*
X121937Y017162D01*
X121833Y017149D01*
X121731Y017121D01*
X121634Y017081D01*
X121543Y017029D01*
X121478Y016978D01*
X121432Y017023D01*
X121145Y017142D01*
X120834Y017142D01*
X120547Y017023D01*
X120490Y016966D01*
X120432Y017023D01*
X120145Y017142D01*
X119834Y017142D01*
X119821Y017137D01*
X118135Y018822D01*
X118135Y018996D01*
X118338Y018912D01*
X118649Y018912D01*
X118936Y019031D01*
X118994Y019088D01*
X119051Y019031D01*
X119338Y018912D01*
X119649Y018912D01*
X119936Y019031D01*
X119982Y019076D01*
X120047Y019026D01*
X120138Y018973D01*
X120235Y018933D01*
X120337Y018906D01*
X120441Y018892D01*
X120494Y018892D01*
X120546Y018892D01*
X120650Y018906D01*
X120752Y018933D01*
X120849Y018973D01*
X120940Y019026D01*
X121023Y019090D01*
X121098Y019164D01*
X121162Y019247D01*
X121214Y019338D01*
X121254Y019435D01*
X121282Y019537D01*
X121295Y019641D01*
X121295Y019994D01*
X121295Y020346D01*
X121282Y020450D01*
X121254Y020552D01*
X121214Y020649D01*
X121162Y020740D01*
X121098Y020823D01*
X121023Y020898D01*
X120940Y020962D01*
X120849Y021014D01*
X120752Y021054D01*
X120650Y021082D01*
X120546Y021095D01*
X120494Y021095D01*
X120494Y019994D01*
X120494Y019994D01*
X121295Y019994D01*
X120494Y019994D01*
X120494Y019994D01*
X120494Y021095D01*
X120441Y021095D01*
X120337Y021082D01*
X120235Y021054D01*
X120138Y021014D01*
X120047Y020962D01*
X119982Y020911D01*
X119936Y020956D01*
X119649Y021075D01*
X119338Y021075D01*
X119135Y020991D01*
X119135Y022621D01*
X119038Y022857D01*
X118885Y023010D01*
X118936Y023031D01*
X118994Y023088D01*
X119051Y023031D01*
X119338Y022912D01*
X119649Y022912D01*
X119936Y023031D01*
X119982Y023076D01*
X120047Y023026D01*
X120138Y022973D01*
X120235Y022933D01*
X120337Y022906D01*
X120441Y022892D01*
X120494Y022892D01*
X120546Y022892D01*
X120650Y022906D01*
X120752Y022933D01*
X120849Y022973D01*
X120940Y023026D01*
X121023Y023090D01*
X121098Y023164D01*
X121162Y023247D01*
X121214Y023338D01*
X121254Y023435D01*
X121282Y023537D01*
X121295Y023641D01*
X121295Y023994D01*
X121295Y024346D01*
X121282Y024450D01*
X121254Y024552D01*
X121214Y024649D01*
X121162Y024740D01*
X121098Y024823D01*
X121023Y024898D01*
X120940Y024962D01*
X120849Y025014D01*
X120752Y025054D01*
X120650Y025082D01*
X120546Y025095D01*
X120494Y025095D01*
X120494Y023994D01*
X120494Y023994D01*
X121295Y023994D01*
X120494Y023994D01*
X120494Y023994D01*
X120494Y025095D01*
X120441Y025095D01*
X120337Y025082D01*
X120235Y025054D01*
X120138Y025014D01*
X120047Y024962D01*
X119982Y024911D01*
X119936Y024956D01*
X119649Y025075D01*
X119338Y025075D01*
X119051Y024956D01*
X118994Y024899D01*
X118936Y024956D01*
X118649Y025075D01*
X118544Y025075D01*
X118135Y025688D01*
X118135Y028121D01*
X118040Y028352D01*
X118150Y028352D01*
X118712Y027509D01*
X118712Y027038D01*
X118831Y026751D01*
X119051Y026531D01*
X119338Y026412D01*
X119649Y026412D01*
X119936Y026531D01*
X119994Y026588D01*
X120051Y026531D01*
X120338Y026412D01*
X120649Y026412D01*
X120936Y026531D01*
X120982Y026576D01*
X121047Y026526D01*
X121138Y026473D01*
X121235Y026433D01*
X121337Y026406D01*
X121441Y026392D01*
X121494Y026392D01*
X121546Y026392D01*
X121650Y026406D01*
X121752Y026433D01*
X121849Y026473D01*
X121940Y026526D01*
X122023Y026590D01*
X122098Y026664D01*
X122162Y026747D01*
X122214Y026838D01*
X122254Y026935D01*
X122282Y027037D01*
X122295Y027141D01*
X122295Y027494D01*
X122295Y027846D01*
X122282Y027950D01*
X122254Y028052D01*
X122214Y028149D01*
X122162Y028240D01*
X122098Y028323D01*
X122023Y028398D01*
X121940Y028462D01*
X121849Y028514D01*
X121752Y028554D01*
X121650Y028582D01*
X121546Y028595D01*
X121494Y028595D01*
X121494Y027494D01*
X121494Y027494D01*
X122295Y027494D01*
X121494Y027494D01*
X121494Y027494D01*
X123712Y027494D01*
X123712Y027949D02*
X123712Y027038D01*
X123831Y026751D01*
X124051Y026531D01*
X124338Y026412D01*
X124649Y026412D01*
X124936Y026531D01*
X124994Y026588D01*
X125051Y026531D01*
X125338Y026412D01*
X125649Y026412D01*
X125936Y026531D01*
X125982Y026576D01*
X126047Y026526D01*
X126138Y026473D01*
X126235Y026433D01*
X126337Y026406D01*
X126441Y026392D01*
X126494Y026392D01*
X126546Y026392D01*
X126650Y026406D01*
X126752Y026433D01*
X126849Y026473D01*
X126940Y026526D01*
X127023Y026590D01*
X127098Y026664D01*
X127162Y026747D01*
X127214Y026838D01*
X127254Y026935D01*
X127282Y027037D01*
X127295Y027141D01*
X127295Y027494D01*
X127295Y027846D01*
X127282Y027950D01*
X127254Y028052D01*
X127214Y028149D01*
X127162Y028240D01*
X127098Y028323D01*
X127023Y028398D01*
X126940Y028462D01*
X126849Y028514D01*
X126752Y028554D01*
X126650Y028582D01*
X126546Y028595D01*
X126494Y028595D01*
X126494Y027494D01*
X126494Y027494D01*
X127295Y027494D01*
X126494Y027494D01*
X126494Y027494D01*
X127932Y027494D01*
X127932Y028295D02*
X127119Y028295D01*
X126494Y028295D02*
X126494Y028295D01*
X126494Y028595D02*
X126494Y027494D01*
X126494Y026392D01*
X126494Y027494D01*
X126494Y027494D01*
X126494Y026692D02*
X126494Y026692D01*
X127119Y026692D02*
X127932Y026692D01*
X127932Y025890D02*
X118135Y025890D01*
X118535Y025089D02*
X120392Y025089D01*
X120494Y025089D02*
X120494Y025089D01*
X120596Y025089D02*
X127932Y025089D01*
X127932Y024287D02*
X121295Y024287D01*
X120494Y024287D02*
X120494Y024287D01*
X120494Y023994D02*
X120494Y022892D01*
X120494Y023994D01*
X120494Y023994D01*
X120494Y023485D02*
X120494Y023485D01*
X121268Y023485D02*
X127932Y023485D01*
X127932Y022684D02*
X119109Y022684D01*
X119135Y021882D02*
X123830Y021882D01*
X123865Y021967D02*
X123732Y021647D01*
X123732Y021300D01*
X123865Y020980D01*
X124110Y020735D01*
X124430Y020602D01*
X125557Y020602D01*
X125877Y020735D01*
X125975Y020832D01*
X126535Y020832D01*
X126852Y020515D01*
X126852Y017426D01*
X126831Y017438D01*
X126739Y017476D01*
X126643Y017502D01*
X126544Y017515D01*
X126494Y017515D01*
X126494Y016494D01*
X126494Y016494D01*
X126494Y017515D01*
X126444Y017515D01*
X126345Y017502D01*
X126248Y017476D01*
X126156Y017438D01*
X126070Y017388D01*
X125990Y017328D01*
X125980Y017317D01*
X125914Y017382D01*
X125641Y017495D01*
X125346Y017495D01*
X125074Y017382D01*
X124994Y017302D01*
X124914Y017382D01*
X124641Y017495D01*
X124346Y017495D01*
X124074Y017382D01*
X123865Y017174D01*
X123752Y016901D01*
X123752Y016086D01*
X123865Y015814D01*
X124074Y015605D01*
X124346Y015492D01*
X124641Y015492D01*
X124914Y015605D01*
X124994Y015685D01*
X125074Y015605D01*
X125346Y015492D01*
X125641Y015492D01*
X125914Y015605D01*
X125980Y015671D01*
X125990Y015660D01*
X126070Y015599D01*
X126156Y015549D01*
X126248Y015511D01*
X126345Y015485D01*
X126444Y015472D01*
X126494Y015472D01*
X126544Y015472D01*
X126643Y015485D01*
X126739Y015511D01*
X126831Y015549D01*
X126852Y015561D01*
X126852Y010967D01*
X126545Y010659D02*
X114295Y010659D01*
X114279Y011461D02*
X119721Y011461D01*
X120266Y011461D02*
X120721Y011461D01*
X121266Y011461D02*
X121669Y011461D01*
X121994Y011461D02*
X121994Y011461D01*
X121994Y011392D02*
X121994Y012494D01*
X121994Y012494D01*
X121994Y011392D01*
X122319Y011461D02*
X123766Y011461D01*
X123602Y012262D02*
X122795Y012262D01*
X121994Y012262D02*
X121994Y012262D01*
X121994Y013064D02*
X121994Y013064D01*
X122749Y013064D02*
X124622Y013064D01*
X125365Y013866D02*
X126852Y013866D01*
X126852Y014667D02*
X125053Y014667D01*
X123935Y014667D02*
X120635Y014667D01*
X120635Y013866D02*
X123622Y013866D01*
X121990Y014959D02*
X121990Y016061D01*
X121990Y016061D01*
X121990Y014959D01*
X121990Y015469D02*
X121990Y015469D01*
X122736Y015469D02*
X126852Y015469D01*
X126494Y015472D02*
X126494Y016494D01*
X126494Y016494D01*
X126494Y015472D01*
X126494Y016271D02*
X126494Y016271D01*
X126494Y017072D02*
X126494Y017072D01*
X126852Y017874D02*
X119084Y017874D01*
X118282Y018676D02*
X124325Y018676D01*
X124430Y018632D02*
X124110Y018765D01*
X123865Y019010D01*
X123732Y019330D01*
X123732Y019677D01*
X123865Y019997D01*
X124110Y020243D01*
X124430Y020375D01*
X125557Y020375D01*
X125877Y020243D01*
X126123Y019997D01*
X126255Y019677D01*
X126255Y019330D01*
X126123Y019010D01*
X125877Y018765D01*
X125557Y018632D01*
X124430Y018632D01*
X125662Y018676D02*
X126852Y018676D01*
X126852Y019477D02*
X126255Y019477D01*
X125790Y020279D02*
X126852Y020279D01*
X127932Y021250D02*
X127164Y022018D01*
X126929Y022115D01*
X125975Y022115D01*
X125877Y022213D01*
X125557Y022345D01*
X124430Y022345D01*
X124110Y022213D01*
X123865Y021967D01*
X123823Y021081D02*
X120654Y021081D01*
X120494Y021081D02*
X120494Y021081D01*
X120333Y021081D02*
X119135Y021081D01*
X120494Y020279D02*
X120494Y020279D01*
X120494Y019994D02*
X120494Y018892D01*
X120494Y019994D01*
X120494Y019994D01*
X120494Y019477D02*
X120494Y019477D01*
X121266Y019477D02*
X123732Y019477D01*
X124198Y020279D02*
X121295Y020279D01*
X116352Y020279D02*
X115729Y020279D01*
X115723Y020256D02*
X115751Y020358D01*
X115764Y020462D01*
X115764Y020515D01*
X115764Y020567D01*
X115751Y020671D01*
X115723Y020773D01*
X115683Y020870D01*
X115631Y020961D01*
X115580Y021027D01*
X115625Y021072D01*
X115744Y021359D01*
X115744Y021670D01*
X115625Y021957D01*
X115568Y022015D01*
X115625Y022072D01*
X115653Y022139D01*
X116352Y021440D01*
X116352Y017709D01*
X116450Y017473D01*
X116509Y017414D01*
X116494Y017399D01*
X116436Y017456D01*
X116149Y017575D01*
X115838Y017575D01*
X115551Y017456D01*
X115506Y017411D01*
X115440Y017462D01*
X115349Y017514D01*
X115252Y017554D01*
X115150Y017582D01*
X115046Y017595D01*
X114994Y017595D01*
X114994Y016494D01*
X114994Y016494D01*
X114994Y017595D01*
X114941Y017595D01*
X114837Y017582D01*
X114735Y017554D01*
X114638Y017514D01*
X114635Y017512D01*
X114635Y017621D01*
X114538Y017857D01*
X114357Y018038D01*
X113524Y018871D01*
X113901Y018871D01*
X113920Y018852D01*
X114207Y018733D01*
X115118Y018733D01*
X115405Y018852D01*
X115625Y019072D01*
X115744Y019359D01*
X115744Y019670D01*
X115625Y019957D01*
X115580Y020003D01*
X115631Y020068D01*
X115683Y020159D01*
X115723Y020256D01*
X115764Y020515D02*
X114663Y020515D01*
X115764Y020515D01*
X115629Y021081D02*
X116352Y021081D01*
X115910Y021882D02*
X115656Y021882D01*
X113674Y022135D02*
X112259Y022135D01*
X112038Y022357D01*
X112038Y022357D01*
X111857Y022538D01*
X111621Y022635D01*
X104508Y022635D01*
X104504Y022639D01*
X104327Y022713D01*
X103660Y022713D01*
X103483Y022639D01*
X103348Y022504D01*
X103275Y022327D01*
X103275Y021660D01*
X103348Y021483D01*
X103483Y021348D01*
X103660Y021275D01*
X104275Y021275D01*
X104275Y021160D01*
X104348Y020983D01*
X104352Y020979D01*
X104352Y020741D01*
X104352Y020614D01*
X104352Y020487D01*
X104352Y020486D01*
X104401Y020368D01*
X104450Y020251D01*
X104450Y020250D01*
X104540Y020160D01*
X104630Y020070D01*
X104631Y020070D01*
X105066Y019635D01*
X103562Y019635D01*
X102135Y021062D01*
X102135Y022608D01*
X102173Y022700D01*
X102173Y023288D01*
X102100Y023465D01*
X101965Y023600D01*
X101788Y023673D01*
X101200Y023673D01*
X101023Y023600D01*
X100887Y023465D01*
X100814Y023288D01*
X100814Y022700D01*
X100852Y022608D01*
X100852Y020669D01*
X100950Y020433D01*
X101130Y020253D01*
X102248Y019135D01*
X100741Y019135D01*
X100740Y019142D01*
X100714Y019238D01*
X100676Y019330D01*
X100631Y019407D01*
X100634Y019409D01*
X100680Y019473D01*
X100716Y019544D01*
X100740Y019619D01*
X100753Y019697D01*
X100753Y019994D01*
X100753Y020291D01*
X100740Y020369D01*
X100716Y020444D01*
X100680Y020514D01*
X100634Y020578D01*
X100578Y020634D01*
X100514Y020680D01*
X100444Y020716D01*
X100369Y020740D01*
X100291Y020753D01*
X099994Y020753D01*
X099994Y019994D01*
X099994Y019994D01*
X100753Y019994D01*
X099994Y019994D01*
X099994Y019994D01*
X099994Y020753D01*
X099697Y020753D01*
X099619Y020740D01*
X099544Y020716D01*
X099473Y020680D01*
X099409Y020634D01*
X099401Y020625D01*
X099141Y020733D01*
X098847Y020733D01*
X098575Y020620D01*
X098494Y020539D01*
X098412Y020620D01*
X098141Y020733D01*
X097847Y020733D01*
X097575Y020620D01*
X097494Y020539D01*
X097412Y020620D01*
X097141Y020733D01*
X096847Y020733D01*
X096575Y020620D01*
X096494Y020539D01*
X096412Y020620D01*
X096141Y020733D01*
X095847Y020733D01*
X095575Y020620D01*
X095494Y020539D01*
X095412Y020620D01*
X095141Y020733D01*
X094847Y020733D01*
X094575Y020620D01*
X094494Y020539D01*
X094412Y020620D01*
X094141Y020733D01*
X093847Y020733D01*
X093575Y020620D01*
X093494Y020539D01*
X093412Y020620D01*
X093141Y020733D01*
X092847Y020733D01*
X092575Y020620D01*
X092494Y020539D01*
X092412Y020620D01*
X092141Y020733D01*
X091847Y020733D01*
X091575Y020620D01*
X091494Y020539D01*
X091412Y020620D01*
X091141Y020733D01*
X090847Y020733D01*
X090575Y020620D01*
X090494Y020539D01*
X090412Y020620D01*
X090141Y020733D01*
X089847Y020733D01*
X089575Y020620D01*
X089494Y020539D01*
X089412Y020620D01*
X089141Y020733D01*
X088847Y020733D01*
X088635Y020645D01*
X088635Y022021D01*
X088967Y022352D01*
X097108Y022352D01*
X097200Y022314D01*
X097788Y022314D01*
X097965Y022387D01*
X098100Y022523D01*
X098173Y022700D01*
X098173Y023288D01*
X098100Y023465D01*
X097965Y023600D01*
X097788Y023673D01*
X097200Y023673D01*
X097108Y023635D01*
X088573Y023635D01*
X088337Y023538D01*
X088157Y023357D01*
X087450Y022650D01*
X087352Y022414D01*
X087352Y020645D01*
X087141Y020733D01*
X086847Y020733D01*
X086575Y020620D01*
X086494Y020539D01*
X086412Y020620D01*
X086141Y020733D01*
X085847Y020733D01*
X085575Y020620D01*
X085494Y020539D01*
X085412Y020620D01*
X085141Y020733D01*
X084847Y020733D01*
X084575Y020620D01*
X084494Y020539D01*
X084412Y020620D01*
X084141Y020733D01*
X083847Y020733D01*
X083575Y020620D01*
X083494Y020539D01*
X083412Y020620D01*
X083141Y020733D01*
X082847Y020733D01*
X082575Y020620D01*
X082494Y020539D01*
X082412Y020620D01*
X082141Y020733D01*
X081847Y020733D01*
X081575Y020620D01*
X081494Y020539D01*
X081412Y020620D01*
X081141Y020733D01*
X080847Y020733D01*
X080575Y020620D01*
X080494Y020539D01*
X080412Y020620D01*
X080141Y020733D01*
X079847Y020733D01*
X079575Y020620D01*
X079494Y020539D01*
X079412Y020620D01*
X079141Y020733D01*
X078847Y020733D01*
X078575Y020620D01*
X078494Y020539D01*
X078412Y020620D01*
X078141Y020733D01*
X077847Y020733D01*
X077575Y020620D01*
X077494Y020539D01*
X077412Y020620D01*
X077141Y020733D01*
X076847Y020733D01*
X076575Y020620D01*
X076508Y020553D01*
X076495Y020566D01*
X076416Y020626D01*
X076330Y020676D01*
X076238Y020714D01*
X076142Y020740D01*
X076043Y020753D01*
X075994Y020753D01*
X075994Y019994D01*
X075994Y019994D01*
X075994Y020753D01*
X075944Y020753D01*
X075845Y020740D01*
X075749Y020714D01*
X075657Y020676D01*
X075571Y020626D01*
X075492Y020566D01*
X075422Y020495D01*
X075361Y020416D01*
X075311Y020330D01*
X075273Y020238D01*
X075248Y020142D01*
X075235Y020043D01*
X075235Y019994D01*
X075994Y019994D01*
X075994Y019994D01*
X075994Y018994D01*
X075994Y018994D01*
X075994Y019753D01*
X075994Y019994D01*
X075994Y019994D01*
X075235Y019994D01*
X075235Y019944D01*
X075248Y019845D01*
X075273Y019749D01*
X075311Y019657D01*
X075361Y019571D01*
X075421Y019494D01*
X075361Y019416D01*
X075311Y019330D01*
X075273Y019238D01*
X075248Y019142D01*
X075235Y019043D01*
X075235Y018994D01*
X075994Y018994D01*
X075994Y018235D01*
X076043Y018235D01*
X076142Y018248D01*
X076238Y018273D01*
X076330Y018311D01*
X076416Y018361D01*
X076495Y018422D01*
X076508Y018434D01*
X076575Y018367D01*
X076847Y018255D01*
X077141Y018255D01*
X077412Y018367D01*
X077494Y018449D01*
X077575Y018367D01*
X077847Y018255D01*
X078141Y018255D01*
X078412Y018367D01*
X078494Y018449D01*
X078575Y018367D01*
X078847Y018255D01*
X079141Y018255D01*
X079412Y018367D01*
X079494Y018449D01*
X079575Y018367D01*
X079847Y018255D01*
X080141Y018255D01*
X080412Y018367D01*
X080494Y018449D01*
X080575Y018367D01*
X080847Y018255D01*
X081141Y018255D01*
X081412Y018367D01*
X081494Y018449D01*
X081575Y018367D01*
X081847Y018255D01*
X082141Y018255D01*
X082412Y018367D01*
X082494Y018449D01*
X082575Y018367D01*
X082847Y018255D01*
X083141Y018255D01*
X083412Y018367D01*
X083494Y018449D01*
X083575Y018367D01*
X083847Y018255D01*
X084141Y018255D01*
X084412Y018367D01*
X084494Y018449D01*
X084575Y018367D01*
X084847Y018255D01*
X085141Y018255D01*
X085412Y018367D01*
X085494Y018449D01*
X085575Y018367D01*
X085847Y018255D01*
X086141Y018255D01*
X086412Y018367D01*
X086494Y018449D01*
X086575Y018367D01*
X086847Y018255D01*
X087141Y018255D01*
X087361Y018346D01*
X087450Y018130D01*
X087630Y017950D01*
X087866Y017852D01*
X095833Y017852D01*
X095774Y017710D01*
X095774Y017043D01*
X095819Y016934D01*
X095775Y016827D01*
X095775Y016635D01*
X095259Y016635D01*
X094673Y017221D01*
X094673Y017288D01*
X094600Y017465D01*
X094465Y017600D01*
X094288Y017673D01*
X093700Y017673D01*
X093523Y017600D01*
X093387Y017465D01*
X093314Y017288D01*
X093314Y016700D01*
X093387Y016523D01*
X093523Y016387D01*
X093700Y016314D01*
X093766Y016314D01*
X094630Y015450D01*
X094866Y015352D01*
X098228Y015352D01*
X099852Y013728D01*
X099852Y012869D01*
X099759Y012907D01*
X099658Y012934D01*
X099554Y012948D01*
X099501Y012948D01*
X099449Y012948D01*
X099345Y012934D01*
X099243Y012907D01*
X099146Y012867D01*
X099055Y012814D01*
X098989Y012764D01*
X098944Y012809D01*
X098657Y012928D01*
X098346Y012928D01*
X098059Y012809D01*
X098001Y012752D01*
X097944Y012809D01*
X097657Y012928D01*
X097346Y012928D01*
X097059Y012809D01*
X096839Y012589D01*
X096720Y012302D01*
X096720Y011391D01*
X096839Y011103D01*
X097059Y010884D01*
X097346Y010765D01*
X097657Y010765D01*
X097944Y010884D01*
X098001Y010941D01*
X098059Y010884D01*
X098346Y010765D01*
X098657Y010765D01*
X098944Y010884D01*
X098989Y010929D01*
X099055Y010878D01*
X099146Y010826D01*
X099243Y010786D01*
X099345Y010758D01*
X099449Y010745D01*
X099501Y010745D01*
X099501Y011846D01*
X099501Y011846D01*
X099501Y010745D01*
X099554Y010745D01*
X099658Y010758D01*
X099759Y010786D01*
X099857Y010826D01*
X099948Y010878D01*
X100031Y010942D01*
X100105Y011017D01*
X100169Y011100D01*
X100222Y011191D01*
X100262Y011288D01*
X100268Y011312D01*
X100630Y010950D01*
X100866Y010852D01*
X102228Y010852D01*
X102314Y010766D01*
X102314Y010700D01*
X102341Y010635D01*
X086636Y010635D01*
X086681Y010713D01*
X086719Y010805D01*
X086745Y010901D01*
X086758Y010999D01*
X086758Y011307D01*
X086758Y011614D01*
X086745Y011713D01*
X086719Y011809D01*
X086681Y011901D01*
X086631Y011987D01*
X086571Y012066D01*
X086500Y012136D01*
X086421Y012197D01*
X086335Y012246D01*
X086243Y012284D01*
X086147Y012310D01*
X086048Y012323D01*
X085999Y012323D01*
X085999Y011307D01*
X085999Y011307D01*
X086758Y011307D01*
X085999Y011307D01*
X085999Y011307D01*
X085999Y012323D01*
X085949Y012323D01*
X085850Y012310D01*
X085754Y012284D01*
X085662Y012246D01*
X085576Y012197D01*
X085499Y012137D01*
X085421Y012197D01*
X085335Y012246D01*
X085243Y012284D01*
X085147Y012310D01*
X085048Y012323D01*
X084999Y012323D01*
X084999Y011307D01*
X084999Y011307D01*
X085999Y011307D01*
X085999Y011307D01*
X085758Y011307D01*
X084999Y011307D01*
X084999Y011307D01*
X084999Y012323D01*
X084949Y012323D01*
X084850Y012310D01*
X084754Y012284D01*
X084662Y012246D01*
X084576Y012197D01*
X084499Y012137D01*
X084421Y012197D01*
X084335Y012246D01*
X084243Y012284D01*
X084147Y012310D01*
X084048Y012323D01*
X083999Y012323D01*
X083999Y011307D01*
X083999Y011307D01*
X084999Y011307D01*
X084999Y011307D01*
X084240Y011307D01*
X083999Y011307D01*
X083999Y011307D01*
X083999Y012323D01*
X083949Y012323D01*
X083850Y012310D01*
X083754Y012284D01*
X083662Y012246D01*
X083576Y012197D01*
X083499Y012137D01*
X083421Y012197D01*
X083335Y012246D01*
X083243Y012284D01*
X083147Y012310D01*
X083048Y012323D01*
X082999Y012323D01*
X082999Y011307D01*
X082999Y011307D01*
X083999Y011307D01*
X083999Y011307D01*
X083240Y011307D01*
X082999Y011307D01*
X082999Y011307D01*
X082999Y012323D01*
X082949Y012323D01*
X082850Y012310D01*
X082754Y012284D01*
X082662Y012246D01*
X082576Y012197D01*
X082499Y012137D01*
X082421Y012197D01*
X082335Y012246D01*
X082243Y012284D01*
X082147Y012310D01*
X082048Y012323D01*
X081999Y012323D01*
X081999Y011307D01*
X081999Y011307D01*
X082999Y011307D01*
X082999Y011307D01*
X082240Y011307D01*
X081999Y011307D01*
X081999Y011307D01*
X081999Y012323D01*
X081949Y012323D01*
X081850Y012310D01*
X081754Y012284D01*
X081662Y012246D01*
X081576Y012197D01*
X081499Y012137D01*
X081421Y012197D01*
X081335Y012246D01*
X081243Y012284D01*
X081147Y012310D01*
X081048Y012323D01*
X080999Y012323D01*
X080999Y011307D01*
X080999Y011307D01*
X081999Y011307D01*
X081999Y011307D01*
X081240Y011307D01*
X080999Y011307D01*
X080999Y011307D01*
X080999Y012323D01*
X080949Y012323D01*
X080850Y012310D01*
X080754Y012284D01*
X080662Y012246D01*
X080576Y012197D01*
X080499Y012137D01*
X080421Y012197D01*
X080335Y012246D01*
X080243Y012284D01*
X080147Y012310D01*
X080048Y012323D01*
X079999Y012323D01*
X079999Y011307D01*
X079999Y011307D01*
X080999Y011307D01*
X080999Y011307D01*
X080240Y011307D01*
X079999Y011307D01*
X079999Y011307D01*
X079999Y012323D01*
X079949Y012323D01*
X079850Y012310D01*
X079754Y012284D01*
X079662Y012246D01*
X079576Y012197D01*
X079499Y012137D01*
X079421Y012197D01*
X079335Y012246D01*
X079243Y012284D01*
X079147Y012310D01*
X079048Y012323D01*
X078999Y012323D01*
X078999Y011307D01*
X078999Y011307D01*
X079999Y011307D01*
X079999Y011307D01*
X079240Y011307D01*
X078999Y011307D01*
X078999Y011307D01*
X078999Y012323D01*
X078949Y012323D01*
X078850Y012310D01*
X078754Y012284D01*
X078662Y012246D01*
X078576Y012197D01*
X078499Y012137D01*
X078421Y012197D01*
X078335Y012246D01*
X078243Y012284D01*
X078147Y012310D01*
X078048Y012323D01*
X077999Y012323D01*
X077999Y011307D01*
X077999Y011307D01*
X078999Y011307D01*
X078999Y011307D01*
X078758Y011307D01*
X077999Y011307D01*
X077999Y011307D01*
X077999Y012323D01*
X077949Y012323D01*
X077850Y012310D01*
X077754Y012284D01*
X077662Y012246D01*
X077576Y012197D01*
X077499Y012137D01*
X077421Y012197D01*
X077335Y012246D01*
X077243Y012284D01*
X077147Y012310D01*
X077048Y012323D01*
X076999Y012323D01*
X076999Y011307D01*
X076999Y011307D01*
X077999Y011307D01*
X077999Y011307D01*
X077758Y011307D01*
X076999Y011307D01*
X076999Y011307D01*
X076999Y012323D01*
X076949Y012323D01*
X076850Y012310D01*
X076754Y012284D01*
X076662Y012246D01*
X076576Y012197D01*
X076497Y012136D01*
X076427Y012066D01*
X076366Y011987D01*
X076316Y011901D01*
X076278Y011809D01*
X076253Y011713D01*
X076240Y011614D01*
X076240Y011307D01*
X076999Y011307D01*
X076999Y011307D01*
X076240Y011307D01*
X076240Y010999D01*
X076253Y010901D01*
X076278Y010805D01*
X076316Y010713D01*
X076361Y010635D01*
X073967Y010635D01*
X073635Y010967D01*
X073635Y016414D01*
X073538Y016650D01*
X073357Y016830D01*
X072830Y017357D01*
X072650Y017538D01*
X072414Y017635D01*
X065500Y017635D01*
X065453Y017682D01*
X065155Y017805D01*
X064832Y017805D01*
X064534Y017682D01*
X064488Y017635D01*
X061573Y017635D01*
X061337Y017538D01*
X061157Y017357D01*
X060450Y016650D01*
X060352Y016414D01*
X060352Y012647D01*
X060288Y012673D01*
X059700Y012673D01*
X059608Y012635D01*
X054880Y012635D01*
X054788Y012673D01*
X054200Y012673D01*
X054023Y012600D01*
X053887Y012465D01*
X053814Y012288D01*
X053814Y011700D01*
X053841Y011635D01*
X049877Y011635D01*
X049135Y012377D01*
X049135Y019015D01*
X049201Y018950D01*
X049436Y018852D01*
X050281Y018852D01*
X050242Y018814D01*
X050120Y018517D01*
X050120Y018197D01*
X050242Y017900D01*
X050469Y017673D01*
X050765Y017551D01*
X051736Y017551D01*
X052032Y017673D01*
X052259Y017900D01*
X052382Y018197D01*
X052382Y018517D01*
X052259Y018814D01*
X052221Y018852D01*
X054728Y018852D01*
X055950Y017630D01*
X056130Y017450D01*
X056366Y017352D01*
X057608Y017352D01*
X057700Y017314D01*
X058288Y017314D01*
X058465Y017387D01*
X058600Y017523D01*
X058673Y017700D01*
X058673Y018288D01*
X058600Y018465D01*
X058465Y018600D01*
X058288Y018673D01*
X057868Y018673D01*
X057982Y018787D01*
X057982Y019126D01*
X057982Y019464D01*
X057602Y019844D01*
X057617Y019850D01*
X057841Y020074D01*
X057962Y020367D01*
X057962Y020684D01*
X057841Y020977D01*
X057617Y021201D01*
X057324Y021322D01*
X057007Y021322D01*
X056714Y021201D01*
X056490Y020977D01*
X056369Y020684D01*
X056369Y020367D01*
X056490Y020074D01*
X056714Y019850D01*
X056729Y019844D01*
X056349Y019464D01*
X056349Y019126D01*
X057166Y019126D01*
X057982Y019126D01*
X057166Y019126D01*
X057166Y019126D01*
X057166Y019126D01*
X056349Y019126D01*
X056349Y019046D01*
X055357Y020038D01*
X055121Y020135D01*
X049830Y020135D01*
X047633Y022332D01*
X047622Y024422D01*
X048680Y024422D01*
X048842Y024488D01*
X048775Y024327D01*
X048775Y023660D01*
X048848Y023483D01*
X048983Y023348D01*
X049160Y023275D01*
X049827Y023275D01*
X050004Y023348D01*
X050139Y023483D01*
X050213Y023660D01*
X050213Y023805D01*
X050259Y023852D01*
X052791Y023852D01*
X052357Y023418D01*
X052357Y022804D01*
X052792Y022369D01*
X053406Y022369D01*
X053840Y022804D01*
X053840Y023418D01*
X053406Y023852D01*
X055208Y023852D01*
X054790Y023434D01*
X054790Y023119D01*
X055552Y023119D01*
X056313Y023119D01*
X056313Y023434D01*
X055895Y023852D01*
X063059Y023852D01*
X063055Y023842D01*
X063055Y023470D01*
X063197Y023126D01*
X063460Y022864D01*
X063803Y022721D01*
X064175Y022721D01*
X064409Y022818D01*
X064409Y022589D01*
X065198Y022589D01*
X065198Y022589D01*
X065198Y023664D01*
X065249Y023664D01*
X065352Y023651D01*
X065452Y023624D01*
X065547Y023585D01*
X065637Y023533D01*
X065702Y023483D01*
X065747Y023527D01*
X066029Y023644D01*
X066335Y023644D01*
X066576Y023545D01*
X066817Y023644D01*
X067122Y023644D01*
X067405Y023527D01*
X067462Y023471D01*
X067518Y023527D01*
X067801Y023644D01*
X068107Y023644D01*
X068228Y023594D01*
X068228Y023842D01*
X068232Y023852D01*
X064919Y023852D01*
X064923Y023842D01*
X064923Y023616D01*
X064944Y023624D01*
X065044Y023651D01*
X065146Y023664D01*
X065198Y023664D01*
X065198Y022589D01*
X065198Y021513D01*
X065249Y021513D01*
X065352Y021527D01*
X065452Y021553D01*
X065547Y021593D01*
X065637Y021645D01*
X065702Y021695D01*
X065747Y021650D01*
X066029Y021533D01*
X066335Y021533D01*
X066576Y021633D01*
X066817Y021533D01*
X067122Y021533D01*
X067405Y021650D01*
X067462Y021707D01*
X067518Y021650D01*
X067801Y021533D01*
X068107Y021533D01*
X068389Y021650D01*
X068605Y021866D01*
X068722Y022149D01*
X068722Y022827D01*
X068976Y022721D01*
X069348Y022721D01*
X069692Y022864D01*
X069954Y023126D01*
X070097Y023470D01*
X070097Y023842D01*
X070092Y023852D01*
X072479Y023852D01*
X072483Y023848D01*
X072660Y023775D01*
X073327Y023775D01*
X073504Y023848D01*
X073639Y023983D01*
X073713Y024160D01*
X073713Y024827D01*
X073639Y025004D01*
X073504Y025139D01*
X073327Y025213D01*
X072660Y025213D01*
X072483Y025139D01*
X072479Y025135D01*
X058703Y025135D01*
X058740Y025173D01*
X058740Y025787D01*
X058306Y026221D01*
X057692Y026221D01*
X057257Y025787D01*
X057257Y025173D01*
X057294Y025135D01*
X049884Y025135D01*
X053742Y028993D01*
X053877Y029318D01*
X053877Y031427D01*
X054002Y031553D01*
X054125Y031849D01*
X054125Y032170D01*
X054049Y032352D01*
X054299Y032352D01*
X055585Y031495D01*
X055630Y031450D01*
X055690Y031425D01*
X055744Y031389D01*
X055807Y031377D01*
X055866Y031352D01*
X055931Y031352D01*
X055994Y031340D01*
X056057Y031352D01*
X072479Y031352D01*
X072483Y031348D01*
X072660Y031275D01*
X073327Y031275D01*
X073504Y031348D01*
X073639Y031483D01*
X073713Y031660D01*
X073713Y032327D01*
X073639Y032504D01*
X073504Y032639D01*
X073327Y032713D01*
X072660Y032713D01*
X072483Y032639D01*
X072479Y032635D01*
X056188Y032635D01*
X054902Y033492D01*
X054857Y033538D01*
X054797Y033562D01*
X054743Y033598D01*
X054681Y033611D01*
X054621Y033635D01*
X054557Y033635D01*
X054493Y033648D01*
X054430Y033635D01*
X054049Y033635D01*
X054125Y033818D01*
X054125Y034138D01*
X054002Y034435D01*
X053775Y034662D01*
X053479Y034784D01*
X052508Y034784D01*
X052212Y034662D01*
X051985Y034435D01*
X051863Y034138D01*
X051863Y033818D01*
X051938Y033635D01*
X048273Y033635D01*
X048273Y034086D01*
X047839Y034520D01*
X047225Y034520D01*
X046790Y034086D01*
X046790Y033472D01*
X046896Y033366D01*
X046809Y033308D01*
X046776Y033387D01*
X046542Y033621D01*
X046237Y033747D01*
X045906Y033747D01*
X045600Y033621D01*
X045402Y033422D01*
X045204Y033621D01*
X044898Y033747D01*
X044567Y033747D01*
X044262Y033621D01*
X044072Y033431D01*
X044036Y033478D01*
X043957Y033557D01*
X043868Y033625D01*
X043771Y033681D01*
X043668Y033724D01*
X043560Y033753D01*
X043450Y033767D01*
X043394Y033767D01*
X043338Y033767D01*
X043228Y033753D01*
X043120Y033724D01*
X043017Y033681D01*
X042920Y033625D01*
X042831Y033557D01*
X042752Y033478D01*
X042716Y033431D01*
X042526Y033621D01*
X042221Y033747D01*
X041890Y033747D01*
X041584Y033621D01*
X041386Y033422D01*
X041188Y033621D01*
X040882Y033747D01*
X040551Y033747D01*
X040246Y033621D01*
X040048Y033422D01*
X039849Y033621D01*
X039544Y033747D01*
X039213Y033747D01*
X038907Y033621D01*
X038774Y033488D01*
X038643Y033619D01*
X038338Y033745D01*
X038007Y033745D01*
X037701Y033619D01*
X037503Y033420D01*
X037305Y033619D01*
X036999Y033745D01*
X036668Y033745D01*
X036363Y033619D01*
X036173Y033429D01*
X036137Y033476D01*
X036058Y033555D01*
X035969Y033623D01*
X035872Y033679D01*
X035769Y033722D01*
X035661Y033751D01*
X035551Y033765D01*
X035495Y033765D01*
X035439Y033765D01*
X035329Y033751D01*
X035221Y033722D01*
X035118Y033679D01*
X035021Y033623D01*
X034932Y033555D01*
X034853Y033476D01*
X034817Y033429D01*
X034627Y033619D01*
X034322Y033745D01*
X033991Y033745D01*
X033685Y033619D01*
X033487Y033420D01*
X033289Y033619D01*
X032983Y033745D01*
X032652Y033745D01*
X032347Y033619D01*
X032149Y033420D01*
X031950Y033619D01*
X031645Y033745D01*
X031314Y033745D01*
X031008Y033619D01*
X030774Y033385D01*
X030648Y033079D01*
X030648Y032748D01*
X030774Y032443D01*
X031008Y032209D01*
X031186Y032135D01*
X030467Y032135D01*
X030135Y032467D01*
X030135Y033337D01*
X030631Y033337D01*
X031065Y033772D01*
X031065Y034386D01*
X030631Y034820D01*
X030135Y034820D01*
X030135Y035337D01*
X030631Y035337D01*
X031065Y035772D01*
X031065Y036386D01*
X030631Y036820D01*
X030135Y036820D01*
X030135Y043728D01*
X030259Y043852D01*
X048275Y043852D01*
X048275Y043795D01*
X046949Y043795D01*
X046948Y043795D01*
X046822Y043795D01*
X046694Y043795D01*
X046694Y043795D01*
X046693Y043795D01*
X046576Y043746D01*
X046458Y043698D01*
X046458Y043697D01*
X046458Y043697D01*
X046367Y043607D01*
X046278Y043517D01*
X046277Y043517D01*
X045627Y042865D01*
X045627Y042865D01*
X045537Y042775D01*
X045447Y042685D01*
X045447Y042685D01*
X045446Y042684D01*
X045398Y042567D01*
X045349Y042449D01*
X045349Y042449D01*
X045349Y042448D01*
X045349Y042321D01*
X045349Y042194D01*
X045349Y042193D01*
X045352Y040218D01*
X043747Y038213D01*
X043660Y038213D01*
X043483Y038139D01*
X043348Y038004D01*
X043275Y037827D01*
X043275Y037653D01*
X042945Y037653D01*
X042620Y037518D01*
X042474Y037372D01*
X039681Y037372D01*
X039669Y037377D01*
X039318Y037377D01*
X039306Y037372D01*
X034665Y037372D01*
X034340Y037237D01*
X034092Y036989D01*
X033958Y036664D01*
X033958Y036313D01*
X033964Y036297D01*
X033964Y035621D01*
X033961Y035623D01*
X033865Y035679D01*
X033761Y035722D01*
X033654Y035751D01*
X033543Y035765D01*
X033487Y035765D01*
X033431Y035765D01*
X033321Y035751D01*
X033213Y035722D01*
X033110Y035679D01*
X033013Y035623D01*
X032924Y035555D01*
X032845Y035476D01*
X032809Y035429D01*
X032620Y035619D01*
X032314Y035745D01*
X031983Y035745D01*
X031677Y035619D01*
X031444Y035385D01*
X031317Y035079D01*
X031317Y034748D01*
X031444Y034443D01*
X031677Y034209D01*
X031983Y034082D01*
X032314Y034082D01*
X032620Y034209D01*
X032809Y034398D01*
X032845Y034351D01*
X032924Y034272D01*
X033013Y034204D01*
X033110Y034148D01*
X033213Y034106D01*
X033321Y034077D01*
X033431Y034062D01*
X033487Y034062D01*
X033487Y034914D01*
X033487Y035765D01*
X033487Y034914D01*
X033487Y034914D01*
X033487Y034914D01*
X033487Y034062D01*
X033543Y034062D01*
X033654Y034077D01*
X033761Y034106D01*
X033865Y034148D01*
X033961Y034204D01*
X034050Y034272D01*
X034129Y034351D01*
X034147Y034374D01*
X034338Y034183D01*
X034654Y034052D01*
X034997Y034052D01*
X035314Y034183D01*
X035516Y034386D01*
X035693Y034209D01*
X035999Y034082D01*
X036330Y034082D01*
X036635Y034209D01*
X036834Y034407D01*
X037032Y034209D01*
X037337Y034082D01*
X037668Y034082D01*
X037974Y034209D01*
X038208Y034443D01*
X038334Y034748D01*
X038334Y035079D01*
X038208Y035385D01*
X037987Y035606D01*
X039561Y035606D01*
X039343Y035387D01*
X039216Y035081D01*
X039216Y034750D01*
X039343Y034445D01*
X039576Y034211D01*
X039882Y034084D01*
X040213Y034084D01*
X040519Y034211D01*
X040708Y034400D01*
X040744Y034353D01*
X040823Y034274D01*
X040912Y034206D01*
X041009Y034150D01*
X041112Y034108D01*
X041220Y034079D01*
X041330Y034064D01*
X041386Y034064D01*
X041386Y034916D01*
X041386Y034916D01*
X041386Y034064D01*
X041442Y034064D01*
X041553Y034079D01*
X041660Y034108D01*
X041764Y034150D01*
X041860Y034206D01*
X041949Y034274D01*
X042028Y034353D01*
X042034Y034361D01*
X042089Y034278D01*
X042382Y034083D01*
X042726Y034015D01*
X043071Y034084D01*
X043363Y034280D01*
X043427Y034376D01*
X043592Y034211D01*
X043898Y034084D01*
X044229Y034084D01*
X044534Y034211D01*
X044733Y034409D01*
X044931Y034211D01*
X045236Y034084D01*
X045567Y034084D01*
X045873Y034211D01*
X046107Y034445D01*
X046233Y034750D01*
X046233Y035081D01*
X046107Y035387D01*
X045873Y035621D01*
X045567Y035747D01*
X045236Y035747D01*
X044931Y035621D01*
X044733Y035422D01*
X044534Y035621D01*
X044229Y035747D01*
X044004Y035747D01*
X044004Y035887D01*
X046790Y035887D01*
X046790Y035472D01*
X047225Y035037D01*
X047839Y035037D01*
X048204Y035402D01*
X048922Y034765D01*
X048922Y034307D01*
X048995Y034130D01*
X049130Y033995D01*
X049307Y033922D01*
X050680Y033922D01*
X050857Y033995D01*
X050993Y034130D01*
X051066Y034307D01*
X051066Y035680D01*
X050993Y035857D01*
X050857Y035993D01*
X050680Y036066D01*
X050116Y036066D01*
X049985Y036182D01*
X049994Y036182D01*
X050330Y036182D01*
X050805Y036658D01*
X050805Y036994D01*
X050805Y037330D01*
X050627Y037508D01*
X050665Y037545D01*
X050785Y037836D01*
X050785Y038151D01*
X050665Y038442D01*
X050442Y038665D01*
X050151Y038785D01*
X049836Y038785D01*
X049545Y038665D01*
X049323Y038442D01*
X049202Y038151D01*
X049202Y037836D01*
X049323Y037545D01*
X049360Y037508D01*
X049182Y037330D01*
X049182Y036994D01*
X049994Y036994D01*
X050805Y036994D01*
X049994Y036994D01*
X049994Y036994D01*
X049994Y036994D01*
X049994Y036182D01*
X049994Y036994D01*
X049994Y036994D01*
X049182Y036994D01*
X049182Y036895D01*
X048600Y037413D01*
X048494Y037518D01*
X048469Y037529D01*
X048449Y037547D01*
X048307Y037596D01*
X048169Y037653D01*
X048142Y037653D01*
X048117Y037662D01*
X047968Y037653D01*
X044943Y037653D01*
X046473Y039565D01*
X046538Y039631D01*
X046552Y039664D01*
X046574Y039693D01*
X046600Y039781D01*
X046635Y039867D01*
X046635Y039903D01*
X046645Y039938D01*
X046635Y040030D01*
X046633Y042057D01*
X047087Y042512D01*
X051182Y042511D01*
X051182Y042332D01*
X051306Y042034D01*
X051336Y042003D01*
X051301Y041957D01*
X051246Y041862D01*
X051205Y041762D01*
X051176Y041656D01*
X051162Y041548D01*
X051162Y041494D01*
X051994Y041494D01*
X052825Y041494D01*
X052825Y041548D01*
X052811Y041656D01*
X052783Y041762D01*
X052741Y041862D01*
X052687Y041957D01*
X052651Y042003D01*
X052682Y042034D01*
X052805Y042332D01*
X052805Y042511D01*
X069199Y042507D01*
X069463Y042240D01*
X069556Y042146D01*
X069643Y042059D01*
X071057Y040632D01*
X071057Y040630D01*
X071147Y040541D01*
X071235Y040451D01*
X071237Y040451D01*
X071238Y040450D01*
X071354Y040402D01*
X071471Y040353D01*
X071472Y040353D01*
X071474Y040352D01*
X071600Y040352D01*
X071726Y040352D01*
X071727Y040352D01*
X072479Y040352D01*
X072483Y040348D01*
X072660Y040275D01*
X073327Y040275D01*
X073504Y040348D01*
X073618Y040462D01*
X073630Y040450D01*
X073866Y040352D01*
X083121Y040352D01*
X083357Y040450D01*
X083857Y040950D01*
X084038Y041130D01*
X084089Y041255D01*
X084141Y041255D01*
X084412Y041367D01*
X084494Y041449D01*
X084575Y041367D01*
X084847Y041255D01*
X084852Y041255D01*
X084852Y028759D01*
X083950Y027857D01*
X083852Y027621D01*
X083852Y024008D01*
X083848Y024004D01*
X083775Y023827D01*
X083775Y023160D01*
X083848Y022983D01*
X083983Y022848D01*
X084160Y022775D01*
X084827Y022775D01*
X084852Y022785D01*
X084852Y022467D01*
X084521Y022135D01*
X076008Y022135D01*
X076004Y022139D01*
X075827Y022213D01*
X075160Y022213D01*
X074983Y022139D01*
X074848Y022004D01*
X074775Y021827D01*
X074775Y021160D01*
X074848Y020983D01*
X074983Y020848D01*
X075160Y020775D01*
X075827Y020775D01*
X076004Y020848D01*
X076008Y020852D01*
X084914Y020852D01*
X085150Y020950D01*
X085330Y021130D01*
X086038Y021837D01*
X086135Y022073D01*
X086135Y025228D01*
X086852Y025945D01*
X086852Y025008D01*
X086848Y025004D01*
X086775Y024827D01*
X086775Y024160D01*
X086848Y023983D01*
X086983Y023848D01*
X087160Y023775D01*
X087827Y023775D01*
X088004Y023848D01*
X088139Y023983D01*
X088213Y024160D01*
X088213Y024827D01*
X088139Y025004D01*
X088135Y025008D01*
X088135Y039479D01*
X088139Y039483D01*
X088213Y039660D01*
X088213Y040327D01*
X088202Y040352D01*
X089121Y040352D01*
X089275Y040416D01*
X089275Y040160D01*
X089348Y039983D01*
X089351Y039981D01*
X089316Y027645D01*
X089310Y027639D01*
X089237Y027462D01*
X089237Y026795D01*
X089310Y026618D01*
X089445Y026483D01*
X089622Y026410D01*
X090289Y026410D01*
X090466Y026483D01*
X090601Y026618D01*
X090675Y026795D01*
X090675Y027462D01*
X090601Y027639D01*
X090599Y027642D01*
X090634Y039978D01*
X090639Y039983D01*
X090713Y040160D01*
X090713Y040827D01*
X090639Y041004D01*
X090504Y041139D01*
X090327Y041213D01*
X090120Y041213D01*
X090177Y041270D01*
X090412Y041367D01*
X090494Y041449D01*
X090575Y041367D01*
X090847Y041255D01*
X091141Y041255D01*
X091412Y041367D01*
X091494Y041449D01*
X091575Y041367D01*
X091847Y041255D01*
X092141Y041255D01*
X092412Y041367D01*
X092494Y041449D01*
X092575Y041367D01*
X092847Y041255D01*
X093141Y041255D01*
X093412Y041367D01*
X093494Y041449D01*
X093575Y041367D01*
X093847Y041255D01*
X094141Y041255D01*
X094352Y041342D01*
X094352Y037508D01*
X094348Y037504D01*
X094275Y037327D01*
X094275Y036660D01*
X094348Y036483D01*
X094483Y036348D01*
X094660Y036275D01*
X094852Y036275D01*
X094852Y036008D01*
X094848Y036004D01*
X094775Y035827D01*
X094775Y035160D01*
X094803Y035092D01*
X092635Y037259D01*
X092635Y039979D01*
X092639Y039983D01*
X092713Y040160D01*
X092713Y040827D01*
X092639Y041004D01*
X092504Y041139D01*
X092327Y041213D01*
X091660Y041213D01*
X091483Y041139D01*
X091348Y041004D01*
X091275Y040827D01*
X091275Y040213D01*
X091160Y040213D01*
X090983Y040139D01*
X090848Y040004D01*
X090775Y039827D01*
X090775Y039160D01*
X090848Y038983D01*
X090852Y038979D01*
X090852Y036366D01*
X090950Y036130D01*
X095352Y031728D01*
X095352Y027573D01*
X095450Y027337D01*
X096157Y026630D01*
X096337Y026450D01*
X096573Y026352D01*
X114626Y026352D01*
X114626Y023304D01*
X114629Y023296D01*
X114207Y023296D01*
X113920Y023177D01*
X113700Y022957D01*
X113581Y022670D01*
X113581Y022359D01*
X113674Y022135D01*
X113587Y022684D02*
X104397Y022684D01*
X103591Y022684D02*
X102167Y022684D01*
X102079Y023485D02*
X114626Y023485D01*
X114626Y024287D02*
X088213Y024287D01*
X088285Y023485D02*
X086135Y023485D01*
X086135Y022684D02*
X087484Y022684D01*
X087352Y021882D02*
X086056Y021882D01*
X085281Y021081D02*
X087352Y021081D01*
X088635Y021081D02*
X100852Y021081D01*
X100852Y021882D02*
X088635Y021882D01*
X084852Y022684D02*
X068722Y022684D01*
X067476Y023485D02*
X067447Y023485D01*
X065705Y023485D02*
X065699Y023485D01*
X065198Y023485D02*
X065198Y023485D01*
X065198Y022684D02*
X065198Y022684D01*
X065198Y022589D02*
X065198Y022589D01*
X065198Y022589D01*
X064409Y022589D01*
X064409Y022250D01*
X064423Y022148D01*
X064449Y022048D01*
X064489Y021952D01*
X064541Y021863D01*
X064604Y021781D01*
X064677Y021708D01*
X064759Y021645D01*
X064848Y021593D01*
X064944Y021553D01*
X065044Y021527D01*
X065146Y021513D01*
X065198Y021513D01*
X065198Y022589D01*
X065198Y021882D02*
X065198Y021882D01*
X064529Y021882D02*
X059513Y021882D01*
X060038Y021357D02*
X058740Y022654D01*
X058740Y022787D01*
X058306Y023221D01*
X057692Y023221D01*
X057257Y022787D01*
X057257Y022173D01*
X057692Y021738D01*
X057842Y021738D01*
X058852Y020728D01*
X058852Y016880D01*
X058814Y016788D01*
X058814Y016200D01*
X058887Y016023D01*
X059023Y015887D01*
X059200Y015814D01*
X059788Y015814D01*
X059965Y015887D01*
X060100Y016023D01*
X060173Y016200D01*
X060173Y016788D01*
X060135Y016880D01*
X060135Y021121D01*
X060038Y021357D01*
X060135Y021081D02*
X060940Y021081D01*
X061018Y021159D02*
X060794Y020935D01*
X060673Y020642D01*
X060673Y020325D01*
X060794Y020032D01*
X061018Y019808D01*
X061033Y019802D01*
X060653Y019422D01*
X060653Y019084D01*
X061470Y019084D01*
X062286Y019084D01*
X062286Y019422D01*
X061906Y019802D01*
X061921Y019808D01*
X062145Y020032D01*
X062266Y020325D01*
X062266Y020642D01*
X062145Y020935D01*
X061921Y021159D01*
X061628Y021280D01*
X061311Y021280D01*
X061018Y021159D01*
X061999Y021081D02*
X063961Y021081D01*
X064045Y021165D02*
X063823Y020942D01*
X063702Y020651D01*
X063702Y020336D01*
X063823Y020045D01*
X063860Y020008D01*
X063682Y019830D01*
X063682Y019494D01*
X064494Y019494D01*
X065305Y019494D01*
X065305Y019830D01*
X065127Y020008D01*
X065165Y020045D01*
X065285Y020336D01*
X065285Y020651D01*
X065165Y020942D01*
X064942Y021165D01*
X064651Y021285D01*
X064336Y021285D01*
X064045Y021165D01*
X065026Y021081D02*
X066979Y021081D01*
X067067Y021169D02*
X066840Y020942D01*
X066718Y020645D01*
X066718Y020325D01*
X066840Y020028D01*
X067067Y019801D01*
X067363Y019679D01*
X068334Y019679D01*
X068630Y019801D01*
X068857Y020028D01*
X068980Y020325D01*
X068980Y020645D01*
X068857Y020942D01*
X068630Y021169D01*
X068334Y021291D01*
X067363Y021291D01*
X067067Y021169D01*
X068612Y021882D02*
X074798Y021882D01*
X074808Y021081D02*
X072354Y021081D01*
X072279Y021156D02*
X071988Y021276D01*
X071673Y021276D01*
X071382Y021156D01*
X071160Y020933D01*
X071039Y020642D01*
X071039Y020327D01*
X071160Y020036D01*
X071197Y019999D01*
X071019Y019821D01*
X071019Y019485D01*
X071831Y019485D01*
X072642Y019485D01*
X072642Y019821D01*
X072464Y019999D01*
X072502Y020036D01*
X072622Y020327D01*
X072622Y020642D01*
X072502Y020933D01*
X072279Y021156D01*
X071307Y021081D02*
X068718Y021081D01*
X068961Y020279D02*
X071059Y020279D01*
X071019Y019485D02*
X071019Y019149D01*
X071495Y018673D01*
X071831Y018673D01*
X072167Y018673D01*
X072642Y019149D01*
X072642Y019485D01*
X071831Y019485D01*
X071831Y019485D01*
X071831Y019485D01*
X071831Y018673D01*
X071831Y019485D01*
X071831Y019485D01*
X071019Y019485D01*
X071019Y019477D02*
X065305Y019477D01*
X065305Y019494D02*
X064494Y019494D01*
X064494Y019494D01*
X064494Y019494D01*
X064494Y018682D01*
X064830Y018682D01*
X065305Y019158D01*
X065305Y019494D01*
X065262Y020279D02*
X066736Y020279D01*
X067067Y019200D02*
X067363Y019323D01*
X068334Y019323D01*
X068630Y019200D01*
X068857Y018973D01*
X068980Y018677D01*
X068980Y018356D01*
X068857Y018060D01*
X068630Y017833D01*
X068334Y017710D01*
X067363Y017710D01*
X067067Y017833D01*
X066840Y018060D01*
X066718Y018356D01*
X066718Y018677D01*
X066840Y018973D01*
X067067Y019200D01*
X066718Y018676D02*
X062216Y018676D01*
X062286Y018745D02*
X061808Y018267D01*
X061470Y018267D01*
X061470Y019084D01*
X061470Y019084D01*
X062286Y019084D01*
X062286Y018745D01*
X062231Y019477D02*
X063682Y019477D01*
X063682Y019494D02*
X063682Y019158D01*
X064158Y018682D01*
X064494Y018682D01*
X064494Y019494D01*
X064494Y019494D01*
X063682Y019494D01*
X063726Y020279D02*
X062247Y020279D01*
X060692Y020279D02*
X060135Y020279D01*
X060135Y019477D02*
X060708Y019477D01*
X060653Y019084D02*
X060653Y018745D01*
X061131Y018267D01*
X061470Y018267D01*
X061470Y019084D01*
X061470Y019084D01*
X061470Y019084D01*
X060653Y019084D01*
X060723Y018676D02*
X060135Y018676D01*
X060135Y017874D02*
X067026Y017874D01*
X068671Y017874D02*
X087814Y017874D01*
X086735Y016801D02*
X086301Y017235D01*
X085687Y017235D01*
X085494Y017042D01*
X085301Y017235D01*
X084687Y017235D01*
X084494Y017042D01*
X084301Y017235D01*
X083687Y017235D01*
X083494Y017042D01*
X083301Y017235D01*
X082687Y017235D01*
X082494Y017042D01*
X082301Y017235D01*
X081687Y017235D01*
X081494Y017042D01*
X081301Y017235D01*
X080687Y017235D01*
X080494Y017042D01*
X080301Y017235D01*
X079687Y017235D01*
X079494Y017042D01*
X079301Y017235D01*
X078687Y017235D01*
X078494Y017042D01*
X078301Y017235D01*
X077687Y017235D01*
X077494Y017042D01*
X077301Y017235D01*
X076687Y017235D01*
X076252Y016801D01*
X076252Y016187D01*
X076445Y015994D01*
X076252Y015801D01*
X076252Y015187D01*
X076414Y015025D01*
X076372Y014983D01*
X076260Y014711D01*
X076260Y013902D01*
X076372Y013631D01*
X076580Y013423D01*
X076852Y013310D01*
X077146Y013310D01*
X077417Y013423D01*
X077499Y013504D01*
X077580Y013423D01*
X077852Y013310D01*
X078146Y013310D01*
X078417Y013423D01*
X078499Y013504D01*
X078580Y013423D01*
X078852Y013310D01*
X079146Y013310D01*
X079417Y013423D01*
X079499Y013504D01*
X079580Y013423D01*
X079852Y013310D01*
X080146Y013310D01*
X080417Y013423D01*
X080499Y013504D01*
X080580Y013423D01*
X080852Y013310D01*
X081146Y013310D01*
X081417Y013423D01*
X081499Y013504D01*
X081580Y013423D01*
X081852Y013310D01*
X082146Y013310D01*
X082417Y013423D01*
X082499Y013504D01*
X082580Y013423D01*
X082852Y013310D01*
X083146Y013310D01*
X083417Y013423D01*
X083499Y013504D01*
X083580Y013423D01*
X083852Y013310D01*
X084146Y013310D01*
X084417Y013423D01*
X084499Y013504D01*
X084580Y013423D01*
X084852Y013310D01*
X085146Y013310D01*
X085417Y013423D01*
X085499Y013504D01*
X085580Y013423D01*
X085852Y013310D01*
X086146Y013310D01*
X086417Y013423D01*
X086625Y013631D01*
X086738Y013902D01*
X086738Y014711D01*
X086625Y014983D01*
X086578Y015030D01*
X086735Y015187D01*
X086735Y015801D01*
X086542Y015994D01*
X086735Y016187D01*
X086735Y016801D01*
X086464Y017072D02*
X093314Y017072D01*
X094822Y017072D02*
X095774Y017072D01*
X093809Y016271D02*
X091122Y016271D01*
X091156Y016236D02*
X090936Y016456D01*
X090649Y016575D01*
X090338Y016575D01*
X090051Y016456D01*
X089994Y016399D01*
X089936Y016456D01*
X089649Y016575D01*
X089338Y016575D01*
X089051Y016456D01*
X089006Y016411D01*
X088940Y016462D01*
X088849Y016514D01*
X088752Y016554D01*
X088650Y016582D01*
X088546Y016595D01*
X088494Y016595D01*
X088494Y015494D01*
X088494Y015494D01*
X088494Y016595D01*
X088441Y016595D01*
X088337Y016582D01*
X088235Y016554D01*
X088138Y016514D01*
X088047Y016462D01*
X087964Y016398D01*
X087890Y016323D01*
X087826Y016240D01*
X087773Y016149D01*
X087733Y016052D01*
X087706Y015950D01*
X087692Y015846D01*
X087692Y015494D01*
X088494Y015494D01*
X088494Y014392D01*
X088546Y014392D01*
X088650Y014406D01*
X088752Y014433D01*
X088849Y014473D01*
X088940Y014526D01*
X089006Y014576D01*
X089051Y014531D01*
X089338Y014412D01*
X089649Y014412D01*
X089936Y014531D01*
X089994Y014588D01*
X090051Y014531D01*
X090338Y014412D01*
X090649Y014412D01*
X090936Y014531D01*
X091156Y014751D01*
X091275Y015038D01*
X091275Y015949D01*
X091156Y016236D01*
X091275Y015469D02*
X094611Y015469D01*
X091073Y014667D02*
X098913Y014667D01*
X099714Y013866D02*
X094394Y013866D01*
X094356Y013888D02*
X094248Y013933D01*
X094135Y013963D01*
X094019Y013978D01*
X093960Y013978D01*
X093902Y013978D01*
X093786Y013963D01*
X093673Y013933D01*
X093565Y013888D01*
X093464Y013830D01*
X093371Y013759D01*
X093289Y013676D01*
X093217Y013583D01*
X093159Y013482D01*
X093114Y013374D01*
X093084Y013261D01*
X093069Y013145D01*
X093069Y012697D01*
X093960Y012697D01*
X093960Y012697D01*
X093960Y013978D01*
X093960Y012697D01*
X093960Y012697D01*
X093069Y012697D01*
X093069Y012248D01*
X093084Y012132D01*
X093114Y012020D01*
X093159Y011912D01*
X093217Y011810D01*
X093289Y011718D01*
X093371Y011635D01*
X093464Y011564D01*
X093565Y011505D01*
X093673Y011461D01*
X092225Y011461D01*
X092164Y011435D02*
X092484Y011568D01*
X092729Y011813D01*
X092862Y012133D01*
X092862Y013260D01*
X092729Y013580D01*
X092484Y013826D01*
X092164Y013958D01*
X091817Y013958D01*
X091497Y013826D01*
X091252Y013580D01*
X091119Y013260D01*
X091119Y012133D01*
X091252Y011813D01*
X091497Y011568D01*
X091817Y011435D01*
X092164Y011435D01*
X091755Y011461D02*
X086758Y011461D01*
X085999Y011461D02*
X085999Y011461D01*
X085999Y012262D02*
X085999Y012262D01*
X086297Y012262D02*
X091119Y012262D01*
X092862Y012262D02*
X093069Y012262D01*
X093960Y012262D02*
X093960Y012262D01*
X093960Y012697D02*
X093960Y011415D01*
X093960Y012697D01*
X093960Y012697D01*
X094852Y012697D01*
X094852Y013145D01*
X094837Y013261D01*
X094806Y013374D01*
X094762Y013482D01*
X094703Y013583D01*
X094632Y013676D01*
X094550Y013759D01*
X094457Y013830D01*
X094356Y013888D01*
X093960Y013866D02*
X093960Y013866D01*
X093526Y013866D02*
X092387Y013866D01*
X091593Y013866D02*
X086723Y013866D01*
X086738Y014667D02*
X087887Y014667D01*
X087890Y014664D02*
X087964Y014590D01*
X088047Y014526D01*
X088138Y014473D01*
X088235Y014433D01*
X088337Y014406D01*
X088441Y014392D01*
X088494Y014392D01*
X088494Y015494D01*
X088494Y015494D01*
X088494Y015494D01*
X087692Y015494D01*
X087692Y015141D01*
X087706Y015037D01*
X087733Y014935D01*
X087773Y014838D01*
X087826Y014747D01*
X087890Y014664D01*
X088494Y014667D02*
X088494Y014667D01*
X088494Y015469D02*
X088494Y015469D01*
X088494Y016271D02*
X088494Y016271D01*
X087849Y016271D02*
X086735Y016271D01*
X086735Y015469D02*
X087692Y015469D01*
X085524Y017072D02*
X085464Y017072D01*
X084524Y017072D02*
X084464Y017072D01*
X083524Y017072D02*
X083464Y017072D01*
X082524Y017072D02*
X082464Y017072D01*
X081524Y017072D02*
X081464Y017072D01*
X080524Y017072D02*
X080464Y017072D01*
X079524Y017072D02*
X079464Y017072D01*
X078524Y017072D02*
X078464Y017072D01*
X077524Y017072D02*
X077464Y017072D01*
X076524Y017072D02*
X073115Y017072D01*
X073357Y016830D02*
X073357Y016830D01*
X073635Y016271D02*
X076252Y016271D01*
X076252Y015469D02*
X073635Y015469D01*
X072352Y015469D02*
X071166Y015469D01*
X071127Y015508D02*
X071165Y015545D01*
X071285Y015836D01*
X071285Y016151D01*
X071202Y016352D01*
X072021Y016352D01*
X072352Y016021D01*
X072352Y010573D01*
X072450Y010337D01*
X073157Y009630D01*
X073232Y009555D01*
X058114Y009555D01*
X058173Y009700D01*
X058173Y009852D01*
X070979Y009852D01*
X070983Y009848D01*
X071160Y009775D01*
X071827Y009775D01*
X072004Y009848D01*
X072139Y009983D01*
X072213Y010160D01*
X072213Y010827D01*
X072139Y011004D01*
X072004Y011139D01*
X071827Y011213D01*
X071160Y011213D01*
X070983Y011139D01*
X070979Y011135D01*
X061335Y011135D01*
X061357Y011157D01*
X061538Y011337D01*
X061635Y011573D01*
X061635Y016021D01*
X061967Y016352D01*
X064242Y016352D01*
X064205Y016262D01*
X064176Y016156D01*
X064162Y016048D01*
X064162Y015994D01*
X064994Y015994D01*
X065825Y015994D01*
X065825Y016048D01*
X065811Y016156D01*
X065783Y016262D01*
X065745Y016352D01*
X069785Y016352D01*
X069702Y016151D01*
X069702Y015836D01*
X069823Y015545D01*
X069860Y015508D01*
X069682Y015330D01*
X069682Y014994D01*
X070494Y014994D01*
X071305Y014994D01*
X071305Y015330D01*
X071127Y015508D01*
X071305Y014994D02*
X070494Y014994D01*
X070494Y014994D01*
X070494Y014182D01*
X070830Y014182D01*
X071305Y014658D01*
X071305Y014994D01*
X071305Y014667D02*
X072352Y014667D01*
X072352Y013866D02*
X061635Y013866D01*
X061635Y014667D02*
X064250Y014667D01*
X064306Y014534D02*
X064534Y014306D01*
X064832Y014182D01*
X065155Y014182D01*
X065453Y014306D01*
X065682Y014534D01*
X065805Y014832D01*
X065805Y015155D01*
X065682Y015453D01*
X065651Y015484D01*
X065687Y015531D01*
X065741Y015625D01*
X065783Y015726D01*
X065811Y015831D01*
X065825Y015939D01*
X065825Y015994D01*
X064994Y015994D01*
X064994Y015994D01*
X064994Y015994D01*
X064162Y015994D01*
X064162Y015939D01*
X064176Y015831D01*
X064205Y015726D01*
X064246Y015625D01*
X064301Y015531D01*
X064336Y015484D01*
X064306Y015453D01*
X064182Y015155D01*
X064182Y014832D01*
X064306Y014534D01*
X065737Y014667D02*
X069682Y014667D01*
X069682Y014658D02*
X070158Y014182D01*
X070494Y014182D01*
X070494Y014994D01*
X070494Y014994D01*
X070494Y014994D01*
X069682Y014994D01*
X069682Y014658D01*
X070494Y014667D02*
X070494Y014667D01*
X069821Y015469D02*
X065666Y015469D01*
X065779Y016271D02*
X069752Y016271D01*
X071236Y016271D02*
X072102Y016271D01*
X072830Y017357D02*
X072830Y017357D01*
X072169Y018676D02*
X075304Y018676D01*
X075311Y018657D02*
X075361Y018571D01*
X075422Y018492D01*
X075492Y018422D01*
X075571Y018361D01*
X075657Y018311D01*
X075749Y018273D01*
X075845Y018248D01*
X075944Y018235D01*
X075994Y018235D01*
X075994Y018994D01*
X075994Y018994D01*
X075994Y018994D01*
X075235Y018994D01*
X075235Y018944D01*
X075248Y018845D01*
X075273Y018749D01*
X075311Y018657D01*
X075994Y018676D02*
X075994Y018676D01*
X075994Y019477D02*
X075994Y019477D01*
X075408Y019477D02*
X072642Y019477D01*
X072602Y020279D02*
X075290Y020279D01*
X075994Y020279D02*
X075994Y020279D01*
X071831Y019477D02*
X071831Y019477D01*
X071831Y018676D02*
X071831Y018676D01*
X071492Y018676D02*
X068980Y018676D01*
X064494Y019477D02*
X064494Y019477D01*
X061470Y018676D02*
X061470Y018676D01*
X058852Y018676D02*
X057870Y018676D01*
X058673Y017874D02*
X058852Y017874D01*
X058852Y017072D02*
X055445Y017072D01*
X055453Y017069D02*
X055155Y017192D01*
X054832Y017192D01*
X054534Y017069D01*
X054306Y016840D01*
X054182Y016542D01*
X054182Y016219D01*
X054306Y015921D01*
X054336Y015890D01*
X054301Y015844D01*
X054246Y015749D01*
X054205Y015649D01*
X054176Y015543D01*
X054162Y015435D01*
X054162Y015381D01*
X054994Y015381D01*
X055825Y015381D01*
X055825Y015435D01*
X055811Y015543D01*
X055783Y015649D01*
X055741Y015749D01*
X055687Y015844D01*
X055651Y015890D01*
X055682Y015921D01*
X055805Y016219D01*
X055805Y016542D01*
X055682Y016840D01*
X055453Y017069D01*
X055706Y017874D02*
X052233Y017874D01*
X052316Y018676D02*
X054905Y018676D01*
X055918Y019477D02*
X056362Y019477D01*
X056406Y020279D02*
X049686Y020279D01*
X049983Y020848D02*
X050160Y020775D01*
X050827Y020775D01*
X051004Y020848D01*
X051008Y020852D01*
X052979Y020852D01*
X052983Y020848D01*
X053160Y020775D01*
X053827Y020775D01*
X054004Y020848D01*
X054139Y020983D01*
X054213Y021160D01*
X054213Y021827D01*
X054139Y022004D01*
X054004Y022139D01*
X053827Y022213D01*
X053160Y022213D01*
X052983Y022139D01*
X052979Y022135D01*
X051008Y022135D01*
X051004Y022139D01*
X050827Y022213D01*
X050160Y022213D01*
X049983Y022139D01*
X049848Y022004D01*
X049775Y021827D01*
X049775Y021160D01*
X049848Y020983D01*
X049983Y020848D01*
X049808Y021081D02*
X048885Y021081D01*
X048083Y021882D02*
X049798Y021882D01*
X047632Y022684D02*
X052477Y022684D01*
X052425Y023485D02*
X050140Y023485D01*
X048847Y023485D02*
X047627Y023485D01*
X047623Y024287D02*
X048775Y024287D01*
X046340Y024287D02*
X046213Y024287D01*
X046213Y024327D02*
X046139Y024504D01*
X046004Y024639D01*
X045827Y024713D01*
X045160Y024713D01*
X044983Y024639D01*
X044979Y024635D01*
X042759Y024635D01*
X042538Y024857D01*
X042538Y024857D01*
X042357Y025038D01*
X042121Y025135D01*
X035184Y025135D01*
X035235Y025187D01*
X035235Y025689D01*
X046125Y025689D01*
X046334Y025482D01*
X046352Y021992D01*
X046352Y021866D01*
X046353Y021864D01*
X046353Y021863D01*
X046402Y021747D01*
X046450Y021630D01*
X046451Y021629D01*
X046452Y021627D01*
X046541Y021539D01*
X046630Y021450D01*
X046632Y021449D01*
X046633Y021448D01*
X046750Y021400D01*
X047015Y021136D01*
X041304Y021137D01*
X041304Y021508D01*
X041230Y021685D01*
X041095Y021820D01*
X040918Y021894D01*
X040251Y021894D01*
X040074Y021820D01*
X039939Y021685D01*
X039866Y021508D01*
X039866Y020841D01*
X039939Y020664D01*
X039974Y020630D01*
X039848Y020504D01*
X039775Y020327D01*
X039775Y019660D01*
X039848Y019483D01*
X039983Y019348D01*
X040160Y019275D01*
X040827Y019275D01*
X041004Y019348D01*
X041008Y019352D01*
X041871Y019352D01*
X041810Y019338D01*
X041710Y019303D01*
X041615Y019257D01*
X041525Y019201D01*
X041442Y019135D01*
X041367Y019060D01*
X041301Y018977D01*
X041245Y018887D01*
X041199Y018792D01*
X041164Y018691D01*
X041140Y018588D01*
X041128Y018483D01*
X041128Y018430D01*
X042515Y018430D01*
X043901Y018430D01*
X043901Y018483D01*
X043889Y018588D01*
X043866Y018691D01*
X043831Y018792D01*
X043785Y018887D01*
X043728Y018977D01*
X043662Y019060D01*
X043587Y019135D01*
X043504Y019201D01*
X043415Y019257D01*
X043319Y019303D01*
X043219Y019338D01*
X043158Y019352D01*
X044979Y019352D01*
X044983Y019348D01*
X045160Y019275D01*
X045827Y019275D01*
X046004Y019348D01*
X046139Y019483D01*
X046213Y019660D01*
X046213Y019853D01*
X046814Y019853D01*
X047852Y018814D01*
X047852Y014692D01*
X047761Y014730D01*
X047648Y014760D01*
X047532Y014775D01*
X047474Y014775D01*
X047474Y013494D01*
X047474Y013494D01*
X047474Y014775D01*
X047415Y014775D01*
X047299Y014760D01*
X047186Y014730D01*
X047079Y014685D01*
X046977Y014627D01*
X046885Y014555D01*
X046802Y014473D01*
X046731Y014380D01*
X046672Y014279D01*
X046628Y014171D01*
X046597Y014058D01*
X046582Y013942D01*
X046582Y013494D01*
X047474Y013494D01*
X047474Y012212D01*
X047532Y012212D01*
X047648Y012227D01*
X047761Y012258D01*
X047852Y012295D01*
X047852Y011984D01*
X047950Y011748D01*
X048563Y011135D01*
X048008Y011135D01*
X048004Y011139D01*
X047827Y011213D01*
X047160Y011213D01*
X046983Y011139D01*
X046848Y011004D01*
X046775Y010827D01*
X046775Y010160D01*
X046785Y010135D01*
X046759Y010135D01*
X046135Y010759D01*
X046135Y012503D01*
X046243Y012610D01*
X046375Y012930D01*
X046375Y014057D01*
X046243Y014377D01*
X045997Y014623D01*
X045677Y014755D01*
X045330Y014755D01*
X045010Y014623D01*
X044765Y014377D01*
X044632Y014057D01*
X044632Y012930D01*
X044765Y012610D01*
X044852Y012523D01*
X044852Y010366D01*
X044950Y010130D01*
X045525Y009555D01*
X018555Y009555D01*
X018555Y020525D01*
X019108Y019972D01*
X018681Y019545D01*
X018681Y019230D01*
X019443Y019230D01*
X019443Y018468D01*
X019758Y018468D01*
X019852Y018562D01*
X019852Y017880D01*
X019814Y017788D01*
X019814Y017200D01*
X019887Y017023D01*
X020023Y016887D01*
X020200Y016814D01*
X020591Y016814D01*
X020598Y011051D01*
X020598Y010924D01*
X020599Y010923D01*
X020599Y010923D01*
X020647Y010806D01*
X020696Y010688D01*
X020696Y010688D01*
X020697Y010687D01*
X020786Y010597D01*
X021262Y010121D01*
X021262Y010121D01*
X021354Y010030D01*
X021443Y009941D01*
X021443Y009941D01*
X021443Y009941D01*
X021562Y009891D01*
X021678Y009843D01*
X021679Y009843D01*
X021806Y009843D01*
X021934Y009843D01*
X026612Y009843D01*
X026848Y009941D01*
X027837Y010930D01*
X028018Y011110D01*
X028115Y011346D01*
X028115Y012513D01*
X028213Y012610D01*
X028345Y012930D01*
X028345Y014057D01*
X028213Y014377D01*
X027967Y014623D01*
X027647Y014755D01*
X027300Y014755D01*
X026980Y014623D01*
X026735Y014377D01*
X026602Y014057D01*
X026602Y012930D01*
X026735Y012610D01*
X026832Y012513D01*
X026832Y011739D01*
X026219Y011126D01*
X022072Y011126D01*
X021881Y011317D01*
X021871Y019275D01*
X022327Y019275D01*
X022504Y019348D01*
X022508Y019352D01*
X022701Y019352D01*
X022701Y018923D01*
X023136Y018488D01*
X023750Y018488D01*
X024184Y018923D01*
X024184Y019039D01*
X024194Y019048D01*
X030885Y019048D01*
X028960Y017123D01*
X028862Y016887D01*
X028862Y014475D01*
X028765Y014377D01*
X028632Y014057D01*
X028632Y012930D01*
X028765Y012610D01*
X029010Y012365D01*
X029330Y012232D01*
X029677Y012232D01*
X029997Y012365D01*
X030243Y012610D01*
X030375Y012930D01*
X030375Y014057D01*
X030243Y014377D01*
X030145Y014475D01*
X030145Y016494D01*
X031852Y018201D01*
X031852Y014779D01*
X031775Y014702D01*
X031647Y014755D01*
X031300Y014755D01*
X030980Y014623D01*
X030735Y014377D01*
X030602Y014057D01*
X030602Y012930D01*
X030735Y012610D01*
X030980Y012365D01*
X031300Y012232D01*
X031647Y012232D01*
X031967Y012365D01*
X032213Y012610D01*
X032345Y012930D01*
X032345Y013458D01*
X032632Y013745D01*
X032632Y012930D01*
X032765Y012610D01*
X033010Y012365D01*
X033330Y012232D01*
X033677Y012232D01*
X033997Y012365D01*
X034243Y012610D01*
X034375Y012930D01*
X034375Y014057D01*
X034243Y014377D01*
X033997Y014623D01*
X033677Y014755D01*
X033330Y014755D01*
X033135Y014674D01*
X033135Y022621D01*
X033038Y022857D01*
X032538Y023357D01*
X032357Y023538D01*
X032121Y023635D01*
X029861Y023635D01*
X029891Y023708D01*
X029920Y023816D01*
X029935Y023927D01*
X029935Y024338D01*
X029935Y024704D01*
X031876Y024704D01*
X032450Y024130D01*
X032630Y023950D01*
X032866Y023852D01*
X033775Y023852D01*
X033732Y023809D01*
X033732Y023494D01*
X034494Y023494D01*
X035255Y023494D01*
X035255Y023809D01*
X035212Y023852D01*
X041728Y023852D01*
X041950Y023630D01*
X042130Y023450D01*
X042366Y023352D01*
X044979Y023352D01*
X044983Y023348D01*
X045160Y023275D01*
X045827Y023275D01*
X046004Y023348D01*
X046139Y023483D01*
X046213Y023660D01*
X046213Y024327D01*
X046140Y023485D02*
X046344Y023485D01*
X046348Y022684D02*
X045813Y022684D01*
X045813Y022709D02*
X045338Y023184D01*
X045002Y023184D01*
X045002Y022373D01*
X045813Y022373D01*
X045813Y022709D01*
X045813Y022373D02*
X045002Y022373D01*
X045002Y022373D01*
X045002Y022373D01*
X045002Y023184D01*
X044666Y023184D01*
X044488Y023006D01*
X044450Y023044D01*
X044159Y023164D01*
X043844Y023164D01*
X043553Y023044D01*
X043331Y022821D01*
X043210Y022530D01*
X043210Y022215D01*
X043331Y021924D01*
X043553Y021702D01*
X043844Y021581D01*
X044159Y021581D01*
X044450Y021702D01*
X044488Y021739D01*
X044666Y021561D01*
X045002Y021561D01*
X045338Y021561D01*
X045813Y022037D01*
X045813Y022373D01*
X045659Y021882D02*
X046352Y021882D01*
X046750Y021400D02*
X046750Y021400D01*
X045002Y021561D02*
X045002Y022373D01*
X045002Y022373D01*
X045002Y021561D01*
X045002Y021882D02*
X045002Y021882D01*
X045002Y022684D02*
X045002Y022684D01*
X043274Y022684D02*
X038255Y022684D01*
X038255Y022809D02*
X037809Y023255D01*
X037494Y023255D01*
X037494Y022494D01*
X038255Y022494D01*
X038255Y022809D01*
X038255Y022494D02*
X037494Y022494D01*
X037494Y022494D01*
X037494Y022494D01*
X037494Y023255D01*
X037178Y023255D01*
X036732Y022809D01*
X036732Y022494D01*
X037494Y022494D01*
X037494Y021732D01*
X037809Y021732D01*
X038255Y022178D01*
X038255Y022494D01*
X037959Y021882D02*
X040223Y021882D01*
X040946Y021882D02*
X043373Y021882D01*
X039866Y021081D02*
X033135Y021081D01*
X033135Y021882D02*
X035057Y021882D01*
X035187Y021752D02*
X035801Y021752D01*
X036235Y022187D01*
X036235Y022801D01*
X035801Y023235D01*
X035255Y023235D01*
X035255Y023494D01*
X034494Y023494D01*
X034494Y023494D01*
X034494Y022732D01*
X034752Y022732D01*
X034752Y022187D01*
X035187Y021752D01*
X035931Y021882D02*
X037028Y021882D01*
X037178Y021732D02*
X037494Y021732D01*
X037494Y022494D01*
X037494Y022494D01*
X037494Y022494D01*
X036732Y022494D01*
X036732Y022178D01*
X037178Y021732D01*
X037494Y021882D02*
X037494Y021882D01*
X037494Y022684D02*
X037494Y022684D01*
X036732Y022684D02*
X036235Y022684D01*
X035255Y023485D02*
X042095Y023485D01*
X041950Y023630D02*
X041950Y023630D01*
X042234Y025089D02*
X046336Y025089D01*
X047994Y025494D02*
X048994Y025494D01*
X052994Y029494D01*
X052994Y032009D01*
X052111Y031427D02*
X052111Y029860D01*
X048777Y026526D01*
X048680Y026566D01*
X047307Y026566D01*
X047135Y026494D01*
X046843Y026785D01*
X046753Y026875D01*
X046752Y026875D01*
X046752Y026876D01*
X046635Y026924D01*
X046517Y026972D01*
X046516Y026972D01*
X046516Y026973D01*
X046389Y026972D01*
X044996Y026972D01*
X045293Y027269D01*
X045293Y027608D01*
X045293Y027946D01*
X044913Y028326D01*
X044928Y028332D01*
X045152Y028556D01*
X045273Y028849D01*
X045273Y029166D01*
X045268Y029180D01*
X046061Y028519D01*
X046130Y028450D01*
X046158Y028438D01*
X046181Y028419D01*
X046275Y028390D01*
X046366Y028352D01*
X046396Y028352D01*
X046425Y028343D01*
X046523Y028352D01*
X049479Y028352D01*
X049483Y028348D01*
X049660Y028275D01*
X050327Y028275D01*
X050504Y028348D01*
X050639Y028483D01*
X050713Y028660D01*
X050713Y029327D01*
X050639Y029504D01*
X050504Y029639D01*
X050327Y029713D01*
X049660Y029713D01*
X049483Y029639D01*
X049479Y029635D01*
X048717Y029635D01*
X048921Y029839D01*
X049042Y030132D01*
X049042Y030449D01*
X048921Y030742D01*
X048697Y030966D01*
X048682Y030972D01*
X049062Y031352D01*
X049062Y031691D01*
X049062Y032029D01*
X048739Y032352D01*
X051938Y032352D01*
X051863Y032170D01*
X051863Y031849D01*
X051985Y031553D01*
X052111Y031427D01*
X052036Y031502D02*
X049062Y031502D01*
X049062Y031691D02*
X048246Y031691D01*
X049062Y031691D01*
X048246Y031691D02*
X048246Y031691D01*
X048246Y031691D01*
X047429Y031691D01*
X047429Y032029D01*
X047752Y032352D01*
X047688Y032352D01*
X046402Y031495D01*
X046357Y031450D01*
X046297Y031425D01*
X046243Y031389D01*
X046181Y031377D01*
X046121Y031352D01*
X046057Y031352D01*
X045993Y031340D01*
X045930Y031352D01*
X042802Y031352D01*
X042802Y030858D01*
X044995Y030858D01*
X045093Y030867D01*
X045122Y030858D01*
X045152Y030858D01*
X045243Y030821D01*
X045337Y030791D01*
X045360Y030772D01*
X045388Y030761D01*
X045458Y030691D01*
X046726Y029635D01*
X047775Y029635D01*
X047570Y029839D01*
X047449Y030132D01*
X047449Y030449D01*
X047570Y030742D01*
X047794Y030966D01*
X047809Y030972D01*
X047429Y031352D01*
X047429Y031691D01*
X048246Y031691D01*
X047429Y031502D02*
X046413Y031502D01*
X045448Y030700D02*
X047553Y030700D01*
X048938Y030700D02*
X052111Y030700D01*
X053877Y030700D02*
X084852Y030700D01*
X084852Y031502D02*
X073647Y031502D01*
X073713Y032304D02*
X084852Y032304D01*
X084852Y033105D02*
X055483Y033105D01*
X056301Y033519D02*
X056529Y033291D01*
X056827Y033167D01*
X057150Y033167D01*
X057448Y033291D01*
X057479Y033321D01*
X057526Y033286D01*
X057620Y033231D01*
X057721Y033190D01*
X057826Y033161D01*
X057934Y033147D01*
X057989Y033147D01*
X058043Y033147D01*
X058151Y033161D01*
X058257Y033190D01*
X058357Y033231D01*
X058452Y033286D01*
X058498Y033321D01*
X058529Y033291D01*
X058827Y033167D01*
X059150Y033167D01*
X059448Y033291D01*
X059677Y033519D01*
X059800Y033817D01*
X059800Y034140D01*
X059677Y034438D01*
X059448Y034667D01*
X059150Y034790D01*
X058827Y034790D01*
X058529Y034667D01*
X058498Y034636D01*
X058452Y034672D01*
X058357Y034726D01*
X058257Y034768D01*
X058151Y034796D01*
X058043Y034810D01*
X057989Y034810D01*
X057989Y033979D01*
X057989Y033979D01*
X057989Y034810D01*
X057934Y034810D01*
X057826Y034796D01*
X057721Y034768D01*
X057620Y034726D01*
X057526Y034672D01*
X057479Y034636D01*
X057448Y034667D01*
X057150Y034790D01*
X056827Y034790D01*
X056529Y034667D01*
X056301Y034438D01*
X056177Y034140D01*
X056177Y033817D01*
X056301Y033519D01*
X056177Y033907D02*
X054125Y033907D01*
X051863Y033907D02*
X048273Y033907D01*
X046790Y033907D02*
X031065Y033907D01*
X030658Y033105D02*
X030135Y033105D01*
X030298Y032304D02*
X030913Y032304D01*
X032954Y032082D02*
X032983Y032082D01*
X033289Y032209D01*
X033487Y032407D01*
X033685Y032209D01*
X033991Y032082D01*
X034322Y032082D01*
X034627Y032209D01*
X034817Y032398D01*
X034853Y032351D01*
X034932Y032272D01*
X035021Y032204D01*
X035118Y032148D01*
X035221Y032106D01*
X035329Y032077D01*
X035439Y032062D01*
X035495Y032062D01*
X035551Y032062D01*
X035661Y032077D01*
X035769Y032106D01*
X035872Y032148D01*
X035969Y032204D01*
X036058Y032272D01*
X036137Y032351D01*
X036173Y032398D01*
X036363Y032209D01*
X036668Y032082D01*
X036999Y032082D01*
X037305Y032209D01*
X037503Y032407D01*
X037701Y032209D01*
X038007Y032082D01*
X038338Y032082D01*
X038643Y032209D01*
X038776Y032342D01*
X038907Y032211D01*
X039213Y032084D01*
X039544Y032084D01*
X039849Y032211D01*
X040048Y032409D01*
X040246Y032211D01*
X040353Y032166D01*
X039967Y031781D01*
X039967Y031167D01*
X040275Y030858D01*
X039284Y030858D01*
X038934Y031209D01*
X038698Y031306D01*
X034574Y031306D01*
X034474Y031406D01*
X033860Y031406D01*
X033425Y030972D01*
X033425Y030358D01*
X033860Y029923D01*
X034474Y029923D01*
X034574Y030023D01*
X038305Y030023D01*
X038655Y029673D01*
X038891Y029575D01*
X043918Y029575D01*
X043801Y029459D01*
X043680Y029166D01*
X043680Y028849D01*
X043801Y028556D01*
X044025Y028332D01*
X044040Y028326D01*
X043660Y027946D01*
X043660Y027608D01*
X044477Y027608D01*
X045293Y027608D01*
X044477Y027608D01*
X044477Y027608D01*
X044477Y027608D01*
X043660Y027608D01*
X043660Y027269D01*
X043957Y026972D01*
X041284Y026972D01*
X041470Y027158D01*
X041470Y027474D01*
X041470Y027575D01*
X041745Y027300D01*
X042061Y027300D01*
X042376Y027300D01*
X042822Y027746D01*
X042822Y028062D01*
X042822Y028377D01*
X042376Y028823D01*
X042061Y028823D01*
X042061Y028062D01*
X042061Y028062D01*
X042822Y028062D01*
X042061Y028062D01*
X042061Y028062D01*
X042061Y028823D01*
X041745Y028823D01*
X041299Y028377D01*
X041299Y028062D01*
X042061Y028062D01*
X042061Y028062D01*
X042061Y027300D01*
X042061Y028062D01*
X042061Y028062D01*
X041299Y028062D01*
X041299Y027960D01*
X041024Y028235D01*
X040709Y028235D01*
X040709Y027474D01*
X040709Y027474D01*
X041470Y027474D01*
X040709Y027474D01*
X040709Y027474D01*
X040709Y028235D01*
X040393Y028235D01*
X039947Y027789D01*
X039947Y027474D01*
X040709Y027474D01*
X040709Y027474D01*
X039947Y027474D01*
X039947Y027158D01*
X040133Y026972D01*
X034551Y026972D01*
X034928Y027349D01*
X034928Y027665D01*
X034928Y027980D01*
X034482Y028426D01*
X034167Y028426D01*
X034167Y027665D01*
X034167Y027665D01*
X034928Y027665D01*
X034167Y027665D01*
X034167Y027665D01*
X034167Y028426D01*
X033851Y028426D01*
X033405Y027980D01*
X033405Y027665D01*
X034167Y027665D01*
X034167Y026903D01*
X034199Y026903D01*
X034130Y026875D01*
X033950Y026694D01*
X033925Y026635D01*
X028380Y026635D01*
X028288Y026673D01*
X028857Y027243D01*
X029038Y027423D01*
X029135Y027659D01*
X029135Y029479D01*
X029139Y029483D01*
X029213Y029660D01*
X029213Y030327D01*
X029139Y030504D01*
X029004Y030639D01*
X028827Y030713D01*
X028160Y030713D01*
X027983Y030639D01*
X027848Y030504D01*
X027775Y030327D01*
X027775Y029660D01*
X027848Y029483D01*
X027852Y029479D01*
X027852Y028052D01*
X026657Y026857D01*
X025950Y026150D01*
X025852Y025914D01*
X025852Y025503D01*
X025605Y025401D01*
X025579Y025374D01*
X025552Y025401D01*
X025245Y025528D01*
X024912Y025528D01*
X024605Y025401D01*
X024579Y025374D01*
X024552Y025401D01*
X024245Y025528D01*
X024127Y025528D01*
X020895Y028759D01*
X020889Y037156D01*
X020981Y037248D01*
X027435Y037236D01*
X027591Y037236D01*
X027694Y037279D01*
X027827Y037333D01*
X027827Y037333D01*
X027920Y037427D01*
X028144Y037649D01*
X028144Y036206D01*
X027983Y036139D01*
X027848Y036004D01*
X027775Y035827D01*
X027775Y035160D01*
X027848Y034983D01*
X027983Y034848D01*
X028160Y034775D01*
X028827Y034775D01*
X028852Y034785D01*
X028852Y032073D01*
X028950Y031837D01*
X029657Y031130D01*
X029837Y030950D01*
X030073Y030852D01*
X032087Y030852D01*
X032187Y030752D01*
X032801Y030752D01*
X033235Y031187D01*
X033235Y031801D01*
X032954Y032082D01*
X033384Y032304D02*
X033591Y032304D01*
X034722Y032304D02*
X034901Y032304D01*
X035495Y032304D02*
X035495Y032304D01*
X035495Y032062D02*
X035495Y032914D01*
X035495Y033765D01*
X035495Y032914D01*
X035495Y032914D01*
X035495Y032914D01*
X035495Y032062D01*
X036089Y032304D02*
X036268Y032304D01*
X035495Y033105D02*
X035495Y033105D01*
X037399Y032304D02*
X037606Y032304D01*
X038738Y032304D02*
X038814Y032304D01*
X039942Y032304D02*
X040153Y032304D01*
X039967Y031502D02*
X033235Y031502D01*
X033425Y030700D02*
X028857Y030700D01*
X028130Y030700D02*
X025400Y030700D01*
X025377Y030723D02*
X025057Y030855D01*
X023930Y030855D01*
X023610Y030723D01*
X023365Y030477D01*
X023232Y030157D01*
X023232Y029810D01*
X023365Y029490D01*
X023610Y029245D01*
X023930Y029112D01*
X025057Y029112D01*
X025377Y029245D01*
X025623Y029490D01*
X025755Y029810D01*
X025755Y030157D01*
X025623Y030477D01*
X025377Y030723D01*
X024355Y031622D02*
X024825Y032092D01*
X025004Y032018D01*
X025819Y032018D01*
X026092Y032131D01*
X026300Y032340D01*
X026413Y032612D01*
X026413Y032907D01*
X026300Y033180D01*
X026220Y033260D01*
X026300Y033340D01*
X026413Y033612D01*
X026413Y033907D01*
X028852Y033907D01*
X028852Y033105D02*
X026331Y033105D01*
X026264Y032304D02*
X028852Y032304D01*
X029285Y031502D02*
X020893Y031502D01*
X020894Y030700D02*
X023588Y030700D01*
X023633Y031622D02*
X024355Y031622D01*
X023633Y031622D02*
X023122Y032133D01*
X023122Y032622D01*
X022633Y032622D01*
X022122Y033133D01*
X022122Y033855D01*
X022633Y034365D01*
X023102Y034365D01*
X023102Y034494D01*
X023994Y034494D01*
X023994Y034494D01*
X023994Y035385D01*
X024363Y035385D01*
X024538Y035211D01*
X024578Y035263D01*
X024648Y035334D01*
X024728Y035394D01*
X024814Y035444D01*
X024906Y035482D01*
X025003Y035508D01*
X025102Y035521D01*
X025412Y035521D01*
X025412Y034760D01*
X025412Y034760D01*
X026433Y034760D01*
X026433Y034810D01*
X026420Y034909D01*
X026394Y035005D01*
X026356Y035097D01*
X026306Y035184D01*
X026246Y035263D01*
X026175Y035334D01*
X026096Y035394D01*
X026009Y035444D01*
X025917Y035482D01*
X025821Y035508D01*
X025722Y035521D01*
X025412Y035521D01*
X025412Y034760D01*
X025412Y034760D01*
X026433Y034760D01*
X026433Y034710D01*
X026420Y034611D01*
X026394Y034514D01*
X026356Y034422D01*
X026306Y034336D01*
X026246Y034256D01*
X026235Y034246D01*
X026300Y034180D01*
X026413Y033907D01*
X024603Y033260D02*
X024532Y033188D01*
X024355Y033365D01*
X023865Y033365D01*
X023865Y033602D01*
X023994Y033602D01*
X023994Y034494D01*
X023994Y035385D01*
X023624Y035385D01*
X023102Y034863D01*
X023102Y034494D01*
X023994Y034494D01*
X023994Y034494D01*
X023994Y034494D01*
X023994Y033602D01*
X024363Y033602D01*
X024410Y033649D01*
X024410Y033612D01*
X024523Y033340D01*
X024603Y033260D01*
X023994Y033907D02*
X023994Y033907D01*
X023994Y034709D02*
X023994Y034709D01*
X023102Y034709D02*
X020891Y034709D01*
X020890Y035510D02*
X025018Y035510D01*
X025412Y035510D02*
X025412Y035510D01*
X025806Y035510D02*
X027775Y035510D01*
X028852Y034709D02*
X026433Y034709D01*
X028144Y036312D02*
X020889Y036312D01*
X020889Y037113D02*
X028144Y037113D01*
X027827Y037333D02*
X027827Y037333D01*
X027591Y037236D02*
X027591Y037236D01*
X027591Y037236D01*
X027200Y038520D02*
X020844Y038531D01*
X020843Y038531D01*
X020716Y038531D01*
X020589Y038532D01*
X020588Y038531D01*
X020470Y038483D01*
X020353Y038434D01*
X020353Y038434D01*
X020352Y038434D01*
X020262Y038344D01*
X020172Y038254D01*
X020172Y038254D01*
X019883Y037965D01*
X019794Y037875D01*
X019703Y037785D01*
X019703Y037784D01*
X019655Y037668D01*
X019605Y037549D01*
X019605Y037549D01*
X019605Y037548D01*
X019605Y037421D01*
X019605Y037294D01*
X019606Y037293D01*
X019610Y030673D01*
X019200Y030673D01*
X019023Y030600D01*
X018887Y030465D01*
X018814Y030288D01*
X018814Y030221D01*
X018630Y030038D01*
X018555Y029963D01*
X018555Y041284D01*
X018658Y041182D01*
X018994Y041182D01*
X019330Y041182D01*
X019508Y041360D01*
X019545Y041323D01*
X019836Y041202D01*
X020151Y041202D01*
X020442Y041323D01*
X020665Y041545D01*
X020785Y041836D01*
X020785Y042151D01*
X020665Y042442D01*
X020442Y042665D01*
X020151Y042785D01*
X019836Y042785D01*
X019545Y042665D01*
X019508Y042627D01*
X019330Y042805D01*
X018994Y042805D01*
X018994Y041994D01*
X018994Y041994D01*
X018994Y042805D01*
X018658Y042805D01*
X018555Y042703D01*
X018555Y046432D01*
X028349Y046432D01*
X028274Y046402D01*
X028274Y046401D01*
X028183Y046311D01*
X027739Y045868D01*
X027647Y045777D01*
X027559Y045688D01*
X027559Y045688D01*
X027559Y045688D01*
X027511Y045574D01*
X027460Y045453D01*
X027460Y045453D01*
X027460Y045453D01*
X027460Y045337D01*
X027460Y045197D01*
X027449Y038768D01*
X027200Y038520D01*
X027397Y038717D02*
X018555Y038717D01*
X018555Y039518D02*
X019711Y039518D01*
X019706Y039537D02*
X019733Y039435D01*
X019773Y039338D01*
X019826Y039247D01*
X019890Y039164D01*
X019964Y039090D01*
X020047Y039026D01*
X020138Y038973D01*
X020235Y038933D01*
X020337Y038906D01*
X020441Y038892D01*
X020494Y038892D01*
X020546Y038892D01*
X020650Y038906D01*
X020752Y038933D01*
X020849Y038973D01*
X020940Y039026D01*
X021006Y039076D01*
X021051Y039031D01*
X021338Y038912D01*
X021649Y038912D01*
X021936Y039031D01*
X021994Y039088D01*
X022051Y039031D01*
X022338Y038912D01*
X022649Y038912D01*
X022936Y039031D01*
X023156Y039251D01*
X023275Y039538D01*
X023275Y040449D01*
X023156Y040736D01*
X022936Y040956D01*
X022649Y041075D01*
X022338Y041075D01*
X022051Y040956D01*
X021994Y040899D01*
X021936Y040956D01*
X021649Y041075D01*
X021338Y041075D01*
X021051Y040956D01*
X021006Y040911D01*
X020940Y040962D01*
X020849Y041014D01*
X020752Y041054D01*
X020650Y041082D01*
X020546Y041095D01*
X020494Y041095D01*
X020494Y039994D01*
X020494Y039994D01*
X020494Y041095D01*
X020441Y041095D01*
X020337Y041082D01*
X020235Y041054D01*
X020138Y041014D01*
X020047Y040962D01*
X019964Y040898D01*
X019890Y040823D01*
X019826Y040740D01*
X019773Y040649D01*
X019733Y040552D01*
X019706Y040450D01*
X019692Y040346D01*
X019692Y039994D01*
X020494Y039994D01*
X020494Y039994D01*
X020494Y038892D01*
X020494Y039994D01*
X020494Y039994D01*
X019692Y039994D01*
X019692Y039641D01*
X019706Y039537D01*
X020494Y039518D02*
X020494Y039518D01*
X020494Y040320D02*
X020494Y040320D01*
X019692Y040320D02*
X018555Y040320D01*
X018555Y041122D02*
X027453Y041122D01*
X027454Y041923D02*
X020785Y041923D01*
X018994Y041923D02*
X018994Y041923D01*
X018994Y041994D02*
X018994Y041182D01*
X018994Y041994D01*
X018994Y041994D01*
X018994Y042725D02*
X018994Y042725D01*
X019410Y042725D02*
X019691Y042725D01*
X019964Y043090D02*
X020047Y043026D01*
X020138Y042973D01*
X020235Y042933D01*
X020337Y042906D01*
X020441Y042892D01*
X020494Y042892D01*
X020546Y042892D01*
X020650Y042906D01*
X020752Y042933D01*
X020849Y042973D01*
X020940Y043026D01*
X021006Y043076D01*
X021051Y043031D01*
X021338Y042912D01*
X021649Y042912D01*
X021936Y043031D01*
X021994Y043088D01*
X022051Y043031D01*
X022338Y042912D01*
X022649Y042912D01*
X022936Y043031D01*
X023156Y043251D01*
X023275Y043538D01*
X023275Y044449D01*
X023156Y044736D01*
X022936Y044956D01*
X022649Y045075D01*
X022338Y045075D01*
X022051Y044956D01*
X021994Y044899D01*
X021936Y044956D01*
X021649Y045075D01*
X021338Y045075D01*
X021051Y044956D01*
X021006Y044911D01*
X020940Y044962D01*
X020849Y045014D01*
X020752Y045054D01*
X020650Y045082D01*
X020546Y045095D01*
X020494Y045095D01*
X020494Y043994D01*
X020494Y043994D01*
X020494Y045095D01*
X020441Y045095D01*
X020337Y045082D01*
X020235Y045054D01*
X020138Y045014D01*
X020047Y044962D01*
X019964Y044898D01*
X019890Y044823D01*
X019826Y044740D01*
X019773Y044649D01*
X019733Y044552D01*
X019706Y044450D01*
X019692Y044346D01*
X019692Y043994D01*
X020494Y043994D01*
X020494Y043994D01*
X020494Y042892D01*
X020494Y043994D01*
X020494Y043994D01*
X019692Y043994D01*
X019692Y043641D01*
X019706Y043537D01*
X019733Y043435D01*
X019773Y043338D01*
X019826Y043247D01*
X019890Y043164D01*
X019964Y043090D01*
X020297Y042725D02*
X027456Y042725D01*
X027457Y043527D02*
X023270Y043527D01*
X023275Y044328D02*
X027458Y044328D01*
X027460Y045130D02*
X018555Y045130D01*
X018555Y044328D02*
X019692Y044328D01*
X020494Y044328D02*
X020494Y044328D01*
X020494Y043527D02*
X020494Y043527D01*
X019709Y043527D02*
X018555Y043527D01*
X018555Y042725D02*
X018577Y042725D01*
X023275Y040320D02*
X027451Y040320D01*
X027450Y039518D02*
X023267Y039518D01*
X020588Y038531D02*
X020588Y038531D01*
X019883Y037965D02*
X019883Y037965D01*
X019834Y037915D02*
X018555Y037915D01*
X018555Y037113D02*
X019606Y037113D01*
X019703Y037784D02*
X019703Y037784D01*
X019606Y036312D02*
X018555Y036312D01*
X018555Y035510D02*
X019607Y035510D01*
X019607Y034709D02*
X018555Y034709D01*
X018555Y033907D02*
X019608Y033907D01*
X019609Y033105D02*
X018555Y033105D01*
X018555Y032304D02*
X019609Y032304D01*
X020892Y032304D02*
X023122Y032304D01*
X022150Y033105D02*
X020892Y033105D01*
X020891Y033907D02*
X022174Y033907D01*
X019610Y031502D02*
X018555Y031502D01*
X018555Y030700D02*
X019610Y030700D01*
X020894Y029899D02*
X023232Y029899D01*
X023610Y028753D02*
X023365Y028507D01*
X023232Y028187D01*
X023232Y027840D01*
X023365Y027520D01*
X023610Y027275D01*
X023930Y027142D01*
X025057Y027142D01*
X025377Y027275D01*
X025623Y027520D01*
X025755Y027840D01*
X025755Y028187D01*
X025623Y028507D01*
X025377Y028753D01*
X025057Y028885D01*
X023930Y028885D01*
X023610Y028753D01*
X023277Y028295D02*
X021359Y028295D01*
X022161Y027494D02*
X023391Y027494D01*
X022962Y026692D02*
X026492Y026692D01*
X027293Y027494D02*
X025596Y027494D01*
X025710Y028295D02*
X027852Y028295D01*
X029135Y028295D02*
X033720Y028295D01*
X034167Y028295D02*
X034167Y028295D01*
X034613Y028295D02*
X041299Y028295D01*
X042061Y028295D02*
X042061Y028295D01*
X042822Y028295D02*
X044010Y028295D01*
X043660Y027494D02*
X042570Y027494D01*
X042061Y027494D02*
X042061Y027494D01*
X041552Y027494D02*
X041470Y027494D01*
X040709Y027494D02*
X040709Y027494D01*
X039947Y027494D02*
X034928Y027494D01*
X034167Y027494D02*
X034167Y027494D01*
X034167Y027665D02*
X034167Y027665D01*
X034167Y027665D01*
X034167Y026903D01*
X033851Y026903D01*
X033405Y027349D01*
X033405Y027665D01*
X034167Y027665D01*
X033405Y027494D02*
X032494Y027494D01*
X032494Y027494D01*
X032494Y028255D01*
X032809Y028255D01*
X033255Y027809D01*
X033255Y027494D01*
X032494Y027494D01*
X032494Y027494D01*
X032494Y028255D01*
X032178Y028255D01*
X031732Y027809D01*
X031732Y027494D01*
X032494Y027494D01*
X033255Y027494D01*
X033255Y027178D01*
X032809Y026732D01*
X032494Y026732D01*
X032494Y027494D01*
X032494Y027494D01*
X032494Y027494D01*
X029067Y027494D01*
X028306Y026692D02*
X033949Y026692D01*
X032494Y026732D02*
X032494Y027494D01*
X031732Y027494D01*
X031732Y027178D01*
X032178Y026732D01*
X032494Y026732D01*
X029135Y029097D02*
X043680Y029097D01*
X045273Y029097D02*
X045367Y029097D01*
X046409Y029899D02*
X047546Y029899D01*
X048946Y029899D02*
X052111Y029899D01*
X051348Y029097D02*
X050713Y029097D01*
X050546Y028295D02*
X050377Y028295D01*
X049610Y028295D02*
X044944Y028295D01*
X045293Y027494D02*
X049745Y027494D01*
X048943Y026692D02*
X046936Y026692D01*
X050639Y025890D02*
X057361Y025890D01*
X058637Y025890D02*
X083852Y025890D01*
X083852Y025089D02*
X073555Y025089D01*
X073713Y024287D02*
X083852Y024287D01*
X083775Y023485D02*
X070097Y023485D01*
X064409Y022684D02*
X058740Y022684D01*
X057257Y022684D02*
X056194Y022684D01*
X056313Y022803D02*
X056313Y023119D01*
X055552Y023119D01*
X055552Y023119D01*
X055552Y022357D01*
X055867Y022357D01*
X056313Y022803D01*
X056262Y023485D02*
X063055Y023485D01*
X058500Y021081D02*
X057737Y021081D01*
X057548Y021882D02*
X054190Y021882D01*
X054180Y021081D02*
X056594Y021081D01*
X057926Y020279D02*
X058852Y020279D01*
X058852Y019477D02*
X057969Y019477D01*
X060135Y017072D02*
X060872Y017072D01*
X060352Y016271D02*
X060173Y016271D01*
X060352Y015469D02*
X055821Y015469D01*
X055825Y015381D02*
X054994Y015381D01*
X054994Y015381D01*
X054994Y015381D01*
X054162Y015381D01*
X054162Y015326D01*
X054176Y015218D01*
X054205Y015113D01*
X054246Y015012D01*
X054301Y014918D01*
X054336Y014871D01*
X054306Y014840D01*
X054182Y014542D01*
X054182Y014219D01*
X054306Y013921D01*
X054534Y013693D01*
X054832Y013569D01*
X055155Y013569D01*
X055453Y013693D01*
X055682Y013921D01*
X055805Y014219D01*
X055805Y014542D01*
X055682Y014840D01*
X055651Y014871D01*
X055687Y014918D01*
X055741Y015012D01*
X055783Y015113D01*
X055811Y015218D01*
X055825Y015326D01*
X055825Y015381D01*
X055805Y016271D02*
X058814Y016271D01*
X060352Y014667D02*
X055753Y014667D01*
X055626Y013866D02*
X060352Y013866D01*
X060352Y013064D02*
X052056Y013064D01*
X052056Y013084D02*
X051936Y013375D01*
X051713Y013598D01*
X051422Y013718D01*
X051107Y013718D01*
X050816Y013598D01*
X050779Y013560D01*
X050601Y013738D01*
X050265Y013738D01*
X050265Y012927D01*
X050265Y012927D01*
X050265Y013738D01*
X049929Y013738D01*
X049453Y013263D01*
X049453Y012927D01*
X050265Y012927D01*
X050265Y012115D01*
X050601Y012115D01*
X050779Y012293D01*
X050816Y012256D01*
X051107Y012135D01*
X051422Y012135D01*
X051713Y012256D01*
X051936Y012478D01*
X052056Y012769D01*
X052056Y013084D01*
X054361Y013866D02*
X049135Y013866D01*
X049135Y014667D02*
X054234Y014667D01*
X054167Y015469D02*
X049135Y015469D01*
X049135Y016271D02*
X050120Y016271D01*
X050120Y016228D02*
X050242Y015932D01*
X050469Y015705D01*
X050765Y015582D01*
X051736Y015582D01*
X052032Y015705D01*
X052259Y015932D01*
X052382Y016228D01*
X052382Y016549D01*
X052259Y016845D01*
X052032Y017072D01*
X051736Y017195D01*
X050765Y017195D01*
X050469Y017072D01*
X050242Y016845D01*
X050120Y016549D01*
X050120Y016228D01*
X047852Y016271D02*
X033135Y016271D01*
X033135Y015469D02*
X047852Y015469D01*
X047474Y014667D02*
X047474Y014667D01*
X047048Y014667D02*
X045889Y014667D01*
X045118Y014667D02*
X043859Y014667D01*
X043967Y014623D02*
X043647Y014755D01*
X043300Y014755D01*
X042980Y014623D01*
X042735Y014377D01*
X042602Y014057D01*
X042602Y012930D01*
X042735Y012610D01*
X042980Y012365D01*
X043300Y012232D01*
X043647Y012232D01*
X043967Y012365D01*
X044213Y012610D01*
X044345Y012930D01*
X044345Y014057D01*
X044213Y014377D01*
X043967Y014623D01*
X044345Y013866D02*
X044632Y013866D01*
X044632Y013064D02*
X044345Y013064D01*
X042602Y013064D02*
X042375Y013064D01*
X042375Y012930D02*
X042375Y014057D01*
X042243Y014377D01*
X041997Y014623D01*
X041677Y014755D01*
X041330Y014755D01*
X041010Y014623D01*
X040765Y014377D01*
X040632Y014057D01*
X040632Y012930D01*
X040765Y012610D01*
X041010Y012365D01*
X041330Y012232D01*
X041677Y012232D01*
X041997Y012365D01*
X042243Y012610D01*
X042375Y012930D01*
X041750Y012262D02*
X043227Y012262D01*
X043720Y012262D02*
X044852Y012262D01*
X044852Y011461D02*
X028115Y011461D01*
X028115Y012262D02*
X029257Y012262D01*
X029750Y012262D02*
X031227Y012262D01*
X031720Y012262D02*
X033257Y012262D01*
X033750Y012262D02*
X035227Y012262D01*
X035300Y012232D02*
X035647Y012232D01*
X035967Y012365D01*
X036213Y012610D01*
X036345Y012930D01*
X036345Y014057D01*
X036213Y014377D01*
X035967Y014623D01*
X035647Y014755D01*
X035300Y014755D01*
X034980Y014623D01*
X034735Y014377D01*
X034602Y014057D01*
X034602Y012930D01*
X034735Y012610D01*
X034980Y012365D01*
X035300Y012232D01*
X035720Y012262D02*
X037257Y012262D01*
X037330Y012232D02*
X037677Y012232D01*
X037997Y012365D01*
X038243Y012610D01*
X038375Y012930D01*
X038375Y014057D01*
X038243Y014377D01*
X037997Y014623D01*
X037677Y014755D01*
X037330Y014755D01*
X037010Y014623D01*
X036765Y014377D01*
X036632Y014057D01*
X036632Y012930D01*
X036765Y012610D01*
X037010Y012365D01*
X037330Y012232D01*
X037750Y012262D02*
X039227Y012262D01*
X039300Y012232D02*
X039647Y012232D01*
X039967Y012365D01*
X040213Y012610D01*
X040345Y012930D01*
X040345Y014057D01*
X040213Y014377D01*
X039967Y014623D01*
X039647Y014755D01*
X039300Y014755D01*
X038980Y014623D01*
X038735Y014377D01*
X038602Y014057D01*
X038602Y012930D01*
X038735Y012610D01*
X038980Y012365D01*
X039300Y012232D01*
X039720Y012262D02*
X041257Y012262D01*
X040632Y013064D02*
X040345Y013064D01*
X040345Y013866D02*
X040632Y013866D01*
X041118Y014667D02*
X039859Y014667D01*
X039088Y014667D02*
X037889Y014667D01*
X037118Y014667D02*
X035859Y014667D01*
X035088Y014667D02*
X033889Y014667D01*
X034375Y013866D02*
X034602Y013866D01*
X034602Y013064D02*
X034375Y013064D01*
X032632Y013064D02*
X032345Y013064D01*
X030602Y013064D02*
X030375Y013064D01*
X030375Y013866D02*
X030602Y013866D01*
X030145Y014667D02*
X031088Y014667D01*
X031852Y015469D02*
X030145Y015469D01*
X030145Y016271D02*
X031852Y016271D01*
X031852Y017072D02*
X030724Y017072D01*
X031525Y017874D02*
X031852Y017874D01*
X033135Y017874D02*
X035321Y017874D01*
X035289Y017906D02*
X035549Y017646D01*
X035888Y017506D01*
X037141Y017506D01*
X037481Y017646D01*
X037741Y017906D01*
X037881Y018246D01*
X037881Y018614D01*
X037741Y018953D01*
X037481Y019213D01*
X037141Y019354D01*
X035888Y019354D01*
X035549Y019213D01*
X035289Y018953D01*
X035148Y018614D01*
X035148Y018246D01*
X035289Y017906D01*
X035174Y018676D02*
X033135Y018676D01*
X033135Y019477D02*
X039854Y019477D01*
X039775Y020279D02*
X033135Y020279D01*
X030512Y018676D02*
X023937Y018676D01*
X022948Y018676D02*
X021872Y018676D01*
X021873Y017874D02*
X029711Y017874D01*
X028939Y017072D02*
X021874Y017072D01*
X019867Y017072D02*
X018555Y017072D01*
X018555Y017874D02*
X019850Y017874D01*
X019443Y018468D02*
X019443Y019230D01*
X019443Y019230D01*
X019443Y019230D01*
X018681Y019230D01*
X018681Y018914D01*
X019127Y018468D01*
X019443Y018468D01*
X019443Y018676D02*
X019443Y018676D01*
X018920Y018676D02*
X018555Y018676D01*
X018555Y019477D02*
X018681Y019477D01*
X018801Y020279D02*
X018555Y020279D01*
X020152Y020743D02*
X020247Y020743D01*
X020562Y020743D01*
X020586Y020767D01*
X020587Y020308D01*
X020152Y020743D01*
X020247Y020743D02*
X020247Y021505D01*
X020247Y021505D01*
X020247Y022266D01*
X020562Y022266D01*
X020584Y022244D01*
X020581Y024790D01*
X020554Y024763D01*
X019940Y024763D01*
X019635Y025067D01*
X019635Y021970D01*
X019931Y022266D01*
X020247Y022266D01*
X020247Y021505D01*
X020247Y020743D01*
X020247Y021081D02*
X020247Y021081D01*
X020247Y021505D02*
X020247Y021505D01*
X020247Y021882D02*
X020247Y021882D01*
X020584Y022684D02*
X019635Y022684D01*
X019635Y023485D02*
X020583Y023485D01*
X020582Y024287D02*
X019635Y024287D01*
X023764Y025890D02*
X025852Y025890D01*
X029079Y024338D02*
X029935Y024338D01*
X029079Y024338D01*
X029079Y024338D01*
X029935Y024287D02*
X032293Y024287D01*
X032450Y024130D02*
X032450Y024130D01*
X032409Y023485D02*
X033732Y023485D01*
X033732Y023494D02*
X033732Y023178D01*
X034178Y022732D01*
X034494Y022732D01*
X034494Y023494D01*
X034494Y023494D01*
X034494Y023494D01*
X033732Y023494D01*
X034494Y023485D02*
X034494Y023485D01*
X034752Y022684D02*
X033109Y022684D01*
X025937Y021205D02*
X025937Y020331D01*
X024121Y020331D01*
X024135Y020366D01*
X024135Y021262D01*
X024412Y021147D01*
X024745Y021147D01*
X025052Y021275D01*
X025071Y021294D01*
X025102Y021270D01*
X025199Y021214D01*
X025303Y021171D01*
X025411Y021142D01*
X025523Y021127D01*
X025579Y021127D01*
X025635Y021127D01*
X025746Y021142D01*
X025854Y021171D01*
X025937Y021205D01*
X025937Y021081D02*
X024135Y021081D01*
X025579Y021127D02*
X025579Y022338D01*
X025579Y021127D01*
X025579Y021882D02*
X025579Y021882D01*
X025579Y022338D02*
X025579Y022338D01*
X037708Y017874D02*
X041308Y017874D01*
X041301Y017883D02*
X041367Y017800D01*
X041442Y017725D01*
X041525Y017659D01*
X041615Y017602D01*
X041710Y017556D01*
X041810Y017521D01*
X041914Y017497D01*
X042019Y017486D01*
X042515Y017486D01*
X043010Y017486D01*
X043116Y017497D01*
X043219Y017521D01*
X043319Y017556D01*
X043415Y017602D01*
X043504Y017659D01*
X043587Y017725D01*
X043662Y017800D01*
X043728Y017883D01*
X043785Y017972D01*
X043831Y018068D01*
X043866Y018168D01*
X043889Y018271D01*
X043901Y018377D01*
X043901Y018430D01*
X042515Y018430D01*
X042515Y018430D01*
X042515Y017486D01*
X042515Y018430D01*
X042515Y018430D01*
X042515Y018430D01*
X041128Y018430D01*
X041128Y018377D01*
X041140Y018271D01*
X041164Y018168D01*
X041199Y018068D01*
X041245Y017972D01*
X041301Y017883D01*
X041160Y018676D02*
X037856Y018676D01*
X042515Y017874D02*
X042515Y017874D01*
X043721Y017874D02*
X047852Y017874D01*
X047852Y018676D02*
X043869Y018676D01*
X046133Y019477D02*
X047189Y019477D01*
X049135Y018676D02*
X050185Y018676D01*
X050269Y017874D02*
X049135Y017874D01*
X049135Y017072D02*
X050470Y017072D01*
X052032Y017072D02*
X054543Y017072D01*
X054182Y016271D02*
X052382Y016271D01*
X047852Y017072D02*
X033135Y017072D01*
X028862Y016271D02*
X021875Y016271D01*
X021876Y015469D02*
X028862Y015469D01*
X028862Y014667D02*
X027859Y014667D01*
X027088Y014667D02*
X025889Y014667D01*
X025997Y014623D02*
X025677Y014755D01*
X025330Y014755D01*
X025010Y014623D01*
X024765Y014377D01*
X024632Y014057D01*
X024632Y012930D01*
X024765Y012610D01*
X025010Y012365D01*
X025330Y012232D01*
X025677Y012232D01*
X025997Y012365D01*
X026243Y012610D01*
X026375Y012930D01*
X026375Y014057D01*
X026243Y014377D01*
X025997Y014623D01*
X026375Y013866D02*
X026602Y013866D01*
X026602Y013064D02*
X026375Y013064D01*
X024632Y013064D02*
X021879Y013064D01*
X021878Y013866D02*
X024632Y013866D01*
X025118Y014667D02*
X021877Y014667D01*
X020594Y014667D02*
X018555Y014667D01*
X018555Y013866D02*
X020595Y013866D01*
X020596Y013064D02*
X018555Y013064D01*
X018555Y012262D02*
X020597Y012262D01*
X020598Y011461D02*
X018555Y011461D01*
X018555Y010659D02*
X020725Y010659D01*
X021644Y009857D02*
X018555Y009857D01*
X021679Y009843D02*
X021679Y009843D01*
X021934Y009843D02*
X021934Y009843D01*
X021881Y011461D02*
X026553Y011461D01*
X026832Y012262D02*
X025750Y012262D01*
X025257Y012262D02*
X021880Y012262D01*
X026647Y009857D02*
X045223Y009857D01*
X044852Y010659D02*
X027566Y010659D01*
X028345Y013064D02*
X028632Y013064D01*
X028632Y013866D02*
X028345Y013866D01*
X036345Y013866D02*
X036632Y013866D01*
X036632Y013064D02*
X036345Y013064D01*
X038375Y013064D02*
X038602Y013064D01*
X038602Y013866D02*
X038375Y013866D01*
X041889Y014667D02*
X043088Y014667D01*
X042602Y013866D02*
X042375Y013866D01*
X046375Y013866D02*
X046582Y013866D01*
X046582Y013494D02*
X046582Y013045D01*
X046597Y012929D01*
X046628Y012816D01*
X046672Y012709D01*
X046731Y012607D01*
X046802Y012515D01*
X046885Y012432D01*
X046977Y012361D01*
X047079Y012302D01*
X047186Y012258D01*
X047299Y012227D01*
X047415Y012212D01*
X047474Y012212D01*
X047474Y013494D01*
X047474Y013494D01*
X047474Y013494D01*
X046582Y013494D01*
X046582Y013064D02*
X046375Y013064D01*
X047474Y013064D02*
X047474Y013064D01*
X047474Y013866D02*
X047474Y013866D01*
X049135Y013064D02*
X049453Y013064D01*
X049453Y012927D02*
X049453Y012591D01*
X049929Y012115D01*
X050265Y012115D01*
X050265Y012927D01*
X050265Y012927D01*
X050265Y012927D01*
X049453Y012927D01*
X049250Y012262D02*
X049781Y012262D01*
X050265Y012262D02*
X050265Y012262D01*
X050748Y012262D02*
X050810Y012262D01*
X051720Y012262D02*
X053814Y012262D01*
X050265Y013064D02*
X050265Y013064D01*
X047852Y012262D02*
X047772Y012262D01*
X047474Y012262D02*
X047474Y012262D01*
X047175Y012262D02*
X046135Y012262D01*
X046135Y011461D02*
X048237Y011461D01*
X046775Y010659D02*
X046236Y010659D01*
X061589Y011461D02*
X072352Y011461D01*
X072352Y012262D02*
X061635Y012262D01*
X061635Y013064D02*
X072352Y013064D01*
X073635Y013064D02*
X091119Y013064D01*
X092862Y013064D02*
X093069Y013064D01*
X093960Y013064D02*
X093960Y013064D01*
X093960Y012697D02*
X093960Y012697D01*
X094852Y012697D01*
X094852Y012248D01*
X094837Y012132D01*
X094806Y012020D01*
X094762Y011912D01*
X094703Y011810D01*
X094632Y011718D01*
X094550Y011635D01*
X094457Y011564D01*
X094356Y011505D01*
X094248Y011461D01*
X096720Y011461D01*
X096720Y012262D02*
X094852Y012262D01*
X094248Y011461D02*
X094135Y011430D01*
X094019Y011415D01*
X093960Y011415D01*
X093902Y011415D01*
X093786Y011430D01*
X093673Y011461D01*
X093960Y011461D02*
X093960Y011461D01*
X094852Y013064D02*
X099852Y013064D01*
X099501Y012948D02*
X099501Y011846D01*
X099501Y012948D01*
X099501Y012262D02*
X099501Y012262D01*
X099501Y011846D02*
X099501Y011846D01*
X099501Y011461D02*
X099501Y011461D01*
X102206Y012346D02*
X102206Y012346D01*
X103307Y012346D01*
X103307Y012398D01*
X103294Y012502D01*
X103266Y012604D01*
X103226Y012701D01*
X103174Y012792D01*
X103123Y012858D01*
X103168Y012903D01*
X103287Y013190D01*
X103287Y013501D01*
X103168Y013788D01*
X103111Y013846D01*
X103168Y013903D01*
X103287Y014190D01*
X103287Y014501D01*
X103168Y014788D01*
X103135Y014821D01*
X103135Y015608D01*
X103173Y015700D01*
X103173Y015830D01*
X109090Y015810D01*
X109515Y015383D01*
X109515Y012949D01*
X109505Y011743D01*
X109504Y011742D01*
X109504Y011616D01*
X109502Y011490D01*
X109503Y011488D01*
X109503Y011487D01*
X109551Y011370D01*
X109598Y011253D01*
X109599Y011252D01*
X109600Y011251D01*
X109688Y011161D01*
X109777Y011071D01*
X109778Y011070D01*
X110210Y010635D01*
X103647Y010635D01*
X103673Y010700D01*
X103673Y011288D01*
X103600Y011465D01*
X103465Y011600D01*
X103288Y011673D01*
X103221Y011673D01*
X103094Y011801D01*
X103110Y011816D01*
X103174Y011899D01*
X103226Y011990D01*
X103266Y012087D01*
X103294Y012189D01*
X103307Y012293D01*
X103307Y012346D01*
X102206Y012346D01*
X103303Y012262D02*
X105232Y012262D01*
X105232Y012178D02*
X105431Y011980D01*
X105252Y011801D01*
X105252Y011187D01*
X105687Y010752D01*
X106301Y010752D01*
X106735Y011187D01*
X106735Y011801D01*
X106557Y011980D01*
X106755Y012178D01*
X106755Y012494D01*
X106755Y012809D01*
X106309Y013255D01*
X105994Y013255D01*
X105994Y012494D01*
X106755Y012494D01*
X105994Y012494D01*
X105994Y012494D01*
X105994Y012494D01*
X105994Y013255D01*
X105678Y013255D01*
X105232Y012809D01*
X105232Y012494D01*
X105994Y012494D01*
X105994Y012494D01*
X105232Y012494D01*
X105232Y012178D01*
X105252Y011461D02*
X103602Y011461D01*
X103657Y010659D02*
X110186Y010659D01*
X109235Y011187D02*
X109235Y011801D01*
X109042Y011994D01*
X109235Y012187D01*
X109235Y012801D01*
X108801Y013235D01*
X108187Y013235D01*
X107752Y012801D01*
X107752Y012187D01*
X107945Y011994D01*
X107752Y011801D01*
X107752Y011187D01*
X108187Y010752D01*
X108801Y010752D01*
X109235Y011187D01*
X109235Y011461D02*
X109514Y011461D01*
X109509Y012262D02*
X109235Y012262D01*
X107752Y012262D02*
X106755Y012262D01*
X106735Y011461D02*
X107752Y011461D01*
X108015Y013064D02*
X106500Y013064D01*
X105994Y013064D02*
X105994Y013064D01*
X105487Y013064D02*
X103235Y013064D01*
X103131Y013866D02*
X109515Y013866D01*
X109515Y014667D02*
X103218Y014667D01*
X103135Y015469D02*
X109429Y015469D01*
X110442Y016271D02*
X110843Y016271D01*
X110701Y016010D02*
X110701Y016010D01*
X110798Y015469D02*
X110846Y015469D01*
X112129Y015469D02*
X113701Y015469D01*
X114286Y015469D02*
X114649Y015469D01*
X114994Y015469D02*
X114994Y015469D01*
X114994Y015392D02*
X114994Y016494D01*
X114994Y016494D01*
X114994Y015392D01*
X115339Y015469D02*
X115611Y015469D01*
X116376Y015469D02*
X116701Y015469D01*
X117286Y015469D02*
X118454Y015469D01*
X119256Y014667D02*
X112131Y014667D01*
X110848Y014667D02*
X110798Y014667D01*
X110798Y013866D02*
X110851Y013866D01*
X110851Y013863D02*
X110851Y013863D01*
X110949Y013627D02*
X110949Y013627D01*
X110799Y013064D02*
X111514Y013064D01*
X111629Y012950D02*
X111629Y012950D01*
X110792Y012262D02*
X119212Y012262D01*
X117994Y012392D02*
X117994Y013494D01*
X117994Y013494D01*
X117994Y012392D01*
X117994Y013064D02*
X117994Y013064D01*
X118785Y013064D02*
X119260Y013064D01*
X119352Y013866D02*
X118793Y013866D01*
X117994Y013866D02*
X117994Y013866D01*
X114994Y016271D02*
X114994Y016271D01*
X114994Y017072D02*
X114994Y017072D01*
X114521Y017874D02*
X116352Y017874D01*
X116352Y018676D02*
X113719Y018676D01*
X112706Y017874D02*
X112673Y017874D01*
X113263Y017072D02*
X112049Y017072D01*
X112124Y016892D02*
X112124Y016892D01*
X112126Y016271D02*
X113212Y016271D01*
X109515Y013064D02*
X108972Y013064D01*
X113494Y011461D02*
X113494Y011461D01*
X121990Y016271D02*
X121990Y016271D01*
X122791Y016271D02*
X123752Y016271D01*
X123823Y017072D02*
X122360Y017072D01*
X121990Y017072D02*
X121990Y017072D01*
X121619Y017072D02*
X121314Y017072D01*
X120665Y017072D02*
X120314Y017072D01*
X116352Y019477D02*
X115744Y019477D01*
X113645Y020154D02*
X106379Y020138D01*
X105635Y020880D01*
X105635Y020979D01*
X105639Y020983D01*
X105713Y021160D01*
X105713Y021352D01*
X111228Y021352D01*
X111450Y021130D01*
X111630Y020950D01*
X111866Y020852D01*
X113635Y020852D01*
X113602Y020773D01*
X113575Y020671D01*
X113561Y020567D01*
X113561Y020515D01*
X114663Y020515D01*
X114663Y020515D01*
X114663Y020515D01*
X113561Y020515D01*
X113561Y020462D01*
X113575Y020358D01*
X113602Y020256D01*
X113642Y020159D01*
X113645Y020154D01*
X113596Y020279D02*
X106238Y020279D01*
X104450Y020250D02*
X104450Y020250D01*
X104438Y020279D02*
X102919Y020279D01*
X101906Y019477D02*
X100682Y019477D01*
X099994Y019477D02*
X099994Y019477D01*
X099994Y019753D02*
X099994Y019135D01*
X099994Y019135D01*
X099994Y019994D01*
X099994Y019994D01*
X099994Y019753D01*
X099994Y020279D02*
X099994Y020279D01*
X100753Y020279D02*
X101104Y020279D01*
X102135Y021081D02*
X104308Y021081D01*
X104352Y020741D02*
X104352Y020741D01*
X104352Y020486D02*
X104352Y020486D01*
X105680Y021081D02*
X111500Y021081D01*
X111450Y021130D02*
X111450Y021130D01*
X103275Y021882D02*
X102135Y021882D01*
X100821Y022684D02*
X098167Y022684D01*
X098079Y023485D02*
X100908Y023485D01*
X096095Y026692D02*
X090632Y026692D01*
X090662Y027494D02*
X095385Y027494D01*
X095352Y028295D02*
X090601Y028295D01*
X089317Y028295D02*
X088135Y028295D01*
X088135Y027494D02*
X089250Y027494D01*
X089279Y026692D02*
X088135Y026692D01*
X088135Y025890D02*
X114626Y025890D01*
X114626Y025089D02*
X088135Y025089D01*
X086852Y025089D02*
X086135Y025089D01*
X086798Y025890D02*
X086852Y025890D01*
X086775Y024287D02*
X086135Y024287D01*
X083852Y026692D02*
X056174Y026692D01*
X056293Y026812D02*
X055859Y026377D01*
X055245Y026377D01*
X054810Y026812D01*
X054810Y027426D01*
X055245Y027860D01*
X055859Y027860D01*
X056293Y027426D01*
X056293Y026812D01*
X056225Y027494D02*
X083852Y027494D01*
X084388Y028295D02*
X073377Y028295D01*
X073327Y028275D02*
X073504Y028348D01*
X073639Y028483D01*
X073713Y028660D01*
X073713Y029327D01*
X073639Y029504D01*
X073504Y029639D01*
X073327Y029713D01*
X072660Y029713D01*
X072483Y029639D01*
X072479Y029635D01*
X056008Y029635D01*
X056004Y029639D01*
X055827Y029713D01*
X055160Y029713D01*
X054983Y029639D01*
X054848Y029504D01*
X054775Y029327D01*
X054775Y028660D01*
X054848Y028483D01*
X054983Y028348D01*
X055160Y028275D01*
X055827Y028275D01*
X056004Y028348D01*
X056008Y028352D01*
X072479Y028352D01*
X072483Y028348D01*
X072660Y028275D01*
X073327Y028275D01*
X072610Y028295D02*
X055877Y028295D01*
X055110Y028295D02*
X053044Y028295D01*
X052792Y027852D02*
X052357Y027418D01*
X052357Y026804D01*
X052792Y026369D01*
X053406Y026369D01*
X053840Y026804D01*
X053840Y027418D01*
X053406Y027852D01*
X052792Y027852D01*
X052433Y027494D02*
X052243Y027494D01*
X052469Y026692D02*
X051441Y026692D01*
X053729Y026692D02*
X054930Y026692D01*
X054878Y027494D02*
X053764Y027494D01*
X053785Y029097D02*
X054775Y029097D01*
X053877Y029899D02*
X084852Y029899D01*
X084852Y029097D02*
X073713Y029097D01*
X084852Y033907D02*
X059800Y033907D01*
X057989Y033907D02*
X057989Y033907D01*
X057989Y033979D02*
X057989Y033147D01*
X057989Y033979D01*
X057989Y033979D01*
X057989Y034709D02*
X057989Y034709D01*
X058388Y034709D02*
X058630Y034709D01*
X059347Y034709D02*
X084852Y034709D01*
X084852Y035510D02*
X051066Y035510D01*
X051066Y034709D02*
X052326Y034709D01*
X053662Y034709D02*
X056630Y034709D01*
X057347Y034709D02*
X057590Y034709D01*
X055305Y036158D02*
X055305Y036494D01*
X055305Y036830D01*
X054830Y037305D01*
X054494Y037305D01*
X054494Y036494D01*
X055305Y036494D01*
X054494Y036494D01*
X054494Y036494D01*
X054494Y036494D01*
X054494Y037305D01*
X054158Y037305D01*
X053980Y037127D01*
X053942Y037165D01*
X053651Y037285D01*
X053336Y037285D01*
X053045Y037165D01*
X052823Y036942D01*
X052702Y036651D01*
X052702Y036336D01*
X052823Y036045D01*
X053045Y035823D01*
X053336Y035702D01*
X053651Y035702D01*
X053942Y035823D01*
X053980Y035860D01*
X054158Y035682D01*
X054494Y035682D01*
X054830Y035682D01*
X055305Y036158D01*
X055305Y036312D02*
X084852Y036312D01*
X084852Y037113D02*
X057193Y037113D01*
X057165Y037045D02*
X057285Y037336D01*
X057285Y037651D01*
X057165Y037942D01*
X057127Y037980D01*
X057305Y038158D01*
X057305Y038494D01*
X057305Y038830D01*
X056830Y039305D01*
X056494Y039305D01*
X056494Y038494D01*
X056494Y038494D01*
X057305Y038494D01*
X056494Y038494D01*
X056494Y038494D01*
X056494Y039305D01*
X056158Y039305D01*
X055682Y038830D01*
X055682Y038494D01*
X056494Y038494D01*
X056494Y038494D01*
X055682Y038494D01*
X055682Y038158D01*
X055860Y037980D01*
X055823Y037942D01*
X055702Y037651D01*
X055702Y037336D01*
X055823Y037045D01*
X056045Y036823D01*
X056336Y036702D01*
X056651Y036702D01*
X056942Y036823D01*
X057165Y037045D01*
X057176Y037915D02*
X084852Y037915D01*
X084852Y038717D02*
X057305Y038717D01*
X056494Y038717D02*
X056494Y038717D01*
X055682Y038717D02*
X050316Y038717D01*
X049671Y038717D02*
X045794Y038717D01*
X046435Y039518D02*
X084852Y039518D01*
X084852Y040320D02*
X073437Y040320D01*
X072551Y040320D02*
X057216Y040320D01*
X057178Y040282D02*
X057405Y040509D01*
X057527Y040805D01*
X057527Y041776D01*
X057405Y042072D01*
X057178Y042299D01*
X056881Y042422D01*
X056561Y042422D01*
X056264Y042299D01*
X056037Y042072D01*
X055915Y041776D01*
X055915Y040805D01*
X056037Y040509D01*
X056264Y040282D01*
X056561Y040160D01*
X056881Y040160D01*
X057178Y040282D01*
X057527Y041122D02*
X070571Y041122D01*
X069777Y041923D02*
X057466Y041923D01*
X055976Y041923D02*
X055498Y041923D01*
X055559Y041776D02*
X055436Y042072D01*
X055209Y042299D01*
X054913Y042422D01*
X054592Y042422D01*
X054296Y042299D01*
X054069Y042072D01*
X053946Y041776D01*
X053946Y040805D01*
X054069Y040509D01*
X054296Y040282D01*
X054592Y040160D01*
X054913Y040160D01*
X055209Y040282D01*
X055436Y040509D01*
X055559Y040805D01*
X055559Y041776D01*
X055559Y041122D02*
X055915Y041122D01*
X056226Y040320D02*
X055247Y040320D01*
X054258Y040320D02*
X052800Y040320D01*
X052805Y040332D02*
X052805Y040655D01*
X052682Y040953D01*
X052651Y040984D01*
X052687Y041031D01*
X052741Y041125D01*
X052783Y041226D01*
X052811Y041331D01*
X052825Y041439D01*
X052825Y041494D01*
X051994Y041494D01*
X051994Y041494D01*
X051994Y041494D01*
X051162Y041494D01*
X051162Y041439D01*
X051176Y041331D01*
X051205Y041226D01*
X051246Y041125D01*
X051301Y041031D01*
X051336Y040984D01*
X051306Y040953D01*
X051182Y040655D01*
X051182Y040332D01*
X051306Y040034D01*
X051534Y039806D01*
X051832Y039682D01*
X052155Y039682D01*
X052453Y039806D01*
X052682Y040034D01*
X052805Y040332D01*
X052739Y041122D02*
X053946Y041122D01*
X054007Y041923D02*
X052706Y041923D01*
X051282Y041923D02*
X046633Y041923D01*
X046634Y041122D02*
X051248Y041122D01*
X051187Y040320D02*
X046635Y040320D01*
X045352Y040320D02*
X042869Y040320D01*
X042977Y040365D02*
X043223Y040610D01*
X043355Y040930D01*
X043355Y042057D01*
X043223Y042377D01*
X042977Y042623D01*
X042657Y042755D01*
X042310Y042755D01*
X041990Y042623D01*
X041745Y042377D01*
X041612Y042057D01*
X041612Y040930D01*
X041745Y040610D01*
X041990Y040365D01*
X042310Y040232D01*
X042657Y040232D01*
X042977Y040365D01*
X043355Y041122D02*
X045351Y041122D01*
X045350Y041923D02*
X043355Y041923D01*
X041612Y041923D02*
X041385Y041923D01*
X041385Y042057D02*
X041385Y040930D01*
X041253Y040610D01*
X041007Y040365D01*
X040687Y040232D01*
X040340Y040232D01*
X040020Y040365D01*
X039775Y040610D01*
X039642Y040930D01*
X039642Y042057D01*
X039775Y042377D01*
X040020Y042623D01*
X040340Y042755D01*
X040687Y042755D01*
X041007Y042623D01*
X041253Y042377D01*
X041385Y042057D01*
X040760Y042725D02*
X042237Y042725D01*
X042730Y042725D02*
X045487Y042725D01*
X046287Y043527D02*
X030135Y043527D01*
X030135Y042725D02*
X036267Y042725D01*
X036340Y042755D02*
X036020Y042623D01*
X035775Y042377D01*
X035642Y042057D01*
X035642Y040930D01*
X035775Y040610D01*
X036020Y040365D01*
X036340Y040232D01*
X036687Y040232D01*
X037007Y040365D01*
X037253Y040610D01*
X037385Y040930D01*
X037385Y042057D01*
X037253Y042377D01*
X037007Y042623D01*
X036687Y042755D01*
X036340Y042755D01*
X036760Y042725D02*
X038237Y042725D01*
X038310Y042755D02*
X037990Y042623D01*
X037745Y042377D01*
X037612Y042057D01*
X037612Y040930D01*
X037745Y040610D01*
X037990Y040365D01*
X038310Y040232D01*
X038657Y040232D01*
X038977Y040365D01*
X039223Y040610D01*
X039355Y040930D01*
X039355Y042057D01*
X039223Y042377D01*
X038977Y042623D01*
X038657Y042755D01*
X038310Y042755D01*
X038730Y042725D02*
X040267Y042725D01*
X039642Y041923D02*
X039355Y041923D01*
X039355Y041122D02*
X039642Y041122D01*
X040128Y040320D02*
X038869Y040320D01*
X038098Y040320D02*
X036899Y040320D01*
X036128Y040320D02*
X030135Y040320D01*
X030135Y041122D02*
X035642Y041122D01*
X035642Y041923D02*
X030135Y041923D01*
X030135Y039518D02*
X044792Y039518D01*
X044151Y038717D02*
X042562Y038717D01*
X042612Y038667D02*
X042178Y039101D01*
X041564Y039101D01*
X041129Y038667D01*
X041129Y038053D01*
X041564Y037618D01*
X042178Y037618D01*
X042612Y038053D01*
X042612Y038667D01*
X041179Y038717D02*
X040562Y038717D01*
X040612Y038667D02*
X040178Y039101D01*
X039564Y039101D01*
X039246Y038783D01*
X038878Y039151D01*
X038264Y039151D01*
X037829Y038717D01*
X037829Y038103D01*
X038264Y037668D01*
X038878Y037668D01*
X039196Y037986D01*
X039564Y037618D01*
X040178Y037618D01*
X040612Y038053D01*
X040612Y038667D01*
X037829Y038717D02*
X037312Y038717D01*
X036878Y039151D01*
X036264Y039151D01*
X035829Y038717D01*
X035829Y038103D01*
X036264Y037668D01*
X036878Y037668D01*
X037312Y038103D01*
X037312Y038717D01*
X035829Y038717D02*
X030135Y038717D01*
X030135Y037915D02*
X036017Y037915D01*
X037125Y037915D02*
X038017Y037915D01*
X039125Y037915D02*
X039267Y037915D01*
X040475Y037915D02*
X041267Y037915D01*
X042475Y037915D02*
X043311Y037915D01*
X043121Y036770D02*
X043121Y036489D01*
X039494Y036489D01*
X039494Y036494D01*
X039494Y036489D02*
X034841Y036489D01*
X034217Y037113D02*
X030135Y037113D01*
X031065Y036312D02*
X033958Y036312D01*
X033487Y035510D02*
X033487Y035510D01*
X032879Y035510D02*
X032728Y035510D01*
X033487Y034709D02*
X033487Y034709D01*
X031569Y035510D02*
X030804Y035510D01*
X030743Y034709D02*
X031333Y034709D01*
X038082Y035510D02*
X039466Y035510D01*
X039233Y034709D02*
X038318Y034709D01*
X041386Y034709D02*
X041386Y034709D01*
X042725Y034916D02*
X043121Y035511D01*
X043121Y036489D01*
X043121Y036770D02*
X047994Y036770D01*
X049994Y034994D01*
X048922Y034709D02*
X046216Y034709D01*
X045983Y035510D02*
X046790Y035510D01*
X044820Y035510D02*
X044645Y035510D01*
X043394Y033767D02*
X043394Y032916D01*
X043394Y033767D01*
X043394Y033105D02*
X043394Y033105D01*
X043394Y032916D02*
X043394Y032916D01*
X047615Y032304D02*
X047704Y032304D01*
X048788Y032304D02*
X051918Y032304D01*
X054069Y032304D02*
X054372Y032304D01*
X053951Y031502D02*
X055575Y031502D01*
X054494Y035682D02*
X054494Y036494D01*
X054494Y036494D01*
X054494Y035682D01*
X054494Y036312D02*
X054494Y036312D01*
X054494Y037113D02*
X054494Y037113D01*
X055022Y037113D02*
X055794Y037113D01*
X055811Y037915D02*
X050785Y037915D01*
X050805Y037113D02*
X052994Y037113D01*
X052712Y036312D02*
X050460Y036312D01*
X049994Y036312D02*
X049994Y036312D01*
X049182Y037113D02*
X048937Y037113D01*
X049202Y037915D02*
X045152Y037915D01*
X042098Y040320D02*
X040899Y040320D01*
X041385Y041122D02*
X041612Y041122D01*
X037612Y041122D02*
X037385Y041122D01*
X037385Y041923D02*
X037612Y041923D01*
X027739Y045868D02*
X027739Y045868D01*
X027803Y045932D02*
X018555Y045932D01*
X027460Y045197D02*
X027460Y045197D01*
X028274Y046401D02*
X028274Y046401D01*
X029657Y031130D02*
X029657Y031130D01*
X029213Y029899D02*
X038429Y029899D01*
X027852Y029097D02*
X020895Y029097D01*
X025755Y029899D02*
X027775Y029899D01*
X053773Y023485D02*
X054841Y023485D01*
X054790Y023119D02*
X054790Y022803D01*
X055236Y022357D01*
X055552Y022357D01*
X055552Y023119D01*
X055552Y023119D01*
X055552Y023119D01*
X054790Y023119D01*
X054910Y022684D02*
X053721Y022684D01*
X055552Y022684D02*
X055552Y022684D01*
X061885Y016271D02*
X064208Y016271D01*
X064321Y015469D02*
X061635Y015469D01*
X073635Y014667D02*
X076260Y014667D01*
X076275Y013866D02*
X073635Y013866D01*
X073635Y012262D02*
X076701Y012262D01*
X076999Y012262D02*
X076999Y012262D01*
X077297Y012262D02*
X077701Y012262D01*
X077999Y012262D02*
X077999Y012262D01*
X078297Y012262D02*
X078701Y012262D01*
X078999Y012262D02*
X078999Y012262D01*
X079297Y012262D02*
X079701Y012262D01*
X079999Y012262D02*
X079999Y012262D01*
X080297Y012262D02*
X080701Y012262D01*
X080999Y012262D02*
X080999Y012262D01*
X081297Y012262D02*
X081701Y012262D01*
X081999Y012262D02*
X081999Y012262D01*
X082297Y012262D02*
X082701Y012262D01*
X082999Y012262D02*
X082999Y012262D01*
X083297Y012262D02*
X083701Y012262D01*
X083999Y012262D02*
X083999Y012262D01*
X084297Y012262D02*
X084701Y012262D01*
X084999Y012262D02*
X084999Y012262D01*
X085297Y012262D02*
X085701Y012262D01*
X084999Y011461D02*
X084999Y011461D01*
X083999Y011461D02*
X083999Y011461D01*
X082999Y011461D02*
X082999Y011461D01*
X081999Y011461D02*
X081999Y011461D01*
X080999Y011461D02*
X080999Y011461D01*
X079999Y011461D02*
X079999Y011461D01*
X078999Y011461D02*
X078999Y011461D01*
X077999Y011461D02*
X077999Y011461D01*
X076999Y011461D02*
X076999Y011461D01*
X076240Y011461D02*
X073635Y011461D01*
X073943Y010659D02*
X076347Y010659D01*
X073157Y009630D02*
X073157Y009630D01*
X072930Y009857D02*
X072013Y009857D01*
X072213Y010659D02*
X072352Y010659D01*
X086650Y010659D02*
X102331Y010659D01*
X125995Y012262D02*
X126852Y012262D01*
X126852Y013064D02*
X126365Y013064D01*
X127932Y021250D02*
X127932Y046432D01*
X127281Y046432D01*
X127412Y046378D01*
X127620Y046170D01*
X127733Y045898D01*
X127733Y045089D01*
X127620Y044818D01*
X127412Y044610D01*
X127390Y044600D01*
X127357Y044568D01*
X126239Y043450D01*
X126003Y043352D01*
X120991Y043352D01*
X121075Y043149D01*
X121075Y042838D01*
X120956Y042551D01*
X120899Y042494D01*
X120956Y042436D01*
X121075Y042149D01*
X121075Y041838D01*
X120956Y041551D01*
X120911Y041506D01*
X120962Y041440D01*
X121014Y041349D01*
X121054Y041252D01*
X121082Y041150D01*
X121095Y041046D01*
X121095Y040994D01*
X119994Y040994D01*
X119994Y040994D01*
X121095Y040994D01*
X121095Y040941D01*
X121082Y040837D01*
X121054Y040735D01*
X121014Y040638D01*
X120962Y040547D01*
X120898Y040464D01*
X120823Y040390D01*
X120740Y040326D01*
X120649Y040273D01*
X120552Y040233D01*
X120450Y040206D01*
X120346Y040192D01*
X119994Y040192D01*
X119994Y040994D01*
X119994Y040994D01*
X119994Y040994D01*
X118892Y040994D01*
X118892Y041046D01*
X118906Y041150D01*
X118933Y041252D01*
X118973Y041349D01*
X119026Y041440D01*
X119076Y041506D01*
X119031Y041551D01*
X118912Y041838D01*
X118912Y042149D01*
X119031Y042436D01*
X119088Y042494D01*
X119031Y042551D01*
X118912Y042838D01*
X118912Y043149D01*
X118996Y043352D01*
X117491Y043352D01*
X117575Y043149D01*
X117575Y042838D01*
X117456Y042551D01*
X117399Y042494D01*
X117456Y042436D01*
X117575Y042149D01*
X117575Y041838D01*
X117456Y041551D01*
X117411Y041506D01*
X117462Y041440D01*
X117514Y041349D01*
X117554Y041252D01*
X117582Y041150D01*
X117595Y041046D01*
X117595Y040994D01*
X116494Y040994D01*
X116494Y040994D01*
X117595Y040994D01*
X117595Y040941D01*
X117582Y040837D01*
X117554Y040735D01*
X117514Y040638D01*
X117462Y040547D01*
X117398Y040464D01*
X117323Y040390D01*
X117240Y040326D01*
X117149Y040273D01*
X117052Y040233D01*
X116950Y040206D01*
X116846Y040192D01*
X116494Y040192D01*
X116494Y040994D01*
X116494Y040994D01*
X116494Y040994D01*
X115392Y040994D01*
X115392Y041046D01*
X115406Y041150D01*
X115433Y041252D01*
X115473Y041349D01*
X115526Y041440D01*
X115576Y041506D01*
X115531Y041551D01*
X115412Y041838D01*
X115412Y042149D01*
X115531Y042436D01*
X115588Y042494D01*
X115531Y042551D01*
X115412Y042838D01*
X115412Y043149D01*
X115496Y043352D01*
X113390Y043352D01*
X113213Y042997D01*
X113213Y042660D01*
X113139Y042483D01*
X113004Y042348D01*
X112827Y042275D01*
X112160Y042275D01*
X111983Y042348D01*
X111848Y042483D01*
X111775Y042660D01*
X111775Y043327D01*
X111848Y043504D01*
X111983Y043639D01*
X112130Y043700D01*
X112410Y044260D01*
X112448Y044352D01*
X099967Y044352D01*
X099635Y044021D01*
X099635Y043743D01*
X099697Y043753D01*
X099994Y043753D01*
X099994Y042994D01*
X099994Y042994D01*
X100753Y042994D01*
X100753Y043291D01*
X100740Y043369D01*
X100716Y043444D01*
X100680Y043514D01*
X100634Y043578D01*
X100578Y043634D01*
X100514Y043680D01*
X100444Y043716D01*
X100369Y043740D01*
X100291Y043753D01*
X099994Y043753D01*
X099994Y042994D01*
X099994Y042994D01*
X100753Y042994D01*
X100753Y042697D01*
X100740Y042619D01*
X100716Y042544D01*
X100680Y042473D01*
X100634Y042409D01*
X100631Y042407D01*
X100676Y042330D01*
X100714Y042238D01*
X100740Y042142D01*
X100753Y042043D01*
X100753Y041994D01*
X099994Y041994D01*
X099994Y041994D01*
X099994Y041994D01*
X099994Y042994D01*
X099994Y042994D01*
X099994Y042753D01*
X099994Y041994D01*
X100753Y041994D01*
X100753Y041944D01*
X100740Y041845D01*
X100714Y041749D01*
X100676Y041657D01*
X100626Y041571D01*
X100566Y041492D01*
X100495Y041422D01*
X100416Y041361D01*
X100330Y041311D01*
X100238Y041273D01*
X100142Y041248D01*
X100043Y041235D01*
X099994Y041235D01*
X099994Y041994D01*
X099994Y041994D01*
X099994Y041235D01*
X099944Y041235D01*
X099845Y041248D01*
X099749Y041273D01*
X099657Y041311D01*
X099571Y041361D01*
X099492Y041422D01*
X099480Y041434D01*
X099412Y041367D01*
X099141Y041255D01*
X098847Y041255D01*
X098575Y041367D01*
X098494Y041449D01*
X098412Y041367D01*
X098141Y041255D01*
X097847Y041255D01*
X097635Y041342D01*
X097635Y041202D01*
X097660Y041213D01*
X098327Y041213D01*
X098504Y041139D01*
X098508Y041135D01*
X105914Y041135D01*
X106150Y041038D01*
X106330Y040857D01*
X107038Y040150D01*
X107053Y040113D01*
X107200Y040173D01*
X107788Y040173D01*
X107965Y040100D01*
X108100Y039965D01*
X108173Y039788D01*
X108173Y039200D01*
X108135Y039108D01*
X108135Y035008D01*
X108139Y035004D01*
X108213Y034827D01*
X108213Y034160D01*
X108202Y034135D01*
X115570Y034135D01*
X115516Y034206D01*
X115463Y034297D01*
X115423Y034394D01*
X115396Y034496D01*
X115382Y034600D01*
X115382Y034653D01*
X116484Y034653D01*
X117585Y034653D01*
X117585Y034705D01*
X117572Y034809D01*
X117544Y034911D01*
X117504Y035008D01*
X117452Y035099D01*
X117401Y035165D01*
X117446Y035210D01*
X117565Y035497D01*
X117565Y035808D01*
X117446Y036095D01*
X117389Y036153D01*
X117446Y036210D01*
X117565Y036497D01*
X117565Y036808D01*
X117446Y037095D01*
X117226Y037315D01*
X116939Y037434D01*
X116028Y037434D01*
X115741Y037315D01*
X115521Y037095D01*
X115402Y036808D01*
X115402Y036497D01*
X115521Y036210D01*
X115578Y036153D01*
X115521Y036095D01*
X115402Y035808D01*
X115402Y035497D01*
X115521Y035210D01*
X115566Y035165D01*
X115516Y035099D01*
X115463Y035008D01*
X115423Y034911D01*
X115396Y034809D01*
X115382Y034705D01*
X115382Y034653D01*
X116484Y034653D01*
X116484Y034653D01*
X117585Y034653D01*
X117585Y034600D01*
X117572Y034496D01*
X117544Y034394D01*
X117504Y034297D01*
X117452Y034206D01*
X117397Y034135D01*
X119614Y034135D01*
X119663Y034223D01*
X119549Y034497D01*
X119549Y034808D01*
X119668Y035095D01*
X119725Y035153D01*
X119668Y035210D01*
X119549Y035497D01*
X119549Y035808D01*
X119668Y036095D01*
X119713Y036141D01*
X119663Y036206D01*
X119610Y036297D01*
X119570Y036394D01*
X119543Y036496D01*
X119529Y036600D01*
X119529Y036653D01*
X120631Y036653D01*
X120631Y036653D01*
X120631Y037454D01*
X120983Y037454D01*
X121087Y037441D01*
X121189Y037413D01*
X121286Y037373D01*
X121377Y037321D01*
X121460Y037257D01*
X121535Y037182D01*
X121599Y037099D01*
X121651Y037008D01*
X121691Y036911D01*
X121719Y036809D01*
X121732Y036705D01*
X121732Y036653D01*
X120631Y036653D01*
X120631Y036653D01*
X120631Y037454D01*
X120278Y037454D01*
X120174Y037441D01*
X120072Y037413D01*
X119975Y037373D01*
X119884Y037321D01*
X119801Y037257D01*
X119727Y037182D01*
X119663Y037099D01*
X119610Y037008D01*
X119570Y036911D01*
X119543Y036809D01*
X119529Y036705D01*
X119529Y036653D01*
X120631Y036653D01*
X121732Y036653D01*
X121732Y036600D01*
X121719Y036496D01*
X121691Y036394D01*
X121651Y036297D01*
X121599Y036206D01*
X121548Y036141D01*
X121593Y036095D01*
X121712Y035808D01*
X121712Y035497D01*
X121593Y035210D01*
X121536Y035153D01*
X121593Y035095D01*
X121712Y034808D01*
X121712Y034497D01*
X121593Y034210D01*
X121373Y033990D01*
X121086Y033871D01*
X120933Y033871D01*
X120573Y033216D01*
X120538Y033130D01*
X120512Y033105D01*
X120494Y033073D01*
X120422Y033015D01*
X120357Y032950D01*
X120324Y032936D01*
X120295Y032913D01*
X120207Y032887D01*
X120121Y032852D01*
X120085Y032852D01*
X120050Y032842D01*
X119958Y032852D01*
X108202Y032852D01*
X108213Y032827D01*
X108213Y032160D01*
X108139Y031983D01*
X108135Y031979D01*
X108135Y029702D01*
X108160Y029713D01*
X108827Y029713D01*
X109004Y029639D01*
X109008Y029635D01*
X118431Y029635D01*
X118494Y029648D01*
X118557Y029635D01*
X118621Y029635D01*
X118681Y029610D01*
X118745Y029598D01*
X118798Y029562D01*
X118857Y029538D01*
X118903Y029492D01*
X118957Y029456D01*
X118992Y029402D01*
X119038Y029357D01*
X119062Y029297D01*
X119544Y028575D01*
X119649Y028575D01*
X119936Y028456D01*
X119994Y028399D01*
X120051Y028456D01*
X120338Y028575D01*
X120649Y028575D01*
X120936Y028456D01*
X120982Y028411D01*
X121047Y028462D01*
X121138Y028514D01*
X121235Y028554D01*
X121337Y028582D01*
X121441Y028595D01*
X121494Y028595D01*
X121494Y027494D01*
X121494Y026392D01*
X121494Y027494D01*
X121494Y027494D01*
X121494Y028295D02*
X121494Y028295D01*
X122119Y028295D02*
X123890Y028295D01*
X123831Y028236D02*
X123712Y027949D01*
X123831Y028236D02*
X124051Y028456D01*
X124338Y028575D01*
X124649Y028575D01*
X124936Y028456D01*
X124994Y028399D01*
X125051Y028456D01*
X125338Y028575D01*
X125649Y028575D01*
X125936Y028456D01*
X125982Y028411D01*
X126047Y028462D01*
X126138Y028514D01*
X126235Y028554D01*
X126337Y028582D01*
X126441Y028595D01*
X126494Y028595D01*
X127932Y029097D02*
X119196Y029097D01*
X118188Y028295D02*
X118063Y028295D01*
X118135Y027494D02*
X118712Y027494D01*
X118890Y026692D02*
X118135Y026692D01*
X121494Y026692D02*
X121494Y026692D01*
X122119Y026692D02*
X123890Y026692D01*
X127932Y029899D02*
X108135Y029899D01*
X108135Y030700D02*
X127932Y030700D01*
X127932Y031502D02*
X108135Y031502D01*
X108213Y032304D02*
X127932Y032304D01*
X127932Y033105D02*
X120513Y033105D01*
X121173Y033907D02*
X126333Y033907D01*
X126337Y033906D02*
X126441Y033892D01*
X126494Y033892D01*
X126546Y033892D01*
X126650Y033906D01*
X126752Y033933D01*
X126849Y033973D01*
X126940Y034026D01*
X127023Y034090D01*
X127098Y034164D01*
X127162Y034247D01*
X127214Y034338D01*
X127254Y034435D01*
X127282Y034537D01*
X127295Y034641D01*
X127295Y034994D01*
X127295Y035346D01*
X127282Y035450D01*
X127254Y035552D01*
X127214Y035649D01*
X127162Y035740D01*
X127098Y035823D01*
X127023Y035898D01*
X126940Y035962D01*
X126849Y036014D01*
X126752Y036054D01*
X126650Y036082D01*
X126546Y036095D01*
X126494Y036095D01*
X126494Y034994D01*
X126494Y034994D01*
X127295Y034994D01*
X126494Y034994D01*
X126494Y034994D01*
X126494Y036095D01*
X126441Y036095D01*
X126337Y036082D01*
X126235Y036054D01*
X126138Y036014D01*
X126047Y035962D01*
X125982Y035911D01*
X125936Y035956D01*
X125649Y036075D01*
X125338Y036075D01*
X125051Y035956D01*
X124994Y035899D01*
X124936Y035956D01*
X124649Y036075D01*
X124338Y036075D01*
X124051Y035956D01*
X123831Y035736D01*
X123712Y035449D01*
X123712Y034538D01*
X123831Y034251D01*
X124051Y034031D01*
X124338Y033912D01*
X124649Y033912D01*
X124936Y034031D01*
X124994Y034088D01*
X125051Y034031D01*
X125338Y033912D01*
X125649Y033912D01*
X125936Y034031D01*
X125982Y034076D01*
X126047Y034026D01*
X126138Y033973D01*
X126235Y033933D01*
X126337Y033906D01*
X126494Y033907D02*
X126494Y033907D01*
X126494Y033892D02*
X126494Y034994D01*
X126494Y034994D01*
X126494Y033892D01*
X126654Y033907D02*
X127932Y033907D01*
X127932Y034709D02*
X127295Y034709D01*
X126494Y034709D02*
X126494Y034709D01*
X126494Y035510D02*
X126494Y035510D01*
X127266Y035510D02*
X127932Y035510D01*
X127932Y036312D02*
X121657Y036312D01*
X121587Y037113D02*
X127932Y037113D01*
X127932Y037915D02*
X127246Y037915D01*
X127254Y037935D02*
X127282Y038037D01*
X127295Y038141D01*
X127295Y038494D01*
X127295Y038846D01*
X127282Y038950D01*
X127254Y039052D01*
X127214Y039149D01*
X127162Y039240D01*
X127098Y039323D01*
X127023Y039398D01*
X126940Y039462D01*
X126849Y039514D01*
X126752Y039554D01*
X126650Y039582D01*
X126546Y039595D01*
X126494Y039595D01*
X126494Y038494D01*
X126494Y038494D01*
X127295Y038494D01*
X126494Y038494D01*
X126494Y038494D01*
X126494Y039595D01*
X126441Y039595D01*
X126337Y039582D01*
X126235Y039554D01*
X126138Y039514D01*
X126047Y039462D01*
X125982Y039411D01*
X125936Y039456D01*
X125649Y039575D01*
X125338Y039575D01*
X125051Y039456D01*
X124994Y039399D01*
X124936Y039456D01*
X124649Y039575D01*
X124338Y039575D01*
X124051Y039456D01*
X123831Y039236D01*
X123712Y038949D01*
X123712Y038038D01*
X123831Y037751D01*
X124051Y037531D01*
X124338Y037412D01*
X124649Y037412D01*
X124936Y037531D01*
X124994Y037588D01*
X125051Y037531D01*
X125338Y037412D01*
X125649Y037412D01*
X125936Y037531D01*
X125982Y037576D01*
X126047Y037526D01*
X126138Y037473D01*
X126235Y037433D01*
X126337Y037406D01*
X126441Y037392D01*
X126494Y037392D01*
X126546Y037392D01*
X126650Y037406D01*
X126752Y037433D01*
X126849Y037473D01*
X126940Y037526D01*
X127023Y037590D01*
X127098Y037664D01*
X127162Y037747D01*
X127214Y037838D01*
X127254Y037935D01*
X126494Y037915D02*
X126494Y037915D01*
X126494Y037392D02*
X126494Y038494D01*
X126494Y038494D01*
X126494Y037392D01*
X123763Y037915D02*
X108135Y037915D01*
X108135Y037113D02*
X115539Y037113D01*
X115479Y036312D02*
X108135Y036312D01*
X108135Y035510D02*
X115402Y035510D01*
X115383Y034709D02*
X108213Y034709D01*
X116484Y034653D02*
X116484Y034653D01*
X117585Y034709D02*
X119549Y034709D01*
X119549Y035510D02*
X117565Y035510D01*
X117488Y036312D02*
X119604Y036312D01*
X119674Y037113D02*
X117428Y037113D01*
X118158Y038182D02*
X118494Y038182D01*
X118830Y038182D01*
X119305Y038658D01*
X119305Y038994D01*
X119305Y039330D01*
X119127Y039508D01*
X119165Y039545D01*
X119285Y039836D01*
X119285Y040151D01*
X119197Y040365D01*
X119247Y040326D01*
X119338Y040273D01*
X119435Y040233D01*
X119537Y040206D01*
X119641Y040192D01*
X119994Y040192D01*
X119994Y040994D01*
X118892Y040994D01*
X118892Y040941D01*
X118906Y040837D01*
X118933Y040735D01*
X118973Y040638D01*
X118980Y040627D01*
X118942Y040665D01*
X118651Y040785D01*
X118336Y040785D01*
X118045Y040665D01*
X117823Y040442D01*
X117702Y040151D01*
X117702Y039836D01*
X117823Y039545D01*
X117860Y039508D01*
X117682Y039330D01*
X117682Y038994D01*
X118494Y038994D01*
X119305Y038994D01*
X118494Y038994D01*
X118494Y038994D01*
X118494Y038182D01*
X118494Y038994D01*
X118494Y038994D01*
X118494Y038994D01*
X117682Y038994D01*
X117682Y038658D01*
X118158Y038182D01*
X118494Y038717D02*
X118494Y038717D01*
X119305Y038717D02*
X123712Y038717D01*
X124201Y039518D02*
X119138Y039518D01*
X117849Y039518D02*
X108173Y039518D01*
X108135Y038717D02*
X117682Y038717D01*
X116494Y040192D02*
X116141Y040192D01*
X116037Y040206D01*
X115935Y040233D01*
X115838Y040273D01*
X115747Y040326D01*
X115664Y040390D01*
X115590Y040464D01*
X115526Y040547D01*
X115473Y040638D01*
X115433Y040735D01*
X115406Y040837D01*
X115392Y040941D01*
X115392Y040994D01*
X116494Y040994D01*
X116494Y040192D01*
X116494Y040320D02*
X116494Y040320D01*
X117230Y040320D02*
X117772Y040320D01*
X117585Y041122D02*
X118902Y041122D01*
X118912Y041923D02*
X117575Y041923D01*
X115412Y041923D02*
X100750Y041923D01*
X099994Y041923D02*
X099994Y041923D01*
X099994Y042725D02*
X099994Y042725D01*
X100753Y042725D02*
X111775Y042725D01*
X111871Y043527D02*
X100671Y043527D01*
X099994Y043527D02*
X099994Y043527D01*
X098352Y043663D02*
X098330Y043676D01*
X098238Y043714D01*
X098142Y043740D01*
X098043Y043753D01*
X097994Y043753D01*
X097994Y042994D01*
X097994Y042994D01*
X097994Y043753D01*
X097944Y043753D01*
X097845Y043740D01*
X097749Y043714D01*
X097657Y043676D01*
X097635Y043663D01*
X097635Y044228D01*
X098259Y044852D01*
X098652Y044852D01*
X098450Y044650D01*
X098352Y044414D01*
X098352Y043663D01*
X097994Y043527D02*
X097994Y043527D01*
X097736Y044328D02*
X098352Y044328D01*
X099943Y044328D02*
X112438Y044328D01*
X113213Y042725D02*
X115459Y042725D01*
X117528Y042725D02*
X118959Y042725D01*
X121028Y042725D02*
X127932Y042725D01*
X127412Y042378D02*
X127141Y042490D01*
X126847Y042490D01*
X126575Y042378D01*
X126494Y042296D01*
X126412Y042378D01*
X126141Y042490D01*
X125847Y042490D01*
X125575Y042378D01*
X125494Y042296D01*
X125412Y042378D01*
X125141Y042490D01*
X124847Y042490D01*
X124575Y042378D01*
X124508Y042311D01*
X124495Y042323D01*
X124416Y042384D01*
X124330Y042433D01*
X124238Y042471D01*
X124142Y042497D01*
X124043Y042510D01*
X123994Y042510D01*
X123994Y041494D01*
X123994Y041494D01*
X123994Y042510D01*
X123944Y042510D01*
X123845Y042497D01*
X123749Y042471D01*
X123657Y042433D01*
X123571Y042384D01*
X123492Y042323D01*
X123480Y042311D01*
X123412Y042378D01*
X123141Y042490D01*
X122847Y042490D01*
X122575Y042378D01*
X122494Y042296D01*
X122412Y042378D01*
X122141Y042490D01*
X121847Y042490D01*
X121575Y042378D01*
X121367Y042170D01*
X121255Y041898D01*
X121255Y041089D01*
X121367Y040818D01*
X121575Y040610D01*
X121847Y040497D01*
X122141Y040497D01*
X122412Y040610D01*
X122494Y040691D01*
X122575Y040610D01*
X122847Y040497D01*
X123141Y040497D01*
X123412Y040610D01*
X123480Y040677D01*
X123492Y040664D01*
X123571Y040604D01*
X123657Y040554D01*
X123749Y040516D01*
X123845Y040490D01*
X123944Y040477D01*
X123994Y040477D01*
X124043Y040477D01*
X124142Y040490D01*
X124238Y040516D01*
X124330Y040554D01*
X124416Y040604D01*
X124495Y040664D01*
X124508Y040677D01*
X124575Y040610D01*
X124847Y040497D01*
X125141Y040497D01*
X125412Y040610D01*
X125494Y040691D01*
X125575Y040610D01*
X125847Y040497D01*
X126141Y040497D01*
X126412Y040610D01*
X126494Y040691D01*
X126575Y040610D01*
X126847Y040497D01*
X127141Y040497D01*
X127412Y040610D01*
X127620Y040818D01*
X127733Y041089D01*
X127733Y041898D01*
X127620Y042170D01*
X127412Y042378D01*
X127722Y041923D02*
X127932Y041923D01*
X127932Y041122D02*
X127733Y041122D01*
X127932Y040320D02*
X120730Y040320D01*
X119994Y040320D02*
X119994Y040320D01*
X119257Y040320D02*
X119215Y040320D01*
X121085Y041122D02*
X121255Y041122D01*
X121265Y041923D02*
X121075Y041923D01*
X123994Y041923D02*
X123994Y041923D01*
X123994Y041494D02*
X123994Y040477D01*
X123994Y041494D01*
X123994Y041494D01*
X123994Y041122D02*
X123994Y041122D01*
X124786Y039518D02*
X125201Y039518D01*
X125786Y039518D02*
X126149Y039518D01*
X126494Y039518D02*
X126494Y039518D01*
X126839Y039518D02*
X127932Y039518D01*
X127932Y038717D02*
X127295Y038717D01*
X126494Y038717D02*
X126494Y038717D01*
X120631Y037113D02*
X120631Y037113D01*
X120631Y036653D02*
X120631Y036653D01*
X121712Y035510D02*
X123737Y035510D01*
X123712Y034709D02*
X121712Y034709D01*
X115757Y040320D02*
X106868Y040320D01*
X105947Y041122D02*
X115402Y041122D01*
X119794Y045135D02*
X119795Y045141D01*
X119795Y045494D01*
X119795Y045846D01*
X119782Y045950D01*
X119754Y046052D01*
X119714Y046149D01*
X119662Y046240D01*
X119598Y046323D01*
X119523Y046398D01*
X119478Y046432D01*
X121706Y046432D01*
X121575Y046378D01*
X121367Y046170D01*
X121255Y045898D01*
X121255Y045135D01*
X119794Y045135D01*
X119795Y045494D02*
X118994Y045494D01*
X119795Y045494D01*
X119784Y045932D02*
X121269Y045932D01*
X118994Y045494D02*
X118994Y045494D01*
X126316Y043527D02*
X127932Y043527D01*
X127932Y044328D02*
X127118Y044328D01*
X127733Y045130D02*
X127932Y045130D01*
X127932Y045932D02*
X127719Y045932D01*
X094352Y041122D02*
X092522Y041122D01*
X092713Y040320D02*
X094352Y040320D01*
X094352Y039518D02*
X092635Y039518D01*
X092635Y038717D02*
X094352Y038717D01*
X094352Y037915D02*
X092635Y037915D01*
X092781Y037113D02*
X094275Y037113D01*
X094571Y036312D02*
X093583Y036312D01*
X094385Y035510D02*
X094775Y035510D01*
X092372Y034709D02*
X090619Y034709D01*
X090621Y035510D02*
X091570Y035510D01*
X090875Y036312D02*
X090623Y036312D01*
X090626Y037113D02*
X090852Y037113D01*
X090852Y037915D02*
X090628Y037915D01*
X089345Y037915D02*
X088135Y037915D01*
X088135Y037113D02*
X089343Y037113D01*
X089340Y036312D02*
X088135Y036312D01*
X088135Y035510D02*
X089338Y035510D01*
X089336Y034709D02*
X088135Y034709D01*
X088135Y033907D02*
X089333Y033907D01*
X089331Y033105D02*
X088135Y033105D01*
X088135Y032304D02*
X089329Y032304D01*
X090612Y032304D02*
X094776Y032304D01*
X093975Y033105D02*
X090614Y033105D01*
X090617Y033907D02*
X093173Y033907D01*
X095352Y031502D02*
X090610Y031502D01*
X090607Y030700D02*
X095352Y030700D01*
X095352Y029899D02*
X090605Y029899D01*
X090603Y029097D02*
X095352Y029097D01*
X089320Y029097D02*
X088135Y029097D01*
X088135Y029899D02*
X089322Y029899D01*
X089324Y030700D02*
X088135Y030700D01*
X088135Y031502D02*
X089327Y031502D01*
X089347Y038717D02*
X088135Y038717D01*
X088154Y039518D02*
X089349Y039518D01*
X090633Y039518D02*
X090775Y039518D01*
X090852Y038717D02*
X090630Y038717D01*
X090713Y040320D02*
X091275Y040320D01*
X091466Y041122D02*
X090522Y041122D01*
X089275Y040320D02*
X088213Y040320D01*
X084852Y041122D02*
X084029Y041122D01*
X084494Y043539D02*
X084412Y043620D01*
X084141Y043733D01*
X083847Y043733D01*
X083575Y043620D01*
X083494Y043539D01*
X083412Y043620D01*
X083141Y043733D01*
X082847Y043733D01*
X082575Y043620D01*
X082494Y043539D01*
X082412Y043620D01*
X082141Y043733D01*
X081847Y043733D01*
X081575Y043620D01*
X081494Y043539D01*
X081412Y043620D01*
X081141Y043733D01*
X080847Y043733D01*
X080575Y043620D01*
X080494Y043539D01*
X080412Y043620D01*
X080141Y043733D01*
X079847Y043733D01*
X079575Y043620D01*
X079494Y043539D01*
X079412Y043620D01*
X079141Y043733D01*
X078847Y043733D01*
X078575Y043620D01*
X078494Y043539D01*
X078412Y043620D01*
X078141Y043733D01*
X077847Y043733D01*
X077575Y043620D01*
X077494Y043539D01*
X077412Y043620D01*
X077141Y043733D01*
X076847Y043733D01*
X076575Y043620D01*
X076508Y043553D01*
X076495Y043566D01*
X076416Y043626D01*
X076330Y043676D01*
X076238Y043714D01*
X076142Y043740D01*
X076043Y043753D01*
X075994Y043753D01*
X075994Y042994D01*
X075994Y042994D01*
X075994Y043753D01*
X075944Y043753D01*
X075845Y043740D01*
X075749Y043714D01*
X075657Y043676D01*
X075571Y043626D01*
X075492Y043566D01*
X075422Y043495D01*
X075361Y043416D01*
X075311Y043330D01*
X075273Y043238D01*
X075248Y043142D01*
X075235Y043043D01*
X075235Y042994D01*
X075994Y042994D01*
X075994Y041994D01*
X075994Y041994D01*
X075994Y042235D01*
X075994Y042994D01*
X075994Y042994D01*
X075994Y042994D01*
X075235Y042994D01*
X075235Y042944D01*
X075248Y042845D01*
X075273Y042749D01*
X075311Y042657D01*
X075361Y042571D01*
X075421Y042494D01*
X075361Y042416D01*
X075311Y042330D01*
X075273Y042238D01*
X075248Y042142D01*
X075235Y042043D01*
X075235Y041994D01*
X075994Y041994D01*
X075994Y041994D01*
X075235Y041994D01*
X075235Y041944D01*
X075248Y041845D01*
X075273Y041749D01*
X075311Y041657D01*
X075324Y041635D01*
X074259Y041635D01*
X072592Y043303D01*
X072660Y043275D01*
X073327Y043275D01*
X073504Y043348D01*
X073639Y043483D01*
X073713Y043660D01*
X073713Y044327D01*
X073654Y044468D01*
X084732Y044468D01*
X085352Y043848D01*
X085352Y043645D01*
X085141Y043733D01*
X084847Y043733D01*
X084575Y043620D01*
X084494Y043539D01*
X084872Y044328D02*
X073712Y044328D01*
X073657Y043527D02*
X075453Y043527D01*
X075994Y043527D02*
X075994Y043527D01*
X075994Y042725D02*
X075994Y042725D01*
X075283Y042725D02*
X073170Y042725D01*
X073971Y041923D02*
X075237Y041923D01*
X069643Y042059D02*
X069643Y042059D01*
X069463Y042240D02*
X069463Y042240D01*
X127300Y021882D02*
X127932Y021882D01*
X020592Y016271D02*
X018555Y016271D01*
X018555Y015469D02*
X020593Y015469D01*
D31*
X021994Y019994D03*
X030880Y021174D03*
X030994Y019994D03*
X040494Y019994D03*
X040585Y021175D03*
X045494Y019994D03*
X050494Y021494D03*
X053494Y021494D03*
X049494Y023994D03*
X045494Y023994D03*
X049994Y028994D03*
X055494Y028994D03*
X042061Y031994D03*
X043994Y037494D03*
X048994Y043994D03*
X028494Y035494D03*
X028494Y029994D03*
X072994Y028994D03*
X072994Y031994D03*
X089956Y027129D03*
X087494Y024494D03*
X084494Y023494D03*
X075494Y021494D03*
X072994Y024494D03*
X096493Y017377D03*
X096494Y016494D03*
X104994Y021494D03*
X103994Y021994D03*
X106494Y027994D03*
X108494Y028994D03*
X107494Y032494D03*
X107494Y034494D03*
X106494Y034494D03*
X095994Y036994D03*
X094994Y036994D03*
X095494Y035494D03*
X091494Y039494D03*
X091994Y040494D03*
X089994Y040494D03*
X087494Y039994D03*
X096494Y040494D03*
X097994Y040494D03*
X112494Y042994D03*
X072994Y043994D03*
X072994Y040994D03*
X071494Y010494D03*
X047494Y010494D03*
D32*
X071494Y010494D01*
X072994Y010701D02*
X073701Y009994D01*
X126787Y009994D01*
X127494Y010701D01*
X127494Y020781D01*
X126801Y021474D01*
X124994Y021474D01*
X118494Y022494D02*
X118494Y019994D01*
X117494Y018557D02*
X119990Y016061D01*
X119994Y014837D02*
X116994Y017837D01*
X116994Y021706D01*
X115268Y023432D01*
X115268Y026720D01*
X114994Y026994D01*
X096701Y026994D01*
X095994Y027701D01*
X095994Y031994D01*
X091494Y036494D01*
X091494Y039494D01*
X091994Y040494D02*
X091994Y036994D01*
X096994Y031994D01*
X096994Y028201D01*
X097701Y027494D01*
X115494Y027494D01*
X115994Y026994D01*
X115994Y023726D01*
X117494Y022226D01*
X117494Y018557D01*
X114663Y019515D02*
X106114Y019496D01*
X104994Y020614D01*
X104994Y021494D01*
X103994Y021994D02*
X111494Y021994D01*
X111994Y021494D01*
X114163Y021494D01*
X114663Y021515D01*
X116994Y023994D02*
X118494Y022494D01*
X118494Y023994D02*
X117494Y025494D01*
X117494Y027994D01*
X116994Y028494D01*
X107994Y028494D01*
X107494Y028994D01*
X107494Y032494D01*
X107494Y034494D02*
X107494Y039494D01*
X106494Y039787D02*
X105787Y040494D01*
X097994Y040494D01*
X096494Y040494D02*
X096494Y042494D01*
X095994Y042994D01*
X095494Y042494D02*
X095494Y035494D01*
X096994Y034201D02*
X096994Y041994D01*
X096994Y042994D02*
X096994Y044494D01*
X097994Y045494D01*
X116994Y045494D01*
X114994Y044494D02*
X124494Y044494D01*
X124994Y044994D01*
X124994Y045494D01*
X125876Y043994D02*
X126994Y045112D01*
X126994Y045494D01*
X125876Y043994D02*
X112994Y043994D01*
X112494Y042994D01*
X114494Y044994D02*
X114994Y044494D01*
X114494Y044994D02*
X099701Y044994D01*
X098994Y044287D01*
X098994Y042994D01*
X095994Y041994D02*
X095994Y036994D01*
X094994Y036994D02*
X094994Y041994D01*
X095494Y042494D02*
X094994Y042994D01*
X089994Y041994D02*
X088994Y040994D01*
X087201Y040994D01*
X086494Y040287D01*
X086494Y026494D01*
X085494Y025494D01*
X085494Y022201D01*
X084787Y021494D01*
X075494Y021494D01*
X072994Y024494D02*
X049994Y024494D01*
X049494Y023994D01*
X046974Y025750D02*
X046994Y021994D01*
X047064Y021994D01*
X049564Y019494D01*
X054994Y019494D01*
X056494Y017994D01*
X057994Y017994D01*
X059494Y016494D02*
X059494Y020994D01*
X058008Y022480D01*
X057999Y022480D01*
X053494Y021494D02*
X050494Y021494D01*
X048494Y019080D02*
X047080Y020494D01*
X040989Y020496D01*
X040588Y020893D01*
X040585Y021175D01*
X040494Y019994D02*
X045494Y019994D01*
X048494Y019080D02*
X048494Y012112D01*
X049612Y010994D01*
X060287Y010994D01*
X060994Y011701D01*
X060994Y016287D01*
X061701Y016994D01*
X064994Y016994D01*
X072287Y016994D01*
X072994Y016287D01*
X072994Y010701D01*
X059994Y011994D02*
X054494Y011994D01*
X056994Y009494D02*
X057494Y009994D01*
X056994Y009494D02*
X046494Y009494D01*
X045494Y010494D01*
X045494Y013484D01*
X045504Y013494D01*
X032494Y014514D02*
X032494Y022494D01*
X031994Y022994D01*
X029494Y022994D01*
X028494Y023494D01*
X028079Y024338D01*
X027079Y024338D02*
X026994Y024423D01*
X026994Y024994D01*
X027346Y025346D01*
X032142Y025346D01*
X032994Y024494D01*
X041994Y024494D01*
X042494Y023994D01*
X045494Y023994D01*
X046974Y025750D02*
X046390Y026331D01*
X034494Y026331D01*
X034494Y025994D01*
X027994Y025994D01*
X027201Y026494D02*
X028494Y027787D01*
X028494Y029994D01*
X030201Y031494D02*
X032494Y031494D01*
X034167Y030665D02*
X038571Y030665D01*
X039019Y030217D01*
X045025Y030217D01*
X046494Y028994D01*
X049994Y028994D01*
X055494Y028994D02*
X072994Y028994D01*
X072994Y031994D02*
X055994Y031994D01*
X054494Y032994D01*
X047494Y032994D01*
X045994Y031994D01*
X042061Y031994D01*
X042055Y032916D01*
X043994Y037494D02*
X045994Y039994D01*
X045991Y042322D01*
X046821Y043154D01*
X069466Y043149D01*
X070009Y042601D01*
X071601Y040994D01*
X072994Y040994D01*
X073994Y040994D02*
X070994Y043994D01*
X048994Y043994D01*
X029994Y044494D02*
X029494Y043994D01*
X029494Y032201D01*
X030201Y031494D01*
X028494Y035494D02*
X028786Y035786D01*
X028786Y044696D01*
X029200Y045110D01*
X084998Y045110D01*
X085994Y044114D01*
X085994Y042994D01*
X085494Y042494D02*
X085494Y028494D01*
X084494Y027494D01*
X084494Y023494D01*
X087494Y024494D02*
X087494Y039994D01*
X089994Y040494D02*
X089956Y027129D01*
X088701Y022994D02*
X097494Y022994D01*
X101494Y022994D02*
X101494Y020796D01*
X103296Y018994D01*
X112494Y018994D01*
X113994Y017494D01*
X113994Y016494D01*
X115994Y016494D02*
X115994Y015994D01*
X119994Y014837D02*
X119994Y012494D01*
X115994Y013494D02*
X111992Y013494D01*
X111492Y013992D01*
X111483Y016762D01*
X110858Y017386D01*
X097481Y017386D01*
X096493Y017377D01*
X096494Y016494D02*
X109357Y016450D01*
X110157Y015647D01*
X110157Y012947D01*
X110145Y011612D01*
X110758Y010994D01*
X111494Y010994D01*
X102994Y010994D02*
X102494Y011494D01*
X100994Y011494D01*
X100494Y011994D01*
X100494Y013994D01*
X098494Y015994D01*
X094994Y015994D01*
X093994Y016994D01*
X087994Y018494D02*
X111494Y018494D01*
X111994Y017994D01*
X102494Y015994D02*
X102494Y014634D01*
X102206Y014346D01*
X087994Y018494D02*
X087994Y018994D01*
X087994Y019994D02*
X087994Y022287D01*
X088701Y022994D01*
X106494Y027994D02*
X116494Y027994D01*
X116994Y027494D01*
X116994Y023994D01*
X119494Y027494D02*
X118494Y028994D01*
X108494Y028994D01*
X097701Y033494D02*
X096994Y034201D01*
X097701Y033494D02*
X119994Y033494D01*
X120631Y034653D01*
X106494Y034494D02*
X106494Y039787D01*
X088994Y041994D02*
X088494Y042494D01*
X088498Y044729D01*
X087455Y045775D01*
X028637Y045857D01*
X028102Y045324D01*
X028090Y038501D01*
X027464Y037878D01*
X020715Y037890D01*
X020247Y037421D01*
X020254Y028494D01*
X020254Y025512D01*
X020247Y025505D01*
X021222Y024926D02*
X021811Y025516D01*
X022493Y025516D01*
X023079Y024930D01*
X023079Y024338D01*
X024079Y024338D02*
X024079Y024668D01*
X020254Y028494D01*
X018994Y029494D02*
X018994Y020994D01*
X020494Y019494D01*
X020494Y017494D01*
X023443Y019230D02*
X023944Y019690D01*
X026579Y019690D01*
X030994Y019690D01*
X030994Y019994D01*
X030880Y021174D02*
X028103Y021174D01*
X027577Y021701D01*
X027579Y022338D01*
X028579Y022338D02*
X031302Y022355D01*
X031760Y021896D01*
X031738Y018994D01*
X029504Y016760D01*
X029504Y013494D01*
X031474Y013494D02*
X032494Y014514D01*
X027474Y013494D02*
X027474Y011474D01*
X026484Y010484D01*
X021806Y010484D01*
X021240Y011051D01*
X021222Y024926D01*
X026079Y024338D02*
X026235Y024494D01*
X026494Y024994D01*
X026494Y025787D01*
X027201Y026494D01*
X034494Y025994D02*
X034494Y025494D01*
X026579Y022338D02*
X026579Y019690D01*
X023494Y020494D02*
X022994Y019994D01*
X021994Y019994D01*
X023494Y020494D02*
X023494Y022253D01*
X023579Y022338D01*
X018994Y029494D02*
X019494Y029994D01*
X029994Y044494D02*
X071494Y044494D01*
X071994Y043994D01*
X072994Y043994D01*
X073994Y040994D02*
X082994Y040994D01*
X083494Y041494D01*
X083494Y042494D01*
X083994Y042994D01*
X084994Y042994D02*
X085494Y042494D01*
D33*
X107494Y039494D03*
X101494Y022994D03*
X097494Y022994D03*
X111994Y017994D03*
X102494Y015994D03*
X093994Y016994D03*
X102994Y010994D03*
X059994Y011994D03*
X057494Y009994D03*
X054494Y011994D03*
X059494Y016494D03*
X057994Y017994D03*
X027994Y025994D03*
X019494Y029994D03*
X020494Y017494D03*
D34*
X047994Y025494D03*
X049994Y034994D03*
D35*
X034826Y034914D02*
X034826Y036489D01*
X034841Y036489D01*
M02*
