%
M48
M72
T01C0.0236
T02C0.0320
T03C0.0394
T04C0.0400
T05C0.0440
T06C0.0520
%
T01
X5697Y6680
X15497Y6680
X17997Y2880
X24397Y3580
X24797Y4880
T02
X1957Y3680
X2957Y3680
X2957Y6680
X1957Y6680
X4463Y9171
X4463Y10171
X4463Y11171
X3997Y12680
X3997Y13680
X4493Y15173
X3493Y15173
X1974Y15181
X1974Y16181
X1967Y17184
X1967Y18184
X1967Y19184
X1995Y20181
X1995Y21181
X1995Y22181
X1993Y23175
X1993Y24175
X1993Y25175
X1985Y26176
X1985Y27176
X1985Y28176
X1998Y29183
X1998Y30183
X1998Y31183
X2006Y32185
X2006Y33185
X2006Y34185
X3492Y33189
X4492Y33189
X5992Y33180
X6992Y33180
X8497Y33180
X9497Y33180
X10997Y33175
X11997Y33175
X13502Y33180
X14502Y33180
X15997Y33180
X16997Y33180
X18497Y33180
X19497Y33180
X20992Y33185
X21992Y33185
X23502Y33175
X24502Y33175
X25997Y33185
X26997Y33185
X28492Y33175
X29492Y33175
X29492Y30170
X28492Y30170
X26997Y30175
X25997Y30175
X24502Y30175
X23502Y30175
X21997Y30175
X20997Y30175
X19502Y30180
X18502Y30180
X16992Y30170
X15992Y30170
X14502Y30185
X13502Y30185
X11992Y30195
X10992Y30195
X9502Y30190
X8502Y30190
X6997Y30180
X5997Y30180
X4499Y30182
X3499Y30182
X3495Y27176
X4495Y27176
X6003Y27180
X7003Y27180
X8497Y27180
X9497Y27180
X11007Y27180
X12007Y27180
X13497Y27180
X14497Y27180
X15997Y27180
X16997Y27180
X18497Y27180
X19497Y27180
X20997Y27180
X21997Y27180
X23497Y27180
X24497Y27180
X25997Y27180
X26997Y27180
X28497Y27180
X29497Y27180
X29497Y24175
X28497Y24175
X26992Y24180
X25992Y24180
X24497Y24170
X23497Y24170
X21997Y24180
X20997Y24180
X19497Y24175
X18497Y24175
X17007Y24175
X16007Y24175
X14492Y24180
X13492Y24180
X11997Y24180
X10997Y24180
X9492Y24190
X8492Y24190
X6992Y24174
X5992Y24174
X4497Y24184
X3497Y24184
X3504Y21182
X4504Y21182
X5999Y21177
X6999Y21177
X8487Y21175
X9487Y21175
X10992Y21180
X11992Y21180
X13497Y21190
X14497Y21190
X15997Y21185
X16997Y21185
X18492Y21185
X19492Y21185
X20992Y21180
X21992Y21180
X23507Y21180
X24507Y21180
X25997Y21175
X26997Y21175
X28502Y21190
X29502Y21190
X29497Y18180
X28497Y18180
X26997Y18180
X25997Y18180
X24492Y18195
X23492Y18195
X22007Y18185
X21007Y18185
X19502Y18180
X18502Y18180
X17002Y18175
X16002Y18175
X14497Y18210
X13497Y18210
X11992Y18195
X10992Y18195
X9502Y18185
X8502Y18185
X6991Y18165
X5991Y18165
X4501Y18175
X3501Y18175
X6003Y15193
X7003Y15193
X6497Y13680
X6497Y12680
X7023Y11181
X7023Y10181
X7023Y9181
X9473Y9177
X9473Y10177
X9473Y11177
X8997Y12680
X8997Y13680
X8497Y15195
X9497Y15195
X10997Y15190
X11997Y15190
X13487Y15190
X14487Y15190
X13997Y13680
X13997Y12680
X14503Y11186
X14503Y10186
X14503Y9186
X11998Y9182
X11998Y10182
X11998Y11182
X11497Y12680
X11497Y13680
X16007Y15185
X17007Y15185
X16497Y13680
X16497Y12680
X16988Y11181
X16988Y10181
X16988Y9181
X19503Y9185
X19503Y10185
X19503Y11185
X18997Y12680
X18997Y13680
X18512Y15190
X19512Y15190
X20992Y15180
X21992Y15180
X23527Y15175
X24527Y15175
X23997Y13680
X23997Y12680
X24499Y11177
X24499Y10177
X24499Y9177
X26499Y9161
X26499Y10161
X26499Y11161
X26497Y12680
X26497Y13680
X26007Y15170
X27007Y15170
X28487Y15175
X29487Y15175
X28997Y13680
X28997Y12680
X28497Y11180
X28497Y10180
X28497Y9180
X21989Y9182
X21989Y10182
X21989Y11182
X21497Y12680
X21497Y13680
X1974Y14181
T03
X16997Y7180
X17997Y7180
X18997Y7180
X19997Y7180
X20997Y7180
X21997Y7180
X22997Y7180
X23997Y7180
X24997Y7180
X25997Y7180
X26997Y7180
X27997Y7180
X28997Y6680
X28997Y5680
X28997Y4680
X28997Y3680
X28997Y2680
X28997Y1680
X27997Y1180
X26997Y1180
X25997Y1180
X24997Y1180
X23997Y1180
X22997Y1180
X21997Y1180
X20997Y1180
X20447Y2330
X19447Y2330
X18997Y1180
X17997Y1180
X16997Y1180
X19997Y1180
X23547Y2330
X24547Y2330
T04
X7707Y5105
X6707Y5105
X5707Y5105
T05
X4367Y1755
X8367Y1755
T06
X10527Y3170
X12497Y3170
X14467Y3170
M30
